G04 #@! TF.FileFunction,Legend,Bot*
%FSLAX46Y46*%
G04 Gerber Fmt 4.6, Leading zero omitted, Abs format (unit mm)*
G04 Created by KiCad (PCBNEW 4.0.5) date 11/08/17 14:32:28*
%MOMM*%
%LPD*%
G01*
G04 APERTURE LIST*
%ADD10C,0.100000*%
%ADD11C,0.200000*%
%ADD12C,0.250000*%
%ADD13C,0.120000*%
%ADD14C,0.010000*%
%ADD15C,0.125000*%
G04 APERTURE END LIST*
D10*
D11*
X181248095Y-104246668D02*
X182048095Y-104246668D01*
X182048095Y-104056192D01*
X182010000Y-103941906D01*
X181933810Y-103865715D01*
X181857619Y-103827620D01*
X181705238Y-103789525D01*
X181590952Y-103789525D01*
X181438571Y-103827620D01*
X181362381Y-103865715D01*
X181286190Y-103941906D01*
X181248095Y-104056192D01*
X181248095Y-104246668D01*
X181286190Y-103141906D02*
X181248095Y-103218096D01*
X181248095Y-103370477D01*
X181286190Y-103446668D01*
X181362381Y-103484763D01*
X181667143Y-103484763D01*
X181743333Y-103446668D01*
X181781429Y-103370477D01*
X181781429Y-103218096D01*
X181743333Y-103141906D01*
X181667143Y-103103811D01*
X181590952Y-103103811D01*
X181514762Y-103484763D01*
X181286190Y-102799049D02*
X181248095Y-102722859D01*
X181248095Y-102570478D01*
X181286190Y-102494287D01*
X181362381Y-102456192D01*
X181400476Y-102456192D01*
X181476667Y-102494287D01*
X181514762Y-102570478D01*
X181514762Y-102684763D01*
X181552857Y-102760954D01*
X181629048Y-102799049D01*
X181667143Y-102799049D01*
X181743333Y-102760954D01*
X181781429Y-102684763D01*
X181781429Y-102570478D01*
X181743333Y-102494287D01*
X181248095Y-102113335D02*
X181781429Y-102113335D01*
X182048095Y-102113335D02*
X182010000Y-102151430D01*
X181971905Y-102113335D01*
X182010000Y-102075240D01*
X182048095Y-102113335D01*
X181971905Y-102113335D01*
X181781429Y-101389526D02*
X181133810Y-101389526D01*
X181057619Y-101427621D01*
X181019524Y-101465716D01*
X180981429Y-101541907D01*
X180981429Y-101656192D01*
X181019524Y-101732383D01*
X181286190Y-101389526D02*
X181248095Y-101465716D01*
X181248095Y-101618097D01*
X181286190Y-101694288D01*
X181324286Y-101732383D01*
X181400476Y-101770478D01*
X181629048Y-101770478D01*
X181705238Y-101732383D01*
X181743333Y-101694288D01*
X181781429Y-101618097D01*
X181781429Y-101465716D01*
X181743333Y-101389526D01*
X181781429Y-101008573D02*
X181248095Y-101008573D01*
X181705238Y-101008573D02*
X181743333Y-100970478D01*
X181781429Y-100894287D01*
X181781429Y-100780001D01*
X181743333Y-100703811D01*
X181667143Y-100665716D01*
X181248095Y-100665716D01*
X181286190Y-99980001D02*
X181248095Y-100056191D01*
X181248095Y-100208572D01*
X181286190Y-100284763D01*
X181362381Y-100322858D01*
X181667143Y-100322858D01*
X181743333Y-100284763D01*
X181781429Y-100208572D01*
X181781429Y-100056191D01*
X181743333Y-99980001D01*
X181667143Y-99941906D01*
X181590952Y-99941906D01*
X181514762Y-100322858D01*
X181248095Y-99256192D02*
X182048095Y-99256192D01*
X181286190Y-99256192D02*
X181248095Y-99332382D01*
X181248095Y-99484763D01*
X181286190Y-99560954D01*
X181324286Y-99599049D01*
X181400476Y-99637144D01*
X181629048Y-99637144D01*
X181705238Y-99599049D01*
X181743333Y-99560954D01*
X181781429Y-99484763D01*
X181781429Y-99332382D01*
X181743333Y-99256192D01*
X181248095Y-98265715D02*
X182048095Y-98265715D01*
X181743333Y-98265715D02*
X181781429Y-98189524D01*
X181781429Y-98037143D01*
X181743333Y-97960953D01*
X181705238Y-97922858D01*
X181629048Y-97884762D01*
X181400476Y-97884762D01*
X181324286Y-97922858D01*
X181286190Y-97960953D01*
X181248095Y-98037143D01*
X181248095Y-98189524D01*
X181286190Y-98265715D01*
X181781429Y-97618095D02*
X181248095Y-97427619D01*
X181781429Y-97237143D02*
X181248095Y-97427619D01*
X181057619Y-97503810D01*
X181019524Y-97541905D01*
X180981429Y-97618095D01*
X181286190Y-96360952D02*
X181248095Y-96246666D01*
X181248095Y-96056190D01*
X181286190Y-95980000D01*
X181324286Y-95941904D01*
X181400476Y-95903809D01*
X181476667Y-95903809D01*
X181552857Y-95941904D01*
X181590952Y-95980000D01*
X181629048Y-96056190D01*
X181667143Y-96208571D01*
X181705238Y-96284762D01*
X181743333Y-96322857D01*
X181819524Y-96360952D01*
X181895714Y-96360952D01*
X181971905Y-96322857D01*
X182010000Y-96284762D01*
X182048095Y-96208571D01*
X182048095Y-96018095D01*
X182010000Y-95903809D01*
X181781429Y-95675238D02*
X181781429Y-95370476D01*
X182048095Y-95560952D02*
X181362381Y-95560952D01*
X181286190Y-95522857D01*
X181248095Y-95446666D01*
X181248095Y-95370476D01*
X181286190Y-94799047D02*
X181248095Y-94875237D01*
X181248095Y-95027618D01*
X181286190Y-95103809D01*
X181362381Y-95141904D01*
X181667143Y-95141904D01*
X181743333Y-95103809D01*
X181781429Y-95027618D01*
X181781429Y-94875237D01*
X181743333Y-94799047D01*
X181667143Y-94760952D01*
X181590952Y-94760952D01*
X181514762Y-95141904D01*
X181781429Y-94494285D02*
X181248095Y-94303809D01*
X181781429Y-94113333D01*
X181286190Y-93503809D02*
X181248095Y-93579999D01*
X181248095Y-93732380D01*
X181286190Y-93808571D01*
X181362381Y-93846666D01*
X181667143Y-93846666D01*
X181743333Y-93808571D01*
X181781429Y-93732380D01*
X181781429Y-93579999D01*
X181743333Y-93503809D01*
X181667143Y-93465714D01*
X181590952Y-93465714D01*
X181514762Y-93846666D01*
X181286190Y-92551428D02*
X181248095Y-92437142D01*
X181248095Y-92246666D01*
X181286190Y-92170476D01*
X181324286Y-92132380D01*
X181400476Y-92094285D01*
X181476667Y-92094285D01*
X181552857Y-92132380D01*
X181590952Y-92170476D01*
X181629048Y-92246666D01*
X181667143Y-92399047D01*
X181705238Y-92475238D01*
X181743333Y-92513333D01*
X181819524Y-92551428D01*
X181895714Y-92551428D01*
X181971905Y-92513333D01*
X182010000Y-92475238D01*
X182048095Y-92399047D01*
X182048095Y-92208571D01*
X182010000Y-92094285D01*
X181248095Y-91751428D02*
X181781429Y-91751428D01*
X181705238Y-91751428D02*
X181743333Y-91713333D01*
X181781429Y-91637142D01*
X181781429Y-91522856D01*
X181743333Y-91446666D01*
X181667143Y-91408571D01*
X181248095Y-91408571D01*
X181667143Y-91408571D02*
X181743333Y-91370475D01*
X181781429Y-91294285D01*
X181781429Y-91179999D01*
X181743333Y-91103809D01*
X181667143Y-91065714D01*
X181248095Y-91065714D01*
X181248095Y-90684761D02*
X181781429Y-90684761D01*
X182048095Y-90684761D02*
X182010000Y-90722856D01*
X181971905Y-90684761D01*
X182010000Y-90646666D01*
X182048095Y-90684761D01*
X181971905Y-90684761D01*
X181781429Y-90418095D02*
X181781429Y-90113333D01*
X182048095Y-90303809D02*
X181362381Y-90303809D01*
X181286190Y-90265714D01*
X181248095Y-90189523D01*
X181248095Y-90113333D01*
X181248095Y-89846666D02*
X182048095Y-89846666D01*
X181248095Y-89503809D02*
X181667143Y-89503809D01*
X181743333Y-89541904D01*
X181781429Y-89618094D01*
X181781429Y-89732380D01*
X181743333Y-89808571D01*
X181705238Y-89846666D01*
X181552857Y-88513332D02*
X181552857Y-87903808D01*
X182010000Y-86494284D02*
X182048095Y-86570475D01*
X182048095Y-86684760D01*
X182010000Y-86799046D01*
X181933810Y-86875237D01*
X181857619Y-86913332D01*
X181705238Y-86951427D01*
X181590952Y-86951427D01*
X181438571Y-86913332D01*
X181362381Y-86875237D01*
X181286190Y-86799046D01*
X181248095Y-86684760D01*
X181248095Y-86608570D01*
X181286190Y-86494284D01*
X181324286Y-86456189D01*
X181590952Y-86456189D01*
X181590952Y-86608570D01*
X182048095Y-85960951D02*
X182048095Y-85884760D01*
X182010000Y-85808570D01*
X181971905Y-85770475D01*
X181895714Y-85732379D01*
X181743333Y-85694284D01*
X181552857Y-85694284D01*
X181400476Y-85732379D01*
X181324286Y-85770475D01*
X181286190Y-85808570D01*
X181248095Y-85884760D01*
X181248095Y-85960951D01*
X181286190Y-86037141D01*
X181324286Y-86075237D01*
X181400476Y-86113332D01*
X181552857Y-86151427D01*
X181743333Y-86151427D01*
X181895714Y-86113332D01*
X181971905Y-86075237D01*
X182010000Y-86037141D01*
X182048095Y-85960951D01*
X182048095Y-85465713D02*
X182048095Y-85008570D01*
X181248095Y-85237141D02*
X182048095Y-85237141D01*
X181248095Y-84741903D02*
X182048095Y-84741903D01*
X182048095Y-84551427D01*
X182010000Y-84437141D01*
X181933810Y-84360950D01*
X181857619Y-84322855D01*
X181705238Y-84284760D01*
X181590952Y-84284760D01*
X181438571Y-84322855D01*
X181362381Y-84360950D01*
X181286190Y-84437141D01*
X181248095Y-84551427D01*
X181248095Y-84741903D01*
X182048095Y-83713331D02*
X181476667Y-83713331D01*
X181362381Y-83751427D01*
X181286190Y-83827617D01*
X181248095Y-83941903D01*
X181248095Y-84018093D01*
D12*
X183745238Y-107170478D02*
X183697619Y-107027621D01*
X183697619Y-106789525D01*
X183745238Y-106694287D01*
X183792857Y-106646668D01*
X183888095Y-106599049D01*
X183983333Y-106599049D01*
X184078571Y-106646668D01*
X184126190Y-106694287D01*
X184173810Y-106789525D01*
X184221429Y-106980002D01*
X184269048Y-107075240D01*
X184316667Y-107122859D01*
X184411905Y-107170478D01*
X184507143Y-107170478D01*
X184602381Y-107122859D01*
X184650000Y-107075240D01*
X184697619Y-106980002D01*
X184697619Y-106741906D01*
X184650000Y-106599049D01*
X183697619Y-106170478D02*
X184364286Y-106170478D01*
X184697619Y-106170478D02*
X184650000Y-106218097D01*
X184602381Y-106170478D01*
X184650000Y-106122859D01*
X184697619Y-106170478D01*
X184602381Y-106170478D01*
X184364286Y-105694288D02*
X183697619Y-105694288D01*
X184269048Y-105694288D02*
X184316667Y-105646669D01*
X184364286Y-105551431D01*
X184364286Y-105408573D01*
X184316667Y-105313335D01*
X184221429Y-105265716D01*
X183697619Y-105265716D01*
X183745238Y-104360954D02*
X183697619Y-104456192D01*
X183697619Y-104646669D01*
X183745238Y-104741907D01*
X183792857Y-104789526D01*
X183888095Y-104837145D01*
X184173810Y-104837145D01*
X184269048Y-104789526D01*
X184316667Y-104741907D01*
X184364286Y-104646669D01*
X184364286Y-104456192D01*
X184316667Y-104360954D01*
X183697619Y-103789526D02*
X183745238Y-103884764D01*
X183840476Y-103932383D01*
X184697619Y-103932383D01*
X183697619Y-102980001D02*
X184221429Y-102980001D01*
X184316667Y-103027620D01*
X184364286Y-103122858D01*
X184364286Y-103313335D01*
X184316667Y-103408573D01*
X183745238Y-102980001D02*
X183697619Y-103075239D01*
X183697619Y-103313335D01*
X183745238Y-103408573D01*
X183840476Y-103456192D01*
X183935714Y-103456192D01*
X184030952Y-103408573D01*
X184078571Y-103313335D01*
X184078571Y-103075239D01*
X184126190Y-102980001D01*
X183697619Y-102503811D02*
X184364286Y-102503811D01*
X184697619Y-102503811D02*
X184650000Y-102551430D01*
X184602381Y-102503811D01*
X184650000Y-102456192D01*
X184697619Y-102503811D01*
X184602381Y-102503811D01*
X183697619Y-102027621D02*
X184364286Y-102027621D01*
X184173810Y-102027621D02*
X184269048Y-101980002D01*
X184316667Y-101932383D01*
X184364286Y-101837145D01*
X184364286Y-101741906D01*
X183745238Y-100694287D02*
X183697619Y-100551430D01*
X183697619Y-100313334D01*
X183745238Y-100218096D01*
X183792857Y-100170477D01*
X183888095Y-100122858D01*
X183983333Y-100122858D01*
X184078571Y-100170477D01*
X184126190Y-100218096D01*
X184173810Y-100313334D01*
X184221429Y-100503811D01*
X184269048Y-100599049D01*
X184316667Y-100646668D01*
X184411905Y-100694287D01*
X184507143Y-100694287D01*
X184602381Y-100646668D01*
X184650000Y-100599049D01*
X184697619Y-100503811D01*
X184697619Y-100265715D01*
X184650000Y-100122858D01*
X184364286Y-99694287D02*
X183364286Y-99694287D01*
X184316667Y-99694287D02*
X184364286Y-99599049D01*
X184364286Y-99408572D01*
X184316667Y-99313334D01*
X184269048Y-99265715D01*
X184173810Y-99218096D01*
X183888095Y-99218096D01*
X183792857Y-99265715D01*
X183745238Y-99313334D01*
X183697619Y-99408572D01*
X183697619Y-99599049D01*
X183745238Y-99694287D01*
X183745238Y-98408572D02*
X183697619Y-98503810D01*
X183697619Y-98694287D01*
X183745238Y-98789525D01*
X183840476Y-98837144D01*
X184221429Y-98837144D01*
X184316667Y-98789525D01*
X184364286Y-98694287D01*
X184364286Y-98503810D01*
X184316667Y-98408572D01*
X184221429Y-98360953D01*
X184126190Y-98360953D01*
X184030952Y-98837144D01*
X183745238Y-97503810D02*
X183697619Y-97599048D01*
X183697619Y-97789525D01*
X183745238Y-97884763D01*
X183792857Y-97932382D01*
X183888095Y-97980001D01*
X184173810Y-97980001D01*
X184269048Y-97932382D01*
X184316667Y-97884763D01*
X184364286Y-97789525D01*
X184364286Y-97599048D01*
X184316667Y-97503810D01*
X184364286Y-97218096D02*
X184364286Y-96837144D01*
X184697619Y-97075239D02*
X183840476Y-97075239D01*
X183745238Y-97027620D01*
X183697619Y-96932382D01*
X183697619Y-96837144D01*
X183697619Y-96503810D02*
X184364286Y-96503810D01*
X184173810Y-96503810D02*
X184269048Y-96456191D01*
X184316667Y-96408572D01*
X184364286Y-96313334D01*
X184364286Y-96218095D01*
X184364286Y-95456190D02*
X183697619Y-95456190D01*
X184364286Y-95884762D02*
X183840476Y-95884762D01*
X183745238Y-95837143D01*
X183697619Y-95741905D01*
X183697619Y-95599047D01*
X183745238Y-95503809D01*
X183792857Y-95456190D01*
X183697619Y-94980000D02*
X184364286Y-94980000D01*
X184269048Y-94980000D02*
X184316667Y-94932381D01*
X184364286Y-94837143D01*
X184364286Y-94694285D01*
X184316667Y-94599047D01*
X184221429Y-94551428D01*
X183697619Y-94551428D01*
X184221429Y-94551428D02*
X184316667Y-94503809D01*
X184364286Y-94408571D01*
X184364286Y-94265714D01*
X184316667Y-94170476D01*
X184221429Y-94122857D01*
X183697619Y-94122857D01*
X184221429Y-92551428D02*
X184173810Y-92408571D01*
X184126190Y-92360952D01*
X184030952Y-92313333D01*
X183888095Y-92313333D01*
X183792857Y-92360952D01*
X183745238Y-92408571D01*
X183697619Y-92503809D01*
X183697619Y-92884762D01*
X184697619Y-92884762D01*
X184697619Y-92551428D01*
X184650000Y-92456190D01*
X184602381Y-92408571D01*
X184507143Y-92360952D01*
X184411905Y-92360952D01*
X184316667Y-92408571D01*
X184269048Y-92456190D01*
X184221429Y-92551428D01*
X184221429Y-92884762D01*
X183697619Y-91456190D02*
X184221429Y-91456190D01*
X184316667Y-91503809D01*
X184364286Y-91599047D01*
X184364286Y-91789524D01*
X184316667Y-91884762D01*
X183745238Y-91456190D02*
X183697619Y-91551428D01*
X183697619Y-91789524D01*
X183745238Y-91884762D01*
X183840476Y-91932381D01*
X183935714Y-91932381D01*
X184030952Y-91884762D01*
X184078571Y-91789524D01*
X184078571Y-91551428D01*
X184126190Y-91456190D01*
X183745238Y-90551428D02*
X183697619Y-90646666D01*
X183697619Y-90837143D01*
X183745238Y-90932381D01*
X183792857Y-90980000D01*
X183888095Y-91027619D01*
X184173810Y-91027619D01*
X184269048Y-90980000D01*
X184316667Y-90932381D01*
X184364286Y-90837143D01*
X184364286Y-90646666D01*
X184316667Y-90551428D01*
X183697619Y-90122857D02*
X184697619Y-90122857D01*
X184078571Y-90027619D02*
X183697619Y-89741904D01*
X184364286Y-89741904D02*
X183983333Y-90122857D01*
X184364286Y-89313333D02*
X183364286Y-89313333D01*
X184316667Y-89313333D02*
X184364286Y-89218095D01*
X184364286Y-89027618D01*
X184316667Y-88932380D01*
X184269048Y-88884761D01*
X184173810Y-88837142D01*
X183888095Y-88837142D01*
X183792857Y-88884761D01*
X183745238Y-88932380D01*
X183697619Y-89027618D01*
X183697619Y-89218095D01*
X183745238Y-89313333D01*
X183697619Y-88265714D02*
X183745238Y-88360952D01*
X183840476Y-88408571D01*
X184697619Y-88408571D01*
X183697619Y-87456189D02*
X184221429Y-87456189D01*
X184316667Y-87503808D01*
X184364286Y-87599046D01*
X184364286Y-87789523D01*
X184316667Y-87884761D01*
X183745238Y-87456189D02*
X183697619Y-87551427D01*
X183697619Y-87789523D01*
X183745238Y-87884761D01*
X183840476Y-87932380D01*
X183935714Y-87932380D01*
X184030952Y-87884761D01*
X184078571Y-87789523D01*
X184078571Y-87551427D01*
X184126190Y-87456189D01*
X184364286Y-86979999D02*
X183697619Y-86979999D01*
X184269048Y-86979999D02*
X184316667Y-86932380D01*
X184364286Y-86837142D01*
X184364286Y-86694284D01*
X184316667Y-86599046D01*
X184221429Y-86551427D01*
X183697619Y-86551427D01*
X183745238Y-85694284D02*
X183697619Y-85789522D01*
X183697619Y-85979999D01*
X183745238Y-86075237D01*
X183840476Y-86122856D01*
X184221429Y-86122856D01*
X184316667Y-86075237D01*
X184364286Y-85979999D01*
X184364286Y-85789522D01*
X184316667Y-85694284D01*
X184221429Y-85646665D01*
X184126190Y-85646665D01*
X184030952Y-86122856D01*
X184364286Y-84551427D02*
X183697619Y-84313332D01*
X184364286Y-84075236D01*
X184602381Y-83741903D02*
X184650000Y-83694284D01*
X184697619Y-83599046D01*
X184697619Y-83360950D01*
X184650000Y-83265712D01*
X184602381Y-83218093D01*
X184507143Y-83170474D01*
X184411905Y-83170474D01*
X184269048Y-83218093D01*
X183697619Y-83789522D01*
X183697619Y-83170474D01*
X183792857Y-82741903D02*
X183745238Y-82694284D01*
X183697619Y-82741903D01*
X183745238Y-82789522D01*
X183792857Y-82741903D01*
X183697619Y-82741903D01*
X184697619Y-82075237D02*
X184697619Y-81979998D01*
X184650000Y-81884760D01*
X184602381Y-81837141D01*
X184507143Y-81789522D01*
X184316667Y-81741903D01*
X184078571Y-81741903D01*
X183888095Y-81789522D01*
X183792857Y-81837141D01*
X183745238Y-81884760D01*
X183697619Y-81979998D01*
X183697619Y-82075237D01*
X183745238Y-82170475D01*
X183792857Y-82218094D01*
X183888095Y-82265713D01*
X184078571Y-82313332D01*
X184316667Y-82313332D01*
X184507143Y-82265713D01*
X184602381Y-82218094D01*
X184650000Y-82170475D01*
X184697619Y-82075237D01*
X184697619Y-81122856D02*
X184697619Y-81027617D01*
X184650000Y-80932379D01*
X184602381Y-80884760D01*
X184507143Y-80837141D01*
X184316667Y-80789522D01*
X184078571Y-80789522D01*
X183888095Y-80837141D01*
X183792857Y-80884760D01*
X183745238Y-80932379D01*
X183697619Y-81027617D01*
X183697619Y-81122856D01*
X183745238Y-81218094D01*
X183792857Y-81265713D01*
X183888095Y-81313332D01*
X184078571Y-81360951D01*
X184316667Y-81360951D01*
X184507143Y-81313332D01*
X184602381Y-81265713D01*
X184650000Y-81218094D01*
X184697619Y-81122856D01*
D13*
X95310000Y-130870000D02*
X90110000Y-130870000D01*
X95310000Y-62230000D02*
X95310000Y-130870000D01*
X90110000Y-59630000D02*
X90110000Y-130870000D01*
X95310000Y-62230000D02*
X92710000Y-62230000D01*
X92710000Y-62230000D02*
X92710000Y-59630000D01*
X92710000Y-59630000D02*
X90110000Y-59630000D01*
X95310000Y-60960000D02*
X95310000Y-59630000D01*
X95310000Y-59630000D02*
X93980000Y-59630000D01*
X128330000Y-130870000D02*
X123130000Y-130870000D01*
X128330000Y-62230000D02*
X128330000Y-130870000D01*
X123130000Y-59630000D02*
X123130000Y-130870000D01*
X128330000Y-62230000D02*
X125730000Y-62230000D01*
X125730000Y-62230000D02*
X125730000Y-59630000D01*
X125730000Y-59630000D02*
X123130000Y-59630000D01*
X128330000Y-60960000D02*
X128330000Y-59630000D01*
X128330000Y-59630000D02*
X127000000Y-59630000D01*
X166430000Y-130870000D02*
X161230000Y-130870000D01*
X166430000Y-62230000D02*
X166430000Y-130870000D01*
X161230000Y-59630000D02*
X161230000Y-130870000D01*
X166430000Y-62230000D02*
X163830000Y-62230000D01*
X163830000Y-62230000D02*
X163830000Y-59630000D01*
X163830000Y-59630000D02*
X161230000Y-59630000D01*
X166430000Y-60960000D02*
X166430000Y-59630000D01*
X166430000Y-59630000D02*
X165100000Y-59630000D01*
X204530000Y-130870000D02*
X199330000Y-130870000D01*
X204530000Y-62230000D02*
X204530000Y-130870000D01*
X199330000Y-59630000D02*
X199330000Y-130870000D01*
X204530000Y-62230000D02*
X201930000Y-62230000D01*
X201930000Y-62230000D02*
X201930000Y-59630000D01*
X201930000Y-59630000D02*
X199330000Y-59630000D01*
X204530000Y-60960000D02*
X204530000Y-59630000D01*
X204530000Y-59630000D02*
X203200000Y-59630000D01*
D14*
G36*
X112621877Y-119901881D02*
X112595127Y-119902486D01*
X112574413Y-119903671D01*
X112557463Y-119905671D01*
X112542004Y-119908718D01*
X112525762Y-119913047D01*
X112515144Y-119916220D01*
X112449472Y-119940253D01*
X112390692Y-119970629D01*
X112336374Y-120008804D01*
X112288534Y-120051783D01*
X112238881Y-120108065D01*
X112198467Y-120169072D01*
X112167552Y-120234274D01*
X112146399Y-120303140D01*
X112136654Y-120360741D01*
X112133063Y-120393231D01*
X112108546Y-120396734D01*
X112079310Y-120404862D01*
X112057112Y-120420261D01*
X112047441Y-120432087D01*
X112046545Y-120433680D01*
X112045707Y-120435965D01*
X112044925Y-120439280D01*
X112044195Y-120443966D01*
X112043518Y-120450365D01*
X112042889Y-120458816D01*
X112042309Y-120469661D01*
X112041775Y-120483239D01*
X112041284Y-120499891D01*
X112040836Y-120519958D01*
X112040428Y-120543780D01*
X112040058Y-120571697D01*
X112039725Y-120604051D01*
X112039426Y-120641182D01*
X112039160Y-120683430D01*
X112038925Y-120731136D01*
X112038719Y-120784640D01*
X112038540Y-120844283D01*
X112038386Y-120910405D01*
X112038255Y-120983348D01*
X112038146Y-121063450D01*
X112038056Y-121151054D01*
X112037983Y-121246499D01*
X112037927Y-121350126D01*
X112037884Y-121462276D01*
X112037854Y-121583289D01*
X112037833Y-121713505D01*
X112037821Y-121853265D01*
X112037814Y-122002911D01*
X112037813Y-122162781D01*
X112037813Y-122171354D01*
X112037814Y-122331685D01*
X112037819Y-122481773D01*
X112037829Y-122621961D01*
X112037847Y-122752590D01*
X112037874Y-122874001D01*
X112037913Y-122986536D01*
X112037965Y-123090536D01*
X112038033Y-123186342D01*
X112038117Y-123274297D01*
X112038221Y-123354741D01*
X112038347Y-123428015D01*
X112038495Y-123494462D01*
X112038669Y-123554423D01*
X112038869Y-123608239D01*
X112039099Y-123656251D01*
X112039360Y-123698801D01*
X112039654Y-123736230D01*
X112039982Y-123768880D01*
X112040348Y-123797093D01*
X112040752Y-123821208D01*
X112041197Y-123841569D01*
X112041685Y-123858516D01*
X112042217Y-123872391D01*
X112042796Y-123883535D01*
X112043424Y-123892290D01*
X112044102Y-123898997D01*
X112044833Y-123903997D01*
X112045618Y-123907632D01*
X112046460Y-123910243D01*
X112047360Y-123912172D01*
X112047790Y-123912918D01*
X112058992Y-123926948D01*
X112072149Y-123937892D01*
X112072419Y-123938054D01*
X112074275Y-123938824D01*
X112077368Y-123939548D01*
X112082018Y-123940226D01*
X112088547Y-123940861D01*
X112097276Y-123941452D01*
X112108527Y-123942002D01*
X112122621Y-123942513D01*
X112139879Y-123942985D01*
X112160622Y-123943421D01*
X112185172Y-123943820D01*
X112213851Y-123944186D01*
X112246979Y-123944519D01*
X112284878Y-123944821D01*
X112327869Y-123945094D01*
X112376274Y-123945338D01*
X112430413Y-123945555D01*
X112490609Y-123945746D01*
X112557182Y-123945914D01*
X112630454Y-123946059D01*
X112710746Y-123946182D01*
X112798379Y-123946286D01*
X112893676Y-123946372D01*
X112996956Y-123946441D01*
X113108542Y-123946494D01*
X113228754Y-123946533D01*
X113357915Y-123946560D01*
X113496345Y-123946575D01*
X113644365Y-123946581D01*
X113802298Y-123946578D01*
X113970464Y-123946569D01*
X113985962Y-123946568D01*
X114155077Y-123946553D01*
X114313929Y-123946532D01*
X114462841Y-123946505D01*
X114602131Y-123946470D01*
X114732123Y-123946425D01*
X114853137Y-123946368D01*
X114965493Y-123946299D01*
X115069513Y-123946216D01*
X115165518Y-123946117D01*
X115253830Y-123946002D01*
X115334768Y-123945867D01*
X115408654Y-123945713D01*
X115475809Y-123945537D01*
X115536555Y-123945338D01*
X115591211Y-123945115D01*
X115640100Y-123944866D01*
X115683542Y-123944589D01*
X115721858Y-123944284D01*
X115755370Y-123943948D01*
X115784397Y-123943581D01*
X115809262Y-123943180D01*
X115830286Y-123942745D01*
X115847789Y-123942273D01*
X115862092Y-123941764D01*
X115873517Y-123941215D01*
X115882384Y-123940626D01*
X115889015Y-123939995D01*
X115893731Y-123939320D01*
X115896852Y-123938600D01*
X115898700Y-123937834D01*
X115898757Y-123937799D01*
X115911915Y-123926583D01*
X115921246Y-123914634D01*
X115922047Y-123912696D01*
X115922796Y-123909457D01*
X115923497Y-123904580D01*
X115924149Y-123897729D01*
X115924756Y-123888567D01*
X115925319Y-123876757D01*
X115925838Y-123861963D01*
X115926317Y-123843849D01*
X115926756Y-123822077D01*
X115927158Y-123796312D01*
X115927524Y-123766217D01*
X115927855Y-123731454D01*
X115928154Y-123691688D01*
X115928421Y-123646582D01*
X115928659Y-123595800D01*
X115928869Y-123539004D01*
X115929054Y-123475858D01*
X115929213Y-123406027D01*
X115929351Y-123329172D01*
X115929466Y-123244958D01*
X115929563Y-123153048D01*
X115929642Y-123053106D01*
X115929704Y-122944794D01*
X115929752Y-122827777D01*
X115929787Y-122701717D01*
X115929811Y-122566279D01*
X115929826Y-122421125D01*
X115929833Y-122265919D01*
X115929833Y-122010916D01*
X115929830Y-121860720D01*
X115929822Y-121720426D01*
X115929807Y-121589692D01*
X115929784Y-121468177D01*
X115929750Y-121355542D01*
X115929703Y-121251444D01*
X115929641Y-121155542D01*
X115929563Y-121067497D01*
X115929465Y-120986966D01*
X115929346Y-120913610D01*
X115929205Y-120847086D01*
X115929099Y-120808750D01*
X115707705Y-120808750D01*
X115682972Y-120839116D01*
X115656401Y-120877776D01*
X115633705Y-120922617D01*
X115616952Y-120969392D01*
X115613937Y-120980881D01*
X115612923Y-120985660D01*
X115611985Y-120991557D01*
X115611120Y-120998996D01*
X115610325Y-121008402D01*
X115609595Y-121020200D01*
X115608926Y-121034812D01*
X115608314Y-121052664D01*
X115607757Y-121074181D01*
X115607249Y-121099786D01*
X115606787Y-121129904D01*
X115606366Y-121164959D01*
X115605985Y-121205376D01*
X115605637Y-121251578D01*
X115605320Y-121303992D01*
X115605029Y-121363040D01*
X115604761Y-121429147D01*
X115604512Y-121502737D01*
X115604278Y-121584235D01*
X115604055Y-121674066D01*
X115603839Y-121772653D01*
X115603626Y-121880421D01*
X115603413Y-121997795D01*
X115603196Y-122125198D01*
X115603128Y-122166063D01*
X115602936Y-122297713D01*
X115602803Y-122423812D01*
X115602728Y-122544013D01*
X115602710Y-122657972D01*
X115602748Y-122765345D01*
X115602841Y-122865788D01*
X115602988Y-122958955D01*
X115603188Y-123044502D01*
X115603441Y-123122084D01*
X115603746Y-123191357D01*
X115604101Y-123251977D01*
X115604506Y-123303599D01*
X115604959Y-123345877D01*
X115605461Y-123378469D01*
X115606010Y-123401028D01*
X115606361Y-123409604D01*
X115608581Y-123446840D01*
X115610902Y-123475667D01*
X115613620Y-123498256D01*
X115617031Y-123516779D01*
X115621431Y-123533410D01*
X115624583Y-123543127D01*
X115642438Y-123587123D01*
X115664347Y-123624883D01*
X115683535Y-123650093D01*
X115693843Y-123662787D01*
X115700656Y-123671857D01*
X115702292Y-123674688D01*
X115697129Y-123675015D01*
X115682159Y-123675327D01*
X115658154Y-123675620D01*
X115625892Y-123675890D01*
X115586147Y-123676134D01*
X115539693Y-123676347D01*
X115487306Y-123676527D01*
X115429761Y-123676668D01*
X115367832Y-123676769D01*
X115302296Y-123676824D01*
X115260125Y-123676834D01*
X115178813Y-123676805D01*
X115107521Y-123676714D01*
X115045686Y-123676552D01*
X114992746Y-123676311D01*
X114948138Y-123675981D01*
X114911298Y-123675556D01*
X114881665Y-123675025D01*
X114858674Y-123674380D01*
X114841763Y-123673614D01*
X114830370Y-123672717D01*
X114823931Y-123671681D01*
X114821884Y-123670498D01*
X114821966Y-123670219D01*
X114827139Y-123662355D01*
X114836086Y-123649321D01*
X114842751Y-123639792D01*
X114858844Y-123612312D01*
X114874576Y-123576858D01*
X114888961Y-123536017D01*
X114901015Y-123492379D01*
X114904186Y-123478396D01*
X114906201Y-123468715D01*
X114907967Y-123459185D01*
X114909505Y-123449058D01*
X114910836Y-123437586D01*
X114911978Y-123424022D01*
X114912953Y-123407619D01*
X114913781Y-123387629D01*
X114914481Y-123363305D01*
X114915074Y-123333900D01*
X114915581Y-123298665D01*
X114916020Y-123256855D01*
X114916413Y-123207720D01*
X114916779Y-123150515D01*
X114917139Y-123084491D01*
X114917513Y-123008901D01*
X114917656Y-122979107D01*
X114918001Y-122894041D01*
X114918188Y-122817334D01*
X114918221Y-122749245D01*
X114918100Y-122690033D01*
X114917827Y-122639957D01*
X114917404Y-122599275D01*
X114916833Y-122568247D01*
X114916115Y-122547132D01*
X114915253Y-122536189D01*
X114914682Y-122534607D01*
X114910857Y-122539055D01*
X114901328Y-122551336D01*
X114886623Y-122570729D01*
X114867271Y-122596514D01*
X114843803Y-122627972D01*
X114816746Y-122664381D01*
X114786630Y-122705023D01*
X114753985Y-122749177D01*
X114719339Y-122796122D01*
X114683222Y-122845140D01*
X114646164Y-122895510D01*
X114608692Y-122946512D01*
X114571337Y-122997425D01*
X114534628Y-123047531D01*
X114499094Y-123096108D01*
X114465264Y-123142437D01*
X114433668Y-123185798D01*
X114404834Y-123225471D01*
X114379292Y-123260735D01*
X114357571Y-123290871D01*
X114340200Y-123315159D01*
X114327709Y-123332878D01*
X114323983Y-123338279D01*
X114293222Y-123385486D01*
X114265843Y-123431705D01*
X114243076Y-123474740D01*
X114226148Y-123512392D01*
X114224955Y-123515438D01*
X114219498Y-123531143D01*
X114215909Y-123546463D01*
X114213823Y-123564279D01*
X114212874Y-123587468D01*
X114212688Y-123612012D01*
X114212688Y-123676837D01*
X113727041Y-123676835D01*
X113241395Y-123676834D01*
X113244830Y-123673877D01*
X113072333Y-123673877D01*
X113067175Y-123674342D01*
X113052233Y-123674784D01*
X113028307Y-123675198D01*
X112996196Y-123675578D01*
X112956701Y-123675919D01*
X112910621Y-123676214D01*
X112858755Y-123676459D01*
X112801903Y-123676647D01*
X112740865Y-123676772D01*
X112676441Y-123676830D01*
X112656973Y-123676834D01*
X112241612Y-123676834D01*
X112260910Y-123651698D01*
X112284555Y-123614803D01*
X112304893Y-123570818D01*
X112314716Y-123542750D01*
X112315762Y-123538626D01*
X112316723Y-123532989D01*
X112317604Y-123525383D01*
X112318407Y-123515353D01*
X112319140Y-123502444D01*
X112319805Y-123486199D01*
X112320407Y-123466165D01*
X112320952Y-123441884D01*
X112321444Y-123412903D01*
X112321887Y-123378765D01*
X112322286Y-123339015D01*
X112322646Y-123293198D01*
X112322971Y-123240858D01*
X112323266Y-123181541D01*
X112323535Y-123114790D01*
X112323784Y-123040150D01*
X112324016Y-122957166D01*
X112324237Y-122865383D01*
X112324451Y-122764345D01*
X112324662Y-122653596D01*
X112324858Y-122543094D01*
X112326531Y-121570750D01*
X112699745Y-121570750D01*
X112774052Y-121570784D01*
X112838387Y-121570894D01*
X112893358Y-121571089D01*
X112939578Y-121571382D01*
X112977654Y-121571784D01*
X113008199Y-121572304D01*
X113031822Y-121572954D01*
X113049133Y-121573745D01*
X113060742Y-121574688D01*
X113067260Y-121575794D01*
X113069297Y-121577074D01*
X113069213Y-121577365D01*
X113062942Y-121586286D01*
X113056110Y-121594563D01*
X113046478Y-121608397D01*
X113035058Y-121629141D01*
X113023329Y-121653634D01*
X113012769Y-121678720D01*
X113004856Y-121701238D01*
X113002883Y-121708334D01*
X113001869Y-121717701D01*
X113000922Y-121736969D01*
X113000043Y-121765456D01*
X112999232Y-121802481D01*
X112998489Y-121847362D01*
X112997813Y-121899417D01*
X112997205Y-121957965D01*
X112996664Y-122022324D01*
X112996191Y-122091814D01*
X112995785Y-122165751D01*
X112995447Y-122243456D01*
X112995176Y-122324245D01*
X112994973Y-122407439D01*
X112994837Y-122492354D01*
X112994769Y-122578311D01*
X112994769Y-122664626D01*
X112994836Y-122750619D01*
X112994970Y-122835608D01*
X112995172Y-122918911D01*
X112995441Y-122999848D01*
X112995778Y-123077735D01*
X112996182Y-123151893D01*
X112996654Y-123221639D01*
X112997193Y-123286292D01*
X112997799Y-123345170D01*
X112998473Y-123397592D01*
X112999214Y-123442876D01*
X113000022Y-123480341D01*
X113000898Y-123509304D01*
X113001841Y-123529086D01*
X113002852Y-123539003D01*
X113002910Y-123539250D01*
X113013068Y-123570504D01*
X113027599Y-123603464D01*
X113044359Y-123633665D01*
X113056755Y-123651388D01*
X113065944Y-123663482D01*
X113071539Y-123671951D01*
X113072333Y-123673877D01*
X113244830Y-123673877D01*
X113278199Y-123645157D01*
X113296090Y-123628450D01*
X113319192Y-123604864D01*
X113346204Y-123575862D01*
X113375823Y-123542907D01*
X113406745Y-123507462D01*
X113437669Y-123470988D01*
X113467292Y-123434948D01*
X113483304Y-123414896D01*
X113490880Y-123404945D01*
X113504272Y-123386958D01*
X113523087Y-123361471D01*
X113546935Y-123329020D01*
X113575424Y-123290141D01*
X113608163Y-123245370D01*
X113644760Y-123195244D01*
X113684824Y-123140299D01*
X113727965Y-123081070D01*
X113773790Y-123018095D01*
X113821909Y-122951909D01*
X113871929Y-122883048D01*
X113923461Y-122812049D01*
X113957976Y-122764462D01*
X114395081Y-122161654D01*
X114377554Y-122140046D01*
X114372077Y-122133260D01*
X114360387Y-122118747D01*
X114342899Y-122097028D01*
X114320035Y-122068621D01*
X114292211Y-122034047D01*
X114259846Y-121993826D01*
X114223358Y-121948479D01*
X114183167Y-121898524D01*
X114139689Y-121844482D01*
X114093344Y-121786874D01*
X114044551Y-121726218D01*
X113993726Y-121663035D01*
X113942906Y-121599854D01*
X113889950Y-121534049D01*
X113838236Y-121469847D01*
X113788215Y-121407808D01*
X113740342Y-121348492D01*
X113695070Y-121292457D01*
X113652852Y-121240265D01*
X113614141Y-121192474D01*
X113579390Y-121149643D01*
X113549053Y-121112333D01*
X113523582Y-121081103D01*
X113503432Y-121056512D01*
X113489054Y-121039120D01*
X113481523Y-121030199D01*
X113454380Y-120999994D01*
X113423969Y-120968032D01*
X113391913Y-120935862D01*
X113359834Y-120905035D01*
X113329357Y-120877098D01*
X113302102Y-120853603D01*
X113279694Y-120836098D01*
X113274326Y-120832359D01*
X113239134Y-120808750D01*
X114198908Y-120808750D01*
X114193223Y-120825057D01*
X114190684Y-120838657D01*
X114189558Y-120858419D01*
X114190054Y-120879297D01*
X114196024Y-120917145D01*
X114209317Y-120958437D01*
X114230231Y-121003788D01*
X114259062Y-121053810D01*
X114296109Y-121109118D01*
X114312323Y-121131542D01*
X114321561Y-121143779D01*
X114336296Y-121162902D01*
X114355963Y-121188195D01*
X114379995Y-121218944D01*
X114407825Y-121254434D01*
X114438888Y-121293950D01*
X114472618Y-121336777D01*
X114508448Y-121382201D01*
X114545811Y-121429507D01*
X114584142Y-121477980D01*
X114622875Y-121526906D01*
X114661443Y-121575569D01*
X114699279Y-121623255D01*
X114735819Y-121669250D01*
X114770494Y-121712837D01*
X114802740Y-121753303D01*
X114831989Y-121789933D01*
X114857677Y-121822012D01*
X114879235Y-121848825D01*
X114896099Y-121869658D01*
X114907702Y-121883796D01*
X114913477Y-121890523D01*
X114913962Y-121890975D01*
X114914977Y-121886509D01*
X114915881Y-121872436D01*
X114916675Y-121849735D01*
X114917359Y-121819383D01*
X114917934Y-121782356D01*
X114918400Y-121739631D01*
X114918759Y-121692187D01*
X114919010Y-121640999D01*
X114919156Y-121587045D01*
X114919195Y-121531302D01*
X114919129Y-121474748D01*
X114918958Y-121418358D01*
X114918684Y-121363111D01*
X114918306Y-121309983D01*
X114917825Y-121259952D01*
X114917243Y-121213994D01*
X114916559Y-121173086D01*
X114915774Y-121138206D01*
X114914889Y-121110331D01*
X114913905Y-121090438D01*
X114913436Y-121084423D01*
X114904088Y-121016022D01*
X114889610Y-120954173D01*
X114870298Y-120899790D01*
X114846446Y-120853786D01*
X114832659Y-120833886D01*
X114813362Y-120808750D01*
X115707705Y-120808750D01*
X115929099Y-120808750D01*
X115929038Y-120787054D01*
X115928844Y-120733174D01*
X115928620Y-120685104D01*
X115928366Y-120642503D01*
X115928078Y-120605030D01*
X115927755Y-120572345D01*
X115927394Y-120544106D01*
X115926994Y-120519973D01*
X115926552Y-120499604D01*
X115926067Y-120482659D01*
X115925536Y-120468797D01*
X115924958Y-120457676D01*
X115924329Y-120448956D01*
X115923649Y-120442296D01*
X115922916Y-120437356D01*
X115922126Y-120433793D01*
X115921278Y-120431267D01*
X115920371Y-120429437D01*
X115919401Y-120427962D01*
X115919354Y-120427897D01*
X115907093Y-120415354D01*
X115906468Y-120414935D01*
X113040709Y-120414935D01*
X113039134Y-120462779D01*
X113033067Y-120506998D01*
X113030167Y-120519702D01*
X113010209Y-120576944D01*
X112981181Y-120630146D01*
X112944158Y-120678225D01*
X112900216Y-120720099D01*
X112850431Y-120754685D01*
X112795879Y-120780899D01*
X112758911Y-120792795D01*
X112726189Y-120798874D01*
X112687023Y-120802281D01*
X112645224Y-120802963D01*
X112604603Y-120800864D01*
X112568971Y-120795932D01*
X112566979Y-120795524D01*
X112520321Y-120781306D01*
X112472958Y-120758766D01*
X112427645Y-120729585D01*
X112387134Y-120695444D01*
X112365695Y-120672593D01*
X112332321Y-120625815D01*
X112305625Y-120572885D01*
X112295897Y-120546813D01*
X112290304Y-120528996D01*
X112286408Y-120513204D01*
X112283903Y-120496816D01*
X112282483Y-120477209D01*
X112281843Y-120451764D01*
X112281685Y-120425104D01*
X112281783Y-120393231D01*
X112282421Y-120369338D01*
X112283897Y-120350828D01*
X112286512Y-120335100D01*
X112290568Y-120319556D01*
X112295757Y-120303396D01*
X112318774Y-120250647D01*
X112350631Y-120201124D01*
X112389907Y-120156098D01*
X112435183Y-120116841D01*
X112485037Y-120084624D01*
X112538050Y-120060718D01*
X112580208Y-120048758D01*
X112623705Y-120043051D01*
X112672028Y-120042424D01*
X112720849Y-120046647D01*
X112765839Y-120055492D01*
X112778646Y-120059238D01*
X112835367Y-120082856D01*
X112887233Y-120115227D01*
X112933248Y-120155297D01*
X112972416Y-120202010D01*
X113003741Y-120254310D01*
X113026228Y-120311143D01*
X113030361Y-120325973D01*
X113037786Y-120367866D01*
X113040709Y-120414935D01*
X115906468Y-120414935D01*
X115891661Y-120405023D01*
X115890773Y-120404590D01*
X115888255Y-120403684D01*
X115884402Y-120402844D01*
X115878831Y-120402067D01*
X115871157Y-120401350D01*
X115860998Y-120400692D01*
X115847968Y-120400089D01*
X115831684Y-120399539D01*
X115811762Y-120399041D01*
X115787818Y-120398591D01*
X115759469Y-120398187D01*
X115726329Y-120397826D01*
X115688016Y-120397507D01*
X115644146Y-120397226D01*
X115594333Y-120396982D01*
X115538196Y-120396772D01*
X115475349Y-120396593D01*
X115405408Y-120396443D01*
X115327990Y-120396320D01*
X115242711Y-120396221D01*
X115149187Y-120396144D01*
X115047034Y-120396086D01*
X114935867Y-120396046D01*
X114815304Y-120396019D01*
X114684960Y-120396005D01*
X114544451Y-120396000D01*
X114531277Y-120396000D01*
X114389808Y-120395996D01*
X114258545Y-120395982D01*
X114137109Y-120395956D01*
X114025122Y-120395916D01*
X113922207Y-120395858D01*
X113827984Y-120395782D01*
X113742076Y-120395684D01*
X113664106Y-120395562D01*
X113593694Y-120395414D01*
X113530464Y-120395237D01*
X113474036Y-120395029D01*
X113424033Y-120394788D01*
X113380077Y-120394511D01*
X113341790Y-120394196D01*
X113308793Y-120393841D01*
X113280709Y-120393443D01*
X113257159Y-120393000D01*
X113237767Y-120392510D01*
X113222152Y-120391970D01*
X113209938Y-120391377D01*
X113200747Y-120390731D01*
X113194200Y-120390027D01*
X113189919Y-120389264D01*
X113187527Y-120388440D01*
X113186670Y-120387630D01*
X113184396Y-120376553D01*
X113183458Y-120361850D01*
X113181571Y-120343250D01*
X113176440Y-120317733D01*
X113168863Y-120288164D01*
X113159635Y-120257408D01*
X113149555Y-120228331D01*
X113139618Y-120204226D01*
X113107114Y-120145145D01*
X113066388Y-120089608D01*
X113018965Y-120039121D01*
X112966370Y-119995186D01*
X112910128Y-119959309D01*
X112873011Y-119941307D01*
X112838655Y-119927323D01*
X112808779Y-119916959D01*
X112780643Y-119909711D01*
X112751510Y-119905076D01*
X112718642Y-119902553D01*
X112679298Y-119901636D01*
X112656938Y-119901621D01*
X112621877Y-119901881D01*
X112621877Y-119901881D01*
G37*
X112621877Y-119901881D02*
X112595127Y-119902486D01*
X112574413Y-119903671D01*
X112557463Y-119905671D01*
X112542004Y-119908718D01*
X112525762Y-119913047D01*
X112515144Y-119916220D01*
X112449472Y-119940253D01*
X112390692Y-119970629D01*
X112336374Y-120008804D01*
X112288534Y-120051783D01*
X112238881Y-120108065D01*
X112198467Y-120169072D01*
X112167552Y-120234274D01*
X112146399Y-120303140D01*
X112136654Y-120360741D01*
X112133063Y-120393231D01*
X112108546Y-120396734D01*
X112079310Y-120404862D01*
X112057112Y-120420261D01*
X112047441Y-120432087D01*
X112046545Y-120433680D01*
X112045707Y-120435965D01*
X112044925Y-120439280D01*
X112044195Y-120443966D01*
X112043518Y-120450365D01*
X112042889Y-120458816D01*
X112042309Y-120469661D01*
X112041775Y-120483239D01*
X112041284Y-120499891D01*
X112040836Y-120519958D01*
X112040428Y-120543780D01*
X112040058Y-120571697D01*
X112039725Y-120604051D01*
X112039426Y-120641182D01*
X112039160Y-120683430D01*
X112038925Y-120731136D01*
X112038719Y-120784640D01*
X112038540Y-120844283D01*
X112038386Y-120910405D01*
X112038255Y-120983348D01*
X112038146Y-121063450D01*
X112038056Y-121151054D01*
X112037983Y-121246499D01*
X112037927Y-121350126D01*
X112037884Y-121462276D01*
X112037854Y-121583289D01*
X112037833Y-121713505D01*
X112037821Y-121853265D01*
X112037814Y-122002911D01*
X112037813Y-122162781D01*
X112037813Y-122171354D01*
X112037814Y-122331685D01*
X112037819Y-122481773D01*
X112037829Y-122621961D01*
X112037847Y-122752590D01*
X112037874Y-122874001D01*
X112037913Y-122986536D01*
X112037965Y-123090536D01*
X112038033Y-123186342D01*
X112038117Y-123274297D01*
X112038221Y-123354741D01*
X112038347Y-123428015D01*
X112038495Y-123494462D01*
X112038669Y-123554423D01*
X112038869Y-123608239D01*
X112039099Y-123656251D01*
X112039360Y-123698801D01*
X112039654Y-123736230D01*
X112039982Y-123768880D01*
X112040348Y-123797093D01*
X112040752Y-123821208D01*
X112041197Y-123841569D01*
X112041685Y-123858516D01*
X112042217Y-123872391D01*
X112042796Y-123883535D01*
X112043424Y-123892290D01*
X112044102Y-123898997D01*
X112044833Y-123903997D01*
X112045618Y-123907632D01*
X112046460Y-123910243D01*
X112047360Y-123912172D01*
X112047790Y-123912918D01*
X112058992Y-123926948D01*
X112072149Y-123937892D01*
X112072419Y-123938054D01*
X112074275Y-123938824D01*
X112077368Y-123939548D01*
X112082018Y-123940226D01*
X112088547Y-123940861D01*
X112097276Y-123941452D01*
X112108527Y-123942002D01*
X112122621Y-123942513D01*
X112139879Y-123942985D01*
X112160622Y-123943421D01*
X112185172Y-123943820D01*
X112213851Y-123944186D01*
X112246979Y-123944519D01*
X112284878Y-123944821D01*
X112327869Y-123945094D01*
X112376274Y-123945338D01*
X112430413Y-123945555D01*
X112490609Y-123945746D01*
X112557182Y-123945914D01*
X112630454Y-123946059D01*
X112710746Y-123946182D01*
X112798379Y-123946286D01*
X112893676Y-123946372D01*
X112996956Y-123946441D01*
X113108542Y-123946494D01*
X113228754Y-123946533D01*
X113357915Y-123946560D01*
X113496345Y-123946575D01*
X113644365Y-123946581D01*
X113802298Y-123946578D01*
X113970464Y-123946569D01*
X113985962Y-123946568D01*
X114155077Y-123946553D01*
X114313929Y-123946532D01*
X114462841Y-123946505D01*
X114602131Y-123946470D01*
X114732123Y-123946425D01*
X114853137Y-123946368D01*
X114965493Y-123946299D01*
X115069513Y-123946216D01*
X115165518Y-123946117D01*
X115253830Y-123946002D01*
X115334768Y-123945867D01*
X115408654Y-123945713D01*
X115475809Y-123945537D01*
X115536555Y-123945338D01*
X115591211Y-123945115D01*
X115640100Y-123944866D01*
X115683542Y-123944589D01*
X115721858Y-123944284D01*
X115755370Y-123943948D01*
X115784397Y-123943581D01*
X115809262Y-123943180D01*
X115830286Y-123942745D01*
X115847789Y-123942273D01*
X115862092Y-123941764D01*
X115873517Y-123941215D01*
X115882384Y-123940626D01*
X115889015Y-123939995D01*
X115893731Y-123939320D01*
X115896852Y-123938600D01*
X115898700Y-123937834D01*
X115898757Y-123937799D01*
X115911915Y-123926583D01*
X115921246Y-123914634D01*
X115922047Y-123912696D01*
X115922796Y-123909457D01*
X115923497Y-123904580D01*
X115924149Y-123897729D01*
X115924756Y-123888567D01*
X115925319Y-123876757D01*
X115925838Y-123861963D01*
X115926317Y-123843849D01*
X115926756Y-123822077D01*
X115927158Y-123796312D01*
X115927524Y-123766217D01*
X115927855Y-123731454D01*
X115928154Y-123691688D01*
X115928421Y-123646582D01*
X115928659Y-123595800D01*
X115928869Y-123539004D01*
X115929054Y-123475858D01*
X115929213Y-123406027D01*
X115929351Y-123329172D01*
X115929466Y-123244958D01*
X115929563Y-123153048D01*
X115929642Y-123053106D01*
X115929704Y-122944794D01*
X115929752Y-122827777D01*
X115929787Y-122701717D01*
X115929811Y-122566279D01*
X115929826Y-122421125D01*
X115929833Y-122265919D01*
X115929833Y-122010916D01*
X115929830Y-121860720D01*
X115929822Y-121720426D01*
X115929807Y-121589692D01*
X115929784Y-121468177D01*
X115929750Y-121355542D01*
X115929703Y-121251444D01*
X115929641Y-121155542D01*
X115929563Y-121067497D01*
X115929465Y-120986966D01*
X115929346Y-120913610D01*
X115929205Y-120847086D01*
X115929099Y-120808750D01*
X115707705Y-120808750D01*
X115682972Y-120839116D01*
X115656401Y-120877776D01*
X115633705Y-120922617D01*
X115616952Y-120969392D01*
X115613937Y-120980881D01*
X115612923Y-120985660D01*
X115611985Y-120991557D01*
X115611120Y-120998996D01*
X115610325Y-121008402D01*
X115609595Y-121020200D01*
X115608926Y-121034812D01*
X115608314Y-121052664D01*
X115607757Y-121074181D01*
X115607249Y-121099786D01*
X115606787Y-121129904D01*
X115606366Y-121164959D01*
X115605985Y-121205376D01*
X115605637Y-121251578D01*
X115605320Y-121303992D01*
X115605029Y-121363040D01*
X115604761Y-121429147D01*
X115604512Y-121502737D01*
X115604278Y-121584235D01*
X115604055Y-121674066D01*
X115603839Y-121772653D01*
X115603626Y-121880421D01*
X115603413Y-121997795D01*
X115603196Y-122125198D01*
X115603128Y-122166063D01*
X115602936Y-122297713D01*
X115602803Y-122423812D01*
X115602728Y-122544013D01*
X115602710Y-122657972D01*
X115602748Y-122765345D01*
X115602841Y-122865788D01*
X115602988Y-122958955D01*
X115603188Y-123044502D01*
X115603441Y-123122084D01*
X115603746Y-123191357D01*
X115604101Y-123251977D01*
X115604506Y-123303599D01*
X115604959Y-123345877D01*
X115605461Y-123378469D01*
X115606010Y-123401028D01*
X115606361Y-123409604D01*
X115608581Y-123446840D01*
X115610902Y-123475667D01*
X115613620Y-123498256D01*
X115617031Y-123516779D01*
X115621431Y-123533410D01*
X115624583Y-123543127D01*
X115642438Y-123587123D01*
X115664347Y-123624883D01*
X115683535Y-123650093D01*
X115693843Y-123662787D01*
X115700656Y-123671857D01*
X115702292Y-123674688D01*
X115697129Y-123675015D01*
X115682159Y-123675327D01*
X115658154Y-123675620D01*
X115625892Y-123675890D01*
X115586147Y-123676134D01*
X115539693Y-123676347D01*
X115487306Y-123676527D01*
X115429761Y-123676668D01*
X115367832Y-123676769D01*
X115302296Y-123676824D01*
X115260125Y-123676834D01*
X115178813Y-123676805D01*
X115107521Y-123676714D01*
X115045686Y-123676552D01*
X114992746Y-123676311D01*
X114948138Y-123675981D01*
X114911298Y-123675556D01*
X114881665Y-123675025D01*
X114858674Y-123674380D01*
X114841763Y-123673614D01*
X114830370Y-123672717D01*
X114823931Y-123671681D01*
X114821884Y-123670498D01*
X114821966Y-123670219D01*
X114827139Y-123662355D01*
X114836086Y-123649321D01*
X114842751Y-123639792D01*
X114858844Y-123612312D01*
X114874576Y-123576858D01*
X114888961Y-123536017D01*
X114901015Y-123492379D01*
X114904186Y-123478396D01*
X114906201Y-123468715D01*
X114907967Y-123459185D01*
X114909505Y-123449058D01*
X114910836Y-123437586D01*
X114911978Y-123424022D01*
X114912953Y-123407619D01*
X114913781Y-123387629D01*
X114914481Y-123363305D01*
X114915074Y-123333900D01*
X114915581Y-123298665D01*
X114916020Y-123256855D01*
X114916413Y-123207720D01*
X114916779Y-123150515D01*
X114917139Y-123084491D01*
X114917513Y-123008901D01*
X114917656Y-122979107D01*
X114918001Y-122894041D01*
X114918188Y-122817334D01*
X114918221Y-122749245D01*
X114918100Y-122690033D01*
X114917827Y-122639957D01*
X114917404Y-122599275D01*
X114916833Y-122568247D01*
X114916115Y-122547132D01*
X114915253Y-122536189D01*
X114914682Y-122534607D01*
X114910857Y-122539055D01*
X114901328Y-122551336D01*
X114886623Y-122570729D01*
X114867271Y-122596514D01*
X114843803Y-122627972D01*
X114816746Y-122664381D01*
X114786630Y-122705023D01*
X114753985Y-122749177D01*
X114719339Y-122796122D01*
X114683222Y-122845140D01*
X114646164Y-122895510D01*
X114608692Y-122946512D01*
X114571337Y-122997425D01*
X114534628Y-123047531D01*
X114499094Y-123096108D01*
X114465264Y-123142437D01*
X114433668Y-123185798D01*
X114404834Y-123225471D01*
X114379292Y-123260735D01*
X114357571Y-123290871D01*
X114340200Y-123315159D01*
X114327709Y-123332878D01*
X114323983Y-123338279D01*
X114293222Y-123385486D01*
X114265843Y-123431705D01*
X114243076Y-123474740D01*
X114226148Y-123512392D01*
X114224955Y-123515438D01*
X114219498Y-123531143D01*
X114215909Y-123546463D01*
X114213823Y-123564279D01*
X114212874Y-123587468D01*
X114212688Y-123612012D01*
X114212688Y-123676837D01*
X113727041Y-123676835D01*
X113241395Y-123676834D01*
X113244830Y-123673877D01*
X113072333Y-123673877D01*
X113067175Y-123674342D01*
X113052233Y-123674784D01*
X113028307Y-123675198D01*
X112996196Y-123675578D01*
X112956701Y-123675919D01*
X112910621Y-123676214D01*
X112858755Y-123676459D01*
X112801903Y-123676647D01*
X112740865Y-123676772D01*
X112676441Y-123676830D01*
X112656973Y-123676834D01*
X112241612Y-123676834D01*
X112260910Y-123651698D01*
X112284555Y-123614803D01*
X112304893Y-123570818D01*
X112314716Y-123542750D01*
X112315762Y-123538626D01*
X112316723Y-123532989D01*
X112317604Y-123525383D01*
X112318407Y-123515353D01*
X112319140Y-123502444D01*
X112319805Y-123486199D01*
X112320407Y-123466165D01*
X112320952Y-123441884D01*
X112321444Y-123412903D01*
X112321887Y-123378765D01*
X112322286Y-123339015D01*
X112322646Y-123293198D01*
X112322971Y-123240858D01*
X112323266Y-123181541D01*
X112323535Y-123114790D01*
X112323784Y-123040150D01*
X112324016Y-122957166D01*
X112324237Y-122865383D01*
X112324451Y-122764345D01*
X112324662Y-122653596D01*
X112324858Y-122543094D01*
X112326531Y-121570750D01*
X112699745Y-121570750D01*
X112774052Y-121570784D01*
X112838387Y-121570894D01*
X112893358Y-121571089D01*
X112939578Y-121571382D01*
X112977654Y-121571784D01*
X113008199Y-121572304D01*
X113031822Y-121572954D01*
X113049133Y-121573745D01*
X113060742Y-121574688D01*
X113067260Y-121575794D01*
X113069297Y-121577074D01*
X113069213Y-121577365D01*
X113062942Y-121586286D01*
X113056110Y-121594563D01*
X113046478Y-121608397D01*
X113035058Y-121629141D01*
X113023329Y-121653634D01*
X113012769Y-121678720D01*
X113004856Y-121701238D01*
X113002883Y-121708334D01*
X113001869Y-121717701D01*
X113000922Y-121736969D01*
X113000043Y-121765456D01*
X112999232Y-121802481D01*
X112998489Y-121847362D01*
X112997813Y-121899417D01*
X112997205Y-121957965D01*
X112996664Y-122022324D01*
X112996191Y-122091814D01*
X112995785Y-122165751D01*
X112995447Y-122243456D01*
X112995176Y-122324245D01*
X112994973Y-122407439D01*
X112994837Y-122492354D01*
X112994769Y-122578311D01*
X112994769Y-122664626D01*
X112994836Y-122750619D01*
X112994970Y-122835608D01*
X112995172Y-122918911D01*
X112995441Y-122999848D01*
X112995778Y-123077735D01*
X112996182Y-123151893D01*
X112996654Y-123221639D01*
X112997193Y-123286292D01*
X112997799Y-123345170D01*
X112998473Y-123397592D01*
X112999214Y-123442876D01*
X113000022Y-123480341D01*
X113000898Y-123509304D01*
X113001841Y-123529086D01*
X113002852Y-123539003D01*
X113002910Y-123539250D01*
X113013068Y-123570504D01*
X113027599Y-123603464D01*
X113044359Y-123633665D01*
X113056755Y-123651388D01*
X113065944Y-123663482D01*
X113071539Y-123671951D01*
X113072333Y-123673877D01*
X113244830Y-123673877D01*
X113278199Y-123645157D01*
X113296090Y-123628450D01*
X113319192Y-123604864D01*
X113346204Y-123575862D01*
X113375823Y-123542907D01*
X113406745Y-123507462D01*
X113437669Y-123470988D01*
X113467292Y-123434948D01*
X113483304Y-123414896D01*
X113490880Y-123404945D01*
X113504272Y-123386958D01*
X113523087Y-123361471D01*
X113546935Y-123329020D01*
X113575424Y-123290141D01*
X113608163Y-123245370D01*
X113644760Y-123195244D01*
X113684824Y-123140299D01*
X113727965Y-123081070D01*
X113773790Y-123018095D01*
X113821909Y-122951909D01*
X113871929Y-122883048D01*
X113923461Y-122812049D01*
X113957976Y-122764462D01*
X114395081Y-122161654D01*
X114377554Y-122140046D01*
X114372077Y-122133260D01*
X114360387Y-122118747D01*
X114342899Y-122097028D01*
X114320035Y-122068621D01*
X114292211Y-122034047D01*
X114259846Y-121993826D01*
X114223358Y-121948479D01*
X114183167Y-121898524D01*
X114139689Y-121844482D01*
X114093344Y-121786874D01*
X114044551Y-121726218D01*
X113993726Y-121663035D01*
X113942906Y-121599854D01*
X113889950Y-121534049D01*
X113838236Y-121469847D01*
X113788215Y-121407808D01*
X113740342Y-121348492D01*
X113695070Y-121292457D01*
X113652852Y-121240265D01*
X113614141Y-121192474D01*
X113579390Y-121149643D01*
X113549053Y-121112333D01*
X113523582Y-121081103D01*
X113503432Y-121056512D01*
X113489054Y-121039120D01*
X113481523Y-121030199D01*
X113454380Y-120999994D01*
X113423969Y-120968032D01*
X113391913Y-120935862D01*
X113359834Y-120905035D01*
X113329357Y-120877098D01*
X113302102Y-120853603D01*
X113279694Y-120836098D01*
X113274326Y-120832359D01*
X113239134Y-120808750D01*
X114198908Y-120808750D01*
X114193223Y-120825057D01*
X114190684Y-120838657D01*
X114189558Y-120858419D01*
X114190054Y-120879297D01*
X114196024Y-120917145D01*
X114209317Y-120958437D01*
X114230231Y-121003788D01*
X114259062Y-121053810D01*
X114296109Y-121109118D01*
X114312323Y-121131542D01*
X114321561Y-121143779D01*
X114336296Y-121162902D01*
X114355963Y-121188195D01*
X114379995Y-121218944D01*
X114407825Y-121254434D01*
X114438888Y-121293950D01*
X114472618Y-121336777D01*
X114508448Y-121382201D01*
X114545811Y-121429507D01*
X114584142Y-121477980D01*
X114622875Y-121526906D01*
X114661443Y-121575569D01*
X114699279Y-121623255D01*
X114735819Y-121669250D01*
X114770494Y-121712837D01*
X114802740Y-121753303D01*
X114831989Y-121789933D01*
X114857677Y-121822012D01*
X114879235Y-121848825D01*
X114896099Y-121869658D01*
X114907702Y-121883796D01*
X114913477Y-121890523D01*
X114913962Y-121890975D01*
X114914977Y-121886509D01*
X114915881Y-121872436D01*
X114916675Y-121849735D01*
X114917359Y-121819383D01*
X114917934Y-121782356D01*
X114918400Y-121739631D01*
X114918759Y-121692187D01*
X114919010Y-121640999D01*
X114919156Y-121587045D01*
X114919195Y-121531302D01*
X114919129Y-121474748D01*
X114918958Y-121418358D01*
X114918684Y-121363111D01*
X114918306Y-121309983D01*
X114917825Y-121259952D01*
X114917243Y-121213994D01*
X114916559Y-121173086D01*
X114915774Y-121138206D01*
X114914889Y-121110331D01*
X114913905Y-121090438D01*
X114913436Y-121084423D01*
X114904088Y-121016022D01*
X114889610Y-120954173D01*
X114870298Y-120899790D01*
X114846446Y-120853786D01*
X114832659Y-120833886D01*
X114813362Y-120808750D01*
X115707705Y-120808750D01*
X115929099Y-120808750D01*
X115929038Y-120787054D01*
X115928844Y-120733174D01*
X115928620Y-120685104D01*
X115928366Y-120642503D01*
X115928078Y-120605030D01*
X115927755Y-120572345D01*
X115927394Y-120544106D01*
X115926994Y-120519973D01*
X115926552Y-120499604D01*
X115926067Y-120482659D01*
X115925536Y-120468797D01*
X115924958Y-120457676D01*
X115924329Y-120448956D01*
X115923649Y-120442296D01*
X115922916Y-120437356D01*
X115922126Y-120433793D01*
X115921278Y-120431267D01*
X115920371Y-120429437D01*
X115919401Y-120427962D01*
X115919354Y-120427897D01*
X115907093Y-120415354D01*
X115906468Y-120414935D01*
X113040709Y-120414935D01*
X113039134Y-120462779D01*
X113033067Y-120506998D01*
X113030167Y-120519702D01*
X113010209Y-120576944D01*
X112981181Y-120630146D01*
X112944158Y-120678225D01*
X112900216Y-120720099D01*
X112850431Y-120754685D01*
X112795879Y-120780899D01*
X112758911Y-120792795D01*
X112726189Y-120798874D01*
X112687023Y-120802281D01*
X112645224Y-120802963D01*
X112604603Y-120800864D01*
X112568971Y-120795932D01*
X112566979Y-120795524D01*
X112520321Y-120781306D01*
X112472958Y-120758766D01*
X112427645Y-120729585D01*
X112387134Y-120695444D01*
X112365695Y-120672593D01*
X112332321Y-120625815D01*
X112305625Y-120572885D01*
X112295897Y-120546813D01*
X112290304Y-120528996D01*
X112286408Y-120513204D01*
X112283903Y-120496816D01*
X112282483Y-120477209D01*
X112281843Y-120451764D01*
X112281685Y-120425104D01*
X112281783Y-120393231D01*
X112282421Y-120369338D01*
X112283897Y-120350828D01*
X112286512Y-120335100D01*
X112290568Y-120319556D01*
X112295757Y-120303396D01*
X112318774Y-120250647D01*
X112350631Y-120201124D01*
X112389907Y-120156098D01*
X112435183Y-120116841D01*
X112485037Y-120084624D01*
X112538050Y-120060718D01*
X112580208Y-120048758D01*
X112623705Y-120043051D01*
X112672028Y-120042424D01*
X112720849Y-120046647D01*
X112765839Y-120055492D01*
X112778646Y-120059238D01*
X112835367Y-120082856D01*
X112887233Y-120115227D01*
X112933248Y-120155297D01*
X112972416Y-120202010D01*
X113003741Y-120254310D01*
X113026228Y-120311143D01*
X113030361Y-120325973D01*
X113037786Y-120367866D01*
X113040709Y-120414935D01*
X115906468Y-120414935D01*
X115891661Y-120405023D01*
X115890773Y-120404590D01*
X115888255Y-120403684D01*
X115884402Y-120402844D01*
X115878831Y-120402067D01*
X115871157Y-120401350D01*
X115860998Y-120400692D01*
X115847968Y-120400089D01*
X115831684Y-120399539D01*
X115811762Y-120399041D01*
X115787818Y-120398591D01*
X115759469Y-120398187D01*
X115726329Y-120397826D01*
X115688016Y-120397507D01*
X115644146Y-120397226D01*
X115594333Y-120396982D01*
X115538196Y-120396772D01*
X115475349Y-120396593D01*
X115405408Y-120396443D01*
X115327990Y-120396320D01*
X115242711Y-120396221D01*
X115149187Y-120396144D01*
X115047034Y-120396086D01*
X114935867Y-120396046D01*
X114815304Y-120396019D01*
X114684960Y-120396005D01*
X114544451Y-120396000D01*
X114531277Y-120396000D01*
X114389808Y-120395996D01*
X114258545Y-120395982D01*
X114137109Y-120395956D01*
X114025122Y-120395916D01*
X113922207Y-120395858D01*
X113827984Y-120395782D01*
X113742076Y-120395684D01*
X113664106Y-120395562D01*
X113593694Y-120395414D01*
X113530464Y-120395237D01*
X113474036Y-120395029D01*
X113424033Y-120394788D01*
X113380077Y-120394511D01*
X113341790Y-120394196D01*
X113308793Y-120393841D01*
X113280709Y-120393443D01*
X113257159Y-120393000D01*
X113237767Y-120392510D01*
X113222152Y-120391970D01*
X113209938Y-120391377D01*
X113200747Y-120390731D01*
X113194200Y-120390027D01*
X113189919Y-120389264D01*
X113187527Y-120388440D01*
X113186670Y-120387630D01*
X113184396Y-120376553D01*
X113183458Y-120361850D01*
X113181571Y-120343250D01*
X113176440Y-120317733D01*
X113168863Y-120288164D01*
X113159635Y-120257408D01*
X113149555Y-120228331D01*
X113139618Y-120204226D01*
X113107114Y-120145145D01*
X113066388Y-120089608D01*
X113018965Y-120039121D01*
X112966370Y-119995186D01*
X112910128Y-119959309D01*
X112873011Y-119941307D01*
X112838655Y-119927323D01*
X112808779Y-119916959D01*
X112780643Y-119909711D01*
X112751510Y-119905076D01*
X112718642Y-119902553D01*
X112679298Y-119901636D01*
X112656938Y-119901621D01*
X112621877Y-119901881D01*
G36*
X110364910Y-120770010D02*
X110251247Y-120787933D01*
X110137259Y-120816130D01*
X110023371Y-120854689D01*
X110019042Y-120856363D01*
X109998301Y-120864969D01*
X109970256Y-120877399D01*
X109937032Y-120892670D01*
X109900751Y-120909797D01*
X109863538Y-120927796D01*
X109841771Y-120938542D01*
X109807019Y-120955566D01*
X109773768Y-120971341D01*
X109743686Y-120985116D01*
X109718443Y-120996137D01*
X109699707Y-121003652D01*
X109690958Y-121006529D01*
X109673049Y-121012336D01*
X109663579Y-121018272D01*
X109662447Y-121021139D01*
X109665465Y-121026659D01*
X109673861Y-121039881D01*
X109686975Y-121059845D01*
X109704149Y-121085593D01*
X109724725Y-121116167D01*
X109748046Y-121150607D01*
X109773452Y-121187955D01*
X109800286Y-121227252D01*
X109827890Y-121267539D01*
X109855605Y-121307858D01*
X109882772Y-121347249D01*
X109908735Y-121384754D01*
X109932835Y-121419414D01*
X109954413Y-121450270D01*
X109972811Y-121476363D01*
X109987372Y-121496736D01*
X109997436Y-121510428D01*
X110002347Y-121516481D01*
X110002629Y-121516685D01*
X110007740Y-121513694D01*
X110018552Y-121504447D01*
X110033489Y-121490371D01*
X110050975Y-121472894D01*
X110051314Y-121472546D01*
X110107405Y-121421498D01*
X110167034Y-121380080D01*
X110230669Y-121348113D01*
X110298781Y-121325418D01*
X110371838Y-121311818D01*
X110450311Y-121307133D01*
X110484605Y-121307766D01*
X110561059Y-121314996D01*
X110631151Y-121330533D01*
X110695407Y-121354647D01*
X110754350Y-121387608D01*
X110808508Y-121429688D01*
X110858404Y-121481155D01*
X110884310Y-121513682D01*
X110927762Y-121579850D01*
X110966250Y-121655022D01*
X110999622Y-121738777D01*
X111027728Y-121830694D01*
X111050416Y-121930351D01*
X111064921Y-122017896D01*
X111068527Y-122051467D01*
X111071328Y-122093508D01*
X111073325Y-122141935D01*
X111074516Y-122194665D01*
X111074901Y-122249615D01*
X111074482Y-122304702D01*
X111073258Y-122357843D01*
X111071228Y-122406955D01*
X111068394Y-122449954D01*
X111064914Y-122483563D01*
X111047717Y-122587489D01*
X111024624Y-122682780D01*
X110995547Y-122769649D01*
X110960393Y-122848310D01*
X110919073Y-122918979D01*
X110871496Y-122981868D01*
X110839870Y-123015995D01*
X110780395Y-123068686D01*
X110717439Y-123111410D01*
X110651240Y-123144108D01*
X110582037Y-123166722D01*
X110510067Y-123179191D01*
X110435570Y-123181459D01*
X110358784Y-123173464D01*
X110279947Y-123155150D01*
X110278333Y-123154673D01*
X110205015Y-123127438D01*
X110133532Y-123089867D01*
X110064080Y-123042079D01*
X109996855Y-122984191D01*
X109995994Y-122983370D01*
X109940575Y-122930458D01*
X109916733Y-122968948D01*
X109898884Y-122997845D01*
X109878216Y-123031446D01*
X109855317Y-123068784D01*
X109830775Y-123108891D01*
X109805178Y-123150801D01*
X109779114Y-123193545D01*
X109753171Y-123236156D01*
X109727937Y-123277666D01*
X109704000Y-123317109D01*
X109681948Y-123353516D01*
X109662369Y-123385921D01*
X109645852Y-123413355D01*
X109632983Y-123434852D01*
X109624352Y-123449443D01*
X109620545Y-123456162D01*
X109620416Y-123456470D01*
X109624442Y-123460532D01*
X109635684Y-123465732D01*
X109643333Y-123468352D01*
X109655802Y-123473259D01*
X109675493Y-123482270D01*
X109700356Y-123494392D01*
X109728342Y-123508629D01*
X109751813Y-123520986D01*
X109818163Y-123555857D01*
X109877259Y-123585501D01*
X109930646Y-123610571D01*
X109979870Y-123631720D01*
X110026475Y-123649603D01*
X110072007Y-123664873D01*
X110118010Y-123678183D01*
X110132242Y-123681920D01*
X110215445Y-123700255D01*
X110304060Y-123714269D01*
X110394663Y-123723625D01*
X110483833Y-123727987D01*
X110568145Y-123727017D01*
X110582604Y-123726246D01*
X110701700Y-123714505D01*
X110814941Y-123693963D01*
X110922463Y-123664539D01*
X111024401Y-123626157D01*
X111120890Y-123578738D01*
X111212065Y-123522203D01*
X111298061Y-123456474D01*
X111379014Y-123381472D01*
X111455060Y-123297119D01*
X111526332Y-123203337D01*
X111553649Y-123162991D01*
X111613572Y-123062486D01*
X111665286Y-122956253D01*
X111708899Y-122843980D01*
X111744520Y-122725352D01*
X111772257Y-122600053D01*
X111791913Y-122470334D01*
X111794792Y-122439415D01*
X111797175Y-122400204D01*
X111799031Y-122354981D01*
X111800325Y-122306029D01*
X111801023Y-122255627D01*
X111801092Y-122206056D01*
X111800499Y-122159599D01*
X111799209Y-122118535D01*
X111797522Y-122089334D01*
X111783472Y-121957700D01*
X111761724Y-121833124D01*
X111732120Y-121715238D01*
X111694502Y-121603675D01*
X111648714Y-121498067D01*
X111594598Y-121398046D01*
X111531995Y-121303245D01*
X111460750Y-121213295D01*
X111389586Y-121136663D01*
X111302689Y-121056646D01*
X111211192Y-120986030D01*
X111115523Y-120924902D01*
X111016108Y-120873349D01*
X110913376Y-120831459D01*
X110807754Y-120799319D01*
X110699669Y-120777017D01*
X110589548Y-120764640D01*
X110477820Y-120762275D01*
X110364910Y-120770010D01*
X110364910Y-120770010D01*
G37*
X110364910Y-120770010D02*
X110251247Y-120787933D01*
X110137259Y-120816130D01*
X110023371Y-120854689D01*
X110019042Y-120856363D01*
X109998301Y-120864969D01*
X109970256Y-120877399D01*
X109937032Y-120892670D01*
X109900751Y-120909797D01*
X109863538Y-120927796D01*
X109841771Y-120938542D01*
X109807019Y-120955566D01*
X109773768Y-120971341D01*
X109743686Y-120985116D01*
X109718443Y-120996137D01*
X109699707Y-121003652D01*
X109690958Y-121006529D01*
X109673049Y-121012336D01*
X109663579Y-121018272D01*
X109662447Y-121021139D01*
X109665465Y-121026659D01*
X109673861Y-121039881D01*
X109686975Y-121059845D01*
X109704149Y-121085593D01*
X109724725Y-121116167D01*
X109748046Y-121150607D01*
X109773452Y-121187955D01*
X109800286Y-121227252D01*
X109827890Y-121267539D01*
X109855605Y-121307858D01*
X109882772Y-121347249D01*
X109908735Y-121384754D01*
X109932835Y-121419414D01*
X109954413Y-121450270D01*
X109972811Y-121476363D01*
X109987372Y-121496736D01*
X109997436Y-121510428D01*
X110002347Y-121516481D01*
X110002629Y-121516685D01*
X110007740Y-121513694D01*
X110018552Y-121504447D01*
X110033489Y-121490371D01*
X110050975Y-121472894D01*
X110051314Y-121472546D01*
X110107405Y-121421498D01*
X110167034Y-121380080D01*
X110230669Y-121348113D01*
X110298781Y-121325418D01*
X110371838Y-121311818D01*
X110450311Y-121307133D01*
X110484605Y-121307766D01*
X110561059Y-121314996D01*
X110631151Y-121330533D01*
X110695407Y-121354647D01*
X110754350Y-121387608D01*
X110808508Y-121429688D01*
X110858404Y-121481155D01*
X110884310Y-121513682D01*
X110927762Y-121579850D01*
X110966250Y-121655022D01*
X110999622Y-121738777D01*
X111027728Y-121830694D01*
X111050416Y-121930351D01*
X111064921Y-122017896D01*
X111068527Y-122051467D01*
X111071328Y-122093508D01*
X111073325Y-122141935D01*
X111074516Y-122194665D01*
X111074901Y-122249615D01*
X111074482Y-122304702D01*
X111073258Y-122357843D01*
X111071228Y-122406955D01*
X111068394Y-122449954D01*
X111064914Y-122483563D01*
X111047717Y-122587489D01*
X111024624Y-122682780D01*
X110995547Y-122769649D01*
X110960393Y-122848310D01*
X110919073Y-122918979D01*
X110871496Y-122981868D01*
X110839870Y-123015995D01*
X110780395Y-123068686D01*
X110717439Y-123111410D01*
X110651240Y-123144108D01*
X110582037Y-123166722D01*
X110510067Y-123179191D01*
X110435570Y-123181459D01*
X110358784Y-123173464D01*
X110279947Y-123155150D01*
X110278333Y-123154673D01*
X110205015Y-123127438D01*
X110133532Y-123089867D01*
X110064080Y-123042079D01*
X109996855Y-122984191D01*
X109995994Y-122983370D01*
X109940575Y-122930458D01*
X109916733Y-122968948D01*
X109898884Y-122997845D01*
X109878216Y-123031446D01*
X109855317Y-123068784D01*
X109830775Y-123108891D01*
X109805178Y-123150801D01*
X109779114Y-123193545D01*
X109753171Y-123236156D01*
X109727937Y-123277666D01*
X109704000Y-123317109D01*
X109681948Y-123353516D01*
X109662369Y-123385921D01*
X109645852Y-123413355D01*
X109632983Y-123434852D01*
X109624352Y-123449443D01*
X109620545Y-123456162D01*
X109620416Y-123456470D01*
X109624442Y-123460532D01*
X109635684Y-123465732D01*
X109643333Y-123468352D01*
X109655802Y-123473259D01*
X109675493Y-123482270D01*
X109700356Y-123494392D01*
X109728342Y-123508629D01*
X109751813Y-123520986D01*
X109818163Y-123555857D01*
X109877259Y-123585501D01*
X109930646Y-123610571D01*
X109979870Y-123631720D01*
X110026475Y-123649603D01*
X110072007Y-123664873D01*
X110118010Y-123678183D01*
X110132242Y-123681920D01*
X110215445Y-123700255D01*
X110304060Y-123714269D01*
X110394663Y-123723625D01*
X110483833Y-123727987D01*
X110568145Y-123727017D01*
X110582604Y-123726246D01*
X110701700Y-123714505D01*
X110814941Y-123693963D01*
X110922463Y-123664539D01*
X111024401Y-123626157D01*
X111120890Y-123578738D01*
X111212065Y-123522203D01*
X111298061Y-123456474D01*
X111379014Y-123381472D01*
X111455060Y-123297119D01*
X111526332Y-123203337D01*
X111553649Y-123162991D01*
X111613572Y-123062486D01*
X111665286Y-122956253D01*
X111708899Y-122843980D01*
X111744520Y-122725352D01*
X111772257Y-122600053D01*
X111791913Y-122470334D01*
X111794792Y-122439415D01*
X111797175Y-122400204D01*
X111799031Y-122354981D01*
X111800325Y-122306029D01*
X111801023Y-122255627D01*
X111801092Y-122206056D01*
X111800499Y-122159599D01*
X111799209Y-122118535D01*
X111797522Y-122089334D01*
X111783472Y-121957700D01*
X111761724Y-121833124D01*
X111732120Y-121715238D01*
X111694502Y-121603675D01*
X111648714Y-121498067D01*
X111594598Y-121398046D01*
X111531995Y-121303245D01*
X111460750Y-121213295D01*
X111389586Y-121136663D01*
X111302689Y-121056646D01*
X111211192Y-120986030D01*
X111115523Y-120924902D01*
X111016108Y-120873349D01*
X110913376Y-120831459D01*
X110807754Y-120799319D01*
X110699669Y-120777017D01*
X110589548Y-120764640D01*
X110477820Y-120762275D01*
X110364910Y-120770010D01*
G36*
X108372336Y-121527499D02*
X108295885Y-121531688D01*
X108225144Y-121539030D01*
X108207268Y-121541579D01*
X108113910Y-121559887D01*
X108028203Y-121585210D01*
X107950232Y-121617488D01*
X107880083Y-121656664D01*
X107817843Y-121702678D01*
X107763599Y-121755471D01*
X107717437Y-121814985D01*
X107679444Y-121881160D01*
X107666142Y-121910454D01*
X107653128Y-121944434D01*
X107639752Y-121984728D01*
X107627255Y-122027189D01*
X107616879Y-122067670D01*
X107611431Y-122093193D01*
X107608103Y-122110861D01*
X107605115Y-122127190D01*
X107602447Y-122142824D01*
X107600076Y-122158409D01*
X107597980Y-122174590D01*
X107596138Y-122192012D01*
X107594527Y-122211321D01*
X107593127Y-122233162D01*
X107591914Y-122258181D01*
X107590867Y-122287023D01*
X107589965Y-122320333D01*
X107589186Y-122358757D01*
X107588507Y-122402940D01*
X107587906Y-122453528D01*
X107587363Y-122511165D01*
X107586855Y-122576498D01*
X107586360Y-122650171D01*
X107585857Y-122732830D01*
X107585323Y-122825121D01*
X107585052Y-122872500D01*
X107584490Y-122968993D01*
X107583959Y-123055475D01*
X107583447Y-123132517D01*
X107582944Y-123200691D01*
X107582439Y-123260568D01*
X107581922Y-123312720D01*
X107581383Y-123357719D01*
X107580811Y-123396137D01*
X107580194Y-123428546D01*
X107579524Y-123455516D01*
X107578789Y-123477620D01*
X107577978Y-123495429D01*
X107577082Y-123509515D01*
X107576089Y-123520451D01*
X107574989Y-123528806D01*
X107573771Y-123535154D01*
X107572754Y-123539010D01*
X107560570Y-123572636D01*
X107544614Y-123606674D01*
X107526880Y-123637209D01*
X107513230Y-123655915D01*
X107503060Y-123668451D01*
X107496411Y-123677346D01*
X107494917Y-123679980D01*
X107500066Y-123680340D01*
X107514942Y-123680682D01*
X107538690Y-123680999D01*
X107570453Y-123681287D01*
X107609375Y-123681541D01*
X107654601Y-123681756D01*
X107705275Y-123681926D01*
X107760539Y-123682047D01*
X107819539Y-123682113D01*
X107857396Y-123682125D01*
X108219875Y-123682125D01*
X108219875Y-123522313D01*
X108249196Y-123549110D01*
X108305442Y-123594067D01*
X108369343Y-123633694D01*
X108438919Y-123667046D01*
X108512192Y-123693178D01*
X108587183Y-123711144D01*
X108588922Y-123711456D01*
X108609390Y-123714247D01*
X108636914Y-123716816D01*
X108669097Y-123719062D01*
X108703541Y-123720882D01*
X108737847Y-123722174D01*
X108769619Y-123722835D01*
X108796458Y-123722763D01*
X108815966Y-123721855D01*
X108820479Y-123721341D01*
X108885367Y-123710882D01*
X108941784Y-123699326D01*
X108991833Y-123686079D01*
X109037616Y-123670549D01*
X109081233Y-123652139D01*
X109103583Y-123641319D01*
X109158293Y-123611418D01*
X109205793Y-123580045D01*
X109249418Y-123544826D01*
X109280622Y-123515438D01*
X109334117Y-123454828D01*
X109379139Y-123388026D01*
X109415573Y-123315330D01*
X109443307Y-123237038D01*
X109462225Y-123153449D01*
X109472213Y-123064863D01*
X109473317Y-123028405D01*
X108832198Y-123028405D01*
X108825462Y-123075110D01*
X108811245Y-123115148D01*
X108791643Y-123146516D01*
X108763658Y-123176286D01*
X108729492Y-123202785D01*
X108691345Y-123224344D01*
X108651417Y-123239291D01*
X108645854Y-123240750D01*
X108621922Y-123244669D01*
X108590955Y-123246875D01*
X108556360Y-123247378D01*
X108521545Y-123246187D01*
X108489916Y-123243312D01*
X108471229Y-123240248D01*
X108422659Y-123225261D01*
X108375635Y-123201746D01*
X108332471Y-123171275D01*
X108295483Y-123135422D01*
X108272827Y-123105388D01*
X108256917Y-123080594D01*
X108256917Y-122757370D01*
X108296820Y-122751435D01*
X108329125Y-122748076D01*
X108368473Y-122746200D01*
X108411436Y-122745781D01*
X108454583Y-122746792D01*
X108494484Y-122749205D01*
X108527708Y-122752993D01*
X108529558Y-122753287D01*
X108590403Y-122766303D01*
X108646568Y-122784583D01*
X108696584Y-122807480D01*
X108738978Y-122834349D01*
X108764901Y-122856730D01*
X108795323Y-122894371D01*
X108816859Y-122936533D01*
X108829241Y-122981712D01*
X108832198Y-123028405D01*
X109473317Y-123028405D01*
X109473872Y-123010084D01*
X109469261Y-122924623D01*
X109455274Y-122844049D01*
X109431968Y-122768446D01*
X109399397Y-122697898D01*
X109357618Y-122632490D01*
X109306685Y-122572305D01*
X109246655Y-122517427D01*
X109177584Y-122467941D01*
X109099526Y-122423931D01*
X109080899Y-122414872D01*
X109015261Y-122386798D01*
X108946033Y-122363199D01*
X108872301Y-122343930D01*
X108793146Y-122328844D01*
X108707655Y-122317797D01*
X108614909Y-122310642D01*
X108513994Y-122307236D01*
X108403992Y-122307431D01*
X108403920Y-122307433D01*
X108251625Y-122310019D01*
X108251625Y-122278828D01*
X108254967Y-122235766D01*
X108264244Y-122189760D01*
X108278330Y-122145752D01*
X108285992Y-122127804D01*
X108310610Y-122085371D01*
X108341147Y-122050961D01*
X108378019Y-122024345D01*
X108421645Y-122005294D01*
X108472444Y-121993581D01*
X108530833Y-121988975D01*
X108540160Y-121988884D01*
X108627676Y-121993577D01*
X108718117Y-122007760D01*
X108810362Y-122031143D01*
X108903289Y-122063438D01*
X108995776Y-122104356D01*
X109004101Y-122108482D01*
X109023904Y-122117905D01*
X109039938Y-122124627D01*
X109050066Y-122127804D01*
X109052444Y-122127619D01*
X109056613Y-122119068D01*
X109063996Y-122102320D01*
X109074116Y-122078553D01*
X109086499Y-122048944D01*
X109100669Y-122014672D01*
X109116151Y-121976914D01*
X109132470Y-121936847D01*
X109149151Y-121895650D01*
X109165719Y-121854500D01*
X109181698Y-121814576D01*
X109196613Y-121777054D01*
X109209990Y-121743112D01*
X109221353Y-121713928D01*
X109230226Y-121690681D01*
X109236135Y-121674547D01*
X109238605Y-121666704D01*
X109238623Y-121666165D01*
X109231639Y-121662725D01*
X109218358Y-121660834D01*
X109213680Y-121660709D01*
X109198338Y-121659649D01*
X109175905Y-121656405D01*
X109145913Y-121650875D01*
X109107897Y-121642961D01*
X109061391Y-121632563D01*
X109005928Y-121619580D01*
X108941042Y-121603914D01*
X108893545Y-121592233D01*
X108850047Y-121581621D01*
X108807268Y-121571463D01*
X108766971Y-121562157D01*
X108730915Y-121554099D01*
X108700859Y-121547688D01*
X108678565Y-121543320D01*
X108671967Y-121542195D01*
X108604313Y-121533812D01*
X108529714Y-121528565D01*
X108451334Y-121526460D01*
X108372336Y-121527499D01*
X108372336Y-121527499D01*
G37*
X108372336Y-121527499D02*
X108295885Y-121531688D01*
X108225144Y-121539030D01*
X108207268Y-121541579D01*
X108113910Y-121559887D01*
X108028203Y-121585210D01*
X107950232Y-121617488D01*
X107880083Y-121656664D01*
X107817843Y-121702678D01*
X107763599Y-121755471D01*
X107717437Y-121814985D01*
X107679444Y-121881160D01*
X107666142Y-121910454D01*
X107653128Y-121944434D01*
X107639752Y-121984728D01*
X107627255Y-122027189D01*
X107616879Y-122067670D01*
X107611431Y-122093193D01*
X107608103Y-122110861D01*
X107605115Y-122127190D01*
X107602447Y-122142824D01*
X107600076Y-122158409D01*
X107597980Y-122174590D01*
X107596138Y-122192012D01*
X107594527Y-122211321D01*
X107593127Y-122233162D01*
X107591914Y-122258181D01*
X107590867Y-122287023D01*
X107589965Y-122320333D01*
X107589186Y-122358757D01*
X107588507Y-122402940D01*
X107587906Y-122453528D01*
X107587363Y-122511165D01*
X107586855Y-122576498D01*
X107586360Y-122650171D01*
X107585857Y-122732830D01*
X107585323Y-122825121D01*
X107585052Y-122872500D01*
X107584490Y-122968993D01*
X107583959Y-123055475D01*
X107583447Y-123132517D01*
X107582944Y-123200691D01*
X107582439Y-123260568D01*
X107581922Y-123312720D01*
X107581383Y-123357719D01*
X107580811Y-123396137D01*
X107580194Y-123428546D01*
X107579524Y-123455516D01*
X107578789Y-123477620D01*
X107577978Y-123495429D01*
X107577082Y-123509515D01*
X107576089Y-123520451D01*
X107574989Y-123528806D01*
X107573771Y-123535154D01*
X107572754Y-123539010D01*
X107560570Y-123572636D01*
X107544614Y-123606674D01*
X107526880Y-123637209D01*
X107513230Y-123655915D01*
X107503060Y-123668451D01*
X107496411Y-123677346D01*
X107494917Y-123679980D01*
X107500066Y-123680340D01*
X107514942Y-123680682D01*
X107538690Y-123680999D01*
X107570453Y-123681287D01*
X107609375Y-123681541D01*
X107654601Y-123681756D01*
X107705275Y-123681926D01*
X107760539Y-123682047D01*
X107819539Y-123682113D01*
X107857396Y-123682125D01*
X108219875Y-123682125D01*
X108219875Y-123522313D01*
X108249196Y-123549110D01*
X108305442Y-123594067D01*
X108369343Y-123633694D01*
X108438919Y-123667046D01*
X108512192Y-123693178D01*
X108587183Y-123711144D01*
X108588922Y-123711456D01*
X108609390Y-123714247D01*
X108636914Y-123716816D01*
X108669097Y-123719062D01*
X108703541Y-123720882D01*
X108737847Y-123722174D01*
X108769619Y-123722835D01*
X108796458Y-123722763D01*
X108815966Y-123721855D01*
X108820479Y-123721341D01*
X108885367Y-123710882D01*
X108941784Y-123699326D01*
X108991833Y-123686079D01*
X109037616Y-123670549D01*
X109081233Y-123652139D01*
X109103583Y-123641319D01*
X109158293Y-123611418D01*
X109205793Y-123580045D01*
X109249418Y-123544826D01*
X109280622Y-123515438D01*
X109334117Y-123454828D01*
X109379139Y-123388026D01*
X109415573Y-123315330D01*
X109443307Y-123237038D01*
X109462225Y-123153449D01*
X109472213Y-123064863D01*
X109473317Y-123028405D01*
X108832198Y-123028405D01*
X108825462Y-123075110D01*
X108811245Y-123115148D01*
X108791643Y-123146516D01*
X108763658Y-123176286D01*
X108729492Y-123202785D01*
X108691345Y-123224344D01*
X108651417Y-123239291D01*
X108645854Y-123240750D01*
X108621922Y-123244669D01*
X108590955Y-123246875D01*
X108556360Y-123247378D01*
X108521545Y-123246187D01*
X108489916Y-123243312D01*
X108471229Y-123240248D01*
X108422659Y-123225261D01*
X108375635Y-123201746D01*
X108332471Y-123171275D01*
X108295483Y-123135422D01*
X108272827Y-123105388D01*
X108256917Y-123080594D01*
X108256917Y-122757370D01*
X108296820Y-122751435D01*
X108329125Y-122748076D01*
X108368473Y-122746200D01*
X108411436Y-122745781D01*
X108454583Y-122746792D01*
X108494484Y-122749205D01*
X108527708Y-122752993D01*
X108529558Y-122753287D01*
X108590403Y-122766303D01*
X108646568Y-122784583D01*
X108696584Y-122807480D01*
X108738978Y-122834349D01*
X108764901Y-122856730D01*
X108795323Y-122894371D01*
X108816859Y-122936533D01*
X108829241Y-122981712D01*
X108832198Y-123028405D01*
X109473317Y-123028405D01*
X109473872Y-123010084D01*
X109469261Y-122924623D01*
X109455274Y-122844049D01*
X109431968Y-122768446D01*
X109399397Y-122697898D01*
X109357618Y-122632490D01*
X109306685Y-122572305D01*
X109246655Y-122517427D01*
X109177584Y-122467941D01*
X109099526Y-122423931D01*
X109080899Y-122414872D01*
X109015261Y-122386798D01*
X108946033Y-122363199D01*
X108872301Y-122343930D01*
X108793146Y-122328844D01*
X108707655Y-122317797D01*
X108614909Y-122310642D01*
X108513994Y-122307236D01*
X108403992Y-122307431D01*
X108403920Y-122307433D01*
X108251625Y-122310019D01*
X108251625Y-122278828D01*
X108254967Y-122235766D01*
X108264244Y-122189760D01*
X108278330Y-122145752D01*
X108285992Y-122127804D01*
X108310610Y-122085371D01*
X108341147Y-122050961D01*
X108378019Y-122024345D01*
X108421645Y-122005294D01*
X108472444Y-121993581D01*
X108530833Y-121988975D01*
X108540160Y-121988884D01*
X108627676Y-121993577D01*
X108718117Y-122007760D01*
X108810362Y-122031143D01*
X108903289Y-122063438D01*
X108995776Y-122104356D01*
X109004101Y-122108482D01*
X109023904Y-122117905D01*
X109039938Y-122124627D01*
X109050066Y-122127804D01*
X109052444Y-122127619D01*
X109056613Y-122119068D01*
X109063996Y-122102320D01*
X109074116Y-122078553D01*
X109086499Y-122048944D01*
X109100669Y-122014672D01*
X109116151Y-121976914D01*
X109132470Y-121936847D01*
X109149151Y-121895650D01*
X109165719Y-121854500D01*
X109181698Y-121814576D01*
X109196613Y-121777054D01*
X109209990Y-121743112D01*
X109221353Y-121713928D01*
X109230226Y-121690681D01*
X109236135Y-121674547D01*
X109238605Y-121666704D01*
X109238623Y-121666165D01*
X109231639Y-121662725D01*
X109218358Y-121660834D01*
X109213680Y-121660709D01*
X109198338Y-121659649D01*
X109175905Y-121656405D01*
X109145913Y-121650875D01*
X109107897Y-121642961D01*
X109061391Y-121632563D01*
X109005928Y-121619580D01*
X108941042Y-121603914D01*
X108893545Y-121592233D01*
X108850047Y-121581621D01*
X108807268Y-121571463D01*
X108766971Y-121562157D01*
X108730915Y-121554099D01*
X108700859Y-121547688D01*
X108678565Y-121543320D01*
X108671967Y-121542195D01*
X108604313Y-121533812D01*
X108529714Y-121528565D01*
X108451334Y-121526460D01*
X108372336Y-121527499D01*
G36*
X105134833Y-122023831D02*
X105134829Y-122169031D01*
X105134812Y-122304030D01*
X105134783Y-122429214D01*
X105134738Y-122544966D01*
X105134674Y-122651670D01*
X105134591Y-122749709D01*
X105134486Y-122839468D01*
X105134356Y-122921331D01*
X105134200Y-122995680D01*
X105134014Y-123062900D01*
X105133798Y-123123375D01*
X105133549Y-123177488D01*
X105133264Y-123225624D01*
X105132941Y-123268165D01*
X105132579Y-123305496D01*
X105132175Y-123338001D01*
X105131726Y-123366064D01*
X105131231Y-123390068D01*
X105130688Y-123410396D01*
X105130094Y-123427434D01*
X105129446Y-123441564D01*
X105128744Y-123453171D01*
X105127984Y-123462638D01*
X105127165Y-123470349D01*
X105126530Y-123475071D01*
X105113904Y-123538980D01*
X105096147Y-123594013D01*
X105073107Y-123640638D01*
X105071002Y-123644066D01*
X105060953Y-123660457D01*
X105053563Y-123673068D01*
X105050230Y-123679501D01*
X105050167Y-123679785D01*
X105055316Y-123680178D01*
X105070192Y-123680550D01*
X105093940Y-123680896D01*
X105125703Y-123681211D01*
X105164625Y-123681488D01*
X105209851Y-123681722D01*
X105260525Y-123681908D01*
X105315789Y-123682040D01*
X105374789Y-123682112D01*
X105412646Y-123682125D01*
X105775125Y-123682125D01*
X105775125Y-123522313D01*
X105803248Y-123547980D01*
X105861569Y-123594345D01*
X105927598Y-123634388D01*
X106000230Y-123667643D01*
X106078358Y-123693646D01*
X106160877Y-123711934D01*
X106210156Y-123718805D01*
X106236220Y-123720998D01*
X106267123Y-123722560D01*
X106300026Y-123723455D01*
X106332092Y-123723650D01*
X106360483Y-123723108D01*
X106382360Y-123721795D01*
X106388958Y-123721000D01*
X106431945Y-123714242D01*
X106466528Y-123708277D01*
X106494815Y-123702663D01*
X106518913Y-123696961D01*
X106540930Y-123690730D01*
X106554461Y-123686407D01*
X106632376Y-123655236D01*
X106707323Y-123614764D01*
X106777623Y-123566124D01*
X106841597Y-123510448D01*
X106886153Y-123462714D01*
X106945581Y-123384648D01*
X106996649Y-123300499D01*
X107039389Y-123210164D01*
X107073834Y-123113544D01*
X107100016Y-123010538D01*
X107117966Y-122901044D01*
X107127718Y-122784963D01*
X107129683Y-122700521D01*
X107128329Y-122645776D01*
X106428279Y-122645776D01*
X106427964Y-122695312D01*
X106426885Y-122743465D01*
X106425058Y-122788014D01*
X106422501Y-122826736D01*
X106419228Y-122857407D01*
X106418753Y-122860672D01*
X106406316Y-122928147D01*
X106390627Y-122986442D01*
X106371264Y-123036575D01*
X106347807Y-123079564D01*
X106319833Y-123116427D01*
X106307467Y-123129504D01*
X106279336Y-123155215D01*
X106252698Y-123173881D01*
X106223882Y-123187696D01*
X106193167Y-123197759D01*
X106167335Y-123202309D01*
X106134524Y-123204115D01*
X106097940Y-123203310D01*
X106060790Y-123200025D01*
X106026280Y-123194393D01*
X106008963Y-123190167D01*
X105972066Y-123177335D01*
X105931401Y-123159254D01*
X105890933Y-123137901D01*
X105854628Y-123115251D01*
X105845240Y-123108572D01*
X105812167Y-123084189D01*
X105812167Y-122126910D01*
X105845709Y-122102974D01*
X105902780Y-122067834D01*
X105961677Y-122042836D01*
X106023578Y-122027562D01*
X106071458Y-122022303D01*
X106124735Y-122022728D01*
X106171798Y-122030923D01*
X106214197Y-122047466D01*
X106253482Y-122072936D01*
X106285771Y-122102227D01*
X106317400Y-122140155D01*
X106344863Y-122184987D01*
X106368377Y-122237328D01*
X106388161Y-122297780D01*
X106404432Y-122366945D01*
X106417407Y-122445426D01*
X106421572Y-122478271D01*
X106424477Y-122511106D01*
X106426552Y-122551451D01*
X106427814Y-122597082D01*
X106428279Y-122645776D01*
X107128329Y-122645776D01*
X107126374Y-122566732D01*
X107116467Y-122440455D01*
X107100009Y-122321791D01*
X107077047Y-122210839D01*
X107047628Y-122107698D01*
X107011800Y-122012468D01*
X106969610Y-121925248D01*
X106921105Y-121846138D01*
X106866332Y-121775237D01*
X106805339Y-121712645D01*
X106738173Y-121658461D01*
X106664880Y-121612785D01*
X106597886Y-121580758D01*
X106527334Y-121556305D01*
X106451350Y-121539095D01*
X106371733Y-121529073D01*
X106290284Y-121526187D01*
X106208801Y-121530383D01*
X106129085Y-121541605D01*
X106052936Y-121559800D01*
X105982154Y-121584913D01*
X105948933Y-121600251D01*
X105909652Y-121621831D01*
X105871844Y-121645925D01*
X105839216Y-121670115D01*
X105830205Y-121677717D01*
X105811559Y-121694089D01*
X105813658Y-121250097D01*
X105814096Y-121165625D01*
X105814569Y-121091183D01*
X105815087Y-121026221D01*
X105815662Y-120970184D01*
X105816303Y-120922521D01*
X105817021Y-120882679D01*
X105817826Y-120850106D01*
X105818729Y-120824250D01*
X105819740Y-120804557D01*
X105820870Y-120790477D01*
X105822128Y-120781455D01*
X105822534Y-120779646D01*
X105834760Y-120742768D01*
X105851966Y-120705343D01*
X105871819Y-120672257D01*
X105877481Y-120664506D01*
X105887820Y-120650237D01*
X105894842Y-120638982D01*
X105896833Y-120634079D01*
X105891569Y-120632961D01*
X105875880Y-120631972D01*
X105849925Y-120631114D01*
X105813862Y-120630389D01*
X105767851Y-120629800D01*
X105712049Y-120629348D01*
X105646614Y-120629036D01*
X105571706Y-120628867D01*
X105515833Y-120628834D01*
X105134833Y-120628834D01*
X105134833Y-122023831D01*
X105134833Y-122023831D01*
G37*
X105134833Y-122023831D02*
X105134829Y-122169031D01*
X105134812Y-122304030D01*
X105134783Y-122429214D01*
X105134738Y-122544966D01*
X105134674Y-122651670D01*
X105134591Y-122749709D01*
X105134486Y-122839468D01*
X105134356Y-122921331D01*
X105134200Y-122995680D01*
X105134014Y-123062900D01*
X105133798Y-123123375D01*
X105133549Y-123177488D01*
X105133264Y-123225624D01*
X105132941Y-123268165D01*
X105132579Y-123305496D01*
X105132175Y-123338001D01*
X105131726Y-123366064D01*
X105131231Y-123390068D01*
X105130688Y-123410396D01*
X105130094Y-123427434D01*
X105129446Y-123441564D01*
X105128744Y-123453171D01*
X105127984Y-123462638D01*
X105127165Y-123470349D01*
X105126530Y-123475071D01*
X105113904Y-123538980D01*
X105096147Y-123594013D01*
X105073107Y-123640638D01*
X105071002Y-123644066D01*
X105060953Y-123660457D01*
X105053563Y-123673068D01*
X105050230Y-123679501D01*
X105050167Y-123679785D01*
X105055316Y-123680178D01*
X105070192Y-123680550D01*
X105093940Y-123680896D01*
X105125703Y-123681211D01*
X105164625Y-123681488D01*
X105209851Y-123681722D01*
X105260525Y-123681908D01*
X105315789Y-123682040D01*
X105374789Y-123682112D01*
X105412646Y-123682125D01*
X105775125Y-123682125D01*
X105775125Y-123522313D01*
X105803248Y-123547980D01*
X105861569Y-123594345D01*
X105927598Y-123634388D01*
X106000230Y-123667643D01*
X106078358Y-123693646D01*
X106160877Y-123711934D01*
X106210156Y-123718805D01*
X106236220Y-123720998D01*
X106267123Y-123722560D01*
X106300026Y-123723455D01*
X106332092Y-123723650D01*
X106360483Y-123723108D01*
X106382360Y-123721795D01*
X106388958Y-123721000D01*
X106431945Y-123714242D01*
X106466528Y-123708277D01*
X106494815Y-123702663D01*
X106518913Y-123696961D01*
X106540930Y-123690730D01*
X106554461Y-123686407D01*
X106632376Y-123655236D01*
X106707323Y-123614764D01*
X106777623Y-123566124D01*
X106841597Y-123510448D01*
X106886153Y-123462714D01*
X106945581Y-123384648D01*
X106996649Y-123300499D01*
X107039389Y-123210164D01*
X107073834Y-123113544D01*
X107100016Y-123010538D01*
X107117966Y-122901044D01*
X107127718Y-122784963D01*
X107129683Y-122700521D01*
X107128329Y-122645776D01*
X106428279Y-122645776D01*
X106427964Y-122695312D01*
X106426885Y-122743465D01*
X106425058Y-122788014D01*
X106422501Y-122826736D01*
X106419228Y-122857407D01*
X106418753Y-122860672D01*
X106406316Y-122928147D01*
X106390627Y-122986442D01*
X106371264Y-123036575D01*
X106347807Y-123079564D01*
X106319833Y-123116427D01*
X106307467Y-123129504D01*
X106279336Y-123155215D01*
X106252698Y-123173881D01*
X106223882Y-123187696D01*
X106193167Y-123197759D01*
X106167335Y-123202309D01*
X106134524Y-123204115D01*
X106097940Y-123203310D01*
X106060790Y-123200025D01*
X106026280Y-123194393D01*
X106008963Y-123190167D01*
X105972066Y-123177335D01*
X105931401Y-123159254D01*
X105890933Y-123137901D01*
X105854628Y-123115251D01*
X105845240Y-123108572D01*
X105812167Y-123084189D01*
X105812167Y-122126910D01*
X105845709Y-122102974D01*
X105902780Y-122067834D01*
X105961677Y-122042836D01*
X106023578Y-122027562D01*
X106071458Y-122022303D01*
X106124735Y-122022728D01*
X106171798Y-122030923D01*
X106214197Y-122047466D01*
X106253482Y-122072936D01*
X106285771Y-122102227D01*
X106317400Y-122140155D01*
X106344863Y-122184987D01*
X106368377Y-122237328D01*
X106388161Y-122297780D01*
X106404432Y-122366945D01*
X106417407Y-122445426D01*
X106421572Y-122478271D01*
X106424477Y-122511106D01*
X106426552Y-122551451D01*
X106427814Y-122597082D01*
X106428279Y-122645776D01*
X107128329Y-122645776D01*
X107126374Y-122566732D01*
X107116467Y-122440455D01*
X107100009Y-122321791D01*
X107077047Y-122210839D01*
X107047628Y-122107698D01*
X107011800Y-122012468D01*
X106969610Y-121925248D01*
X106921105Y-121846138D01*
X106866332Y-121775237D01*
X106805339Y-121712645D01*
X106738173Y-121658461D01*
X106664880Y-121612785D01*
X106597886Y-121580758D01*
X106527334Y-121556305D01*
X106451350Y-121539095D01*
X106371733Y-121529073D01*
X106290284Y-121526187D01*
X106208801Y-121530383D01*
X106129085Y-121541605D01*
X106052936Y-121559800D01*
X105982154Y-121584913D01*
X105948933Y-121600251D01*
X105909652Y-121621831D01*
X105871844Y-121645925D01*
X105839216Y-121670115D01*
X105830205Y-121677717D01*
X105811559Y-121694089D01*
X105813658Y-121250097D01*
X105814096Y-121165625D01*
X105814569Y-121091183D01*
X105815087Y-121026221D01*
X105815662Y-120970184D01*
X105816303Y-120922521D01*
X105817021Y-120882679D01*
X105817826Y-120850106D01*
X105818729Y-120824250D01*
X105819740Y-120804557D01*
X105820870Y-120790477D01*
X105822128Y-120781455D01*
X105822534Y-120779646D01*
X105834760Y-120742768D01*
X105851966Y-120705343D01*
X105871819Y-120672257D01*
X105877481Y-120664506D01*
X105887820Y-120650237D01*
X105894842Y-120638982D01*
X105896833Y-120634079D01*
X105891569Y-120632961D01*
X105875880Y-120631972D01*
X105849925Y-120631114D01*
X105813862Y-120630389D01*
X105767851Y-120629800D01*
X105712049Y-120629348D01*
X105646614Y-120629036D01*
X105571706Y-120628867D01*
X105515833Y-120628834D01*
X105134833Y-120628834D01*
X105134833Y-122023831D01*
G36*
X186580795Y-96418400D02*
X186413050Y-96418452D01*
X186268830Y-96418634D01*
X186146259Y-96418993D01*
X186043462Y-96419572D01*
X185958562Y-96420414D01*
X185889684Y-96421566D01*
X185834953Y-96423070D01*
X185792494Y-96424971D01*
X185760430Y-96427312D01*
X185736887Y-96430140D01*
X185719989Y-96433496D01*
X185707860Y-96437426D01*
X185704149Y-96439061D01*
X185661008Y-96465662D01*
X185628620Y-96501440D01*
X185605185Y-96550291D01*
X185588899Y-96616107D01*
X185577960Y-96702783D01*
X185577012Y-96713675D01*
X185568749Y-96812100D01*
X185799313Y-96812100D01*
X185803332Y-96777175D01*
X185807350Y-96742250D01*
X186610625Y-96738981D01*
X187413900Y-96735711D01*
X187413900Y-96418400D01*
X186580795Y-96418400D01*
X186580795Y-96418400D01*
G37*
X186580795Y-96418400D02*
X186413050Y-96418452D01*
X186268830Y-96418634D01*
X186146259Y-96418993D01*
X186043462Y-96419572D01*
X185958562Y-96420414D01*
X185889684Y-96421566D01*
X185834953Y-96423070D01*
X185792494Y-96424971D01*
X185760430Y-96427312D01*
X185736887Y-96430140D01*
X185719989Y-96433496D01*
X185707860Y-96437426D01*
X185704149Y-96439061D01*
X185661008Y-96465662D01*
X185628620Y-96501440D01*
X185605185Y-96550291D01*
X185588899Y-96616107D01*
X185577960Y-96702783D01*
X185577012Y-96713675D01*
X185568749Y-96812100D01*
X185799313Y-96812100D01*
X185803332Y-96777175D01*
X185807350Y-96742250D01*
X186610625Y-96738981D01*
X187413900Y-96735711D01*
X187413900Y-96418400D01*
X186580795Y-96418400D01*
G36*
X187419917Y-97301050D02*
X187419223Y-97233478D01*
X187416873Y-97184925D01*
X187411943Y-97149024D01*
X187403512Y-97119405D01*
X187390655Y-97089698D01*
X187388702Y-97085686D01*
X187335662Y-97003284D01*
X187265842Y-96939024D01*
X187178272Y-96892212D01*
X187076752Y-96863072D01*
X187038756Y-96858324D01*
X186979243Y-96854856D01*
X186897381Y-96852651D01*
X186792336Y-96851691D01*
X186663276Y-96851960D01*
X186569350Y-96852752D01*
X186452645Y-96854036D01*
X186358381Y-96855328D01*
X186283599Y-96856825D01*
X186225343Y-96858721D01*
X186180655Y-96861211D01*
X186146575Y-96864489D01*
X186120146Y-96868751D01*
X186098410Y-96874190D01*
X186078409Y-96881002D01*
X186065832Y-96885900D01*
X185975187Y-96934270D01*
X185903788Y-96999160D01*
X185851793Y-97080338D01*
X185819357Y-97177569D01*
X185807304Y-97272227D01*
X185806202Y-97329369D01*
X185808062Y-97383916D01*
X185812477Y-97425326D01*
X185813364Y-97429891D01*
X185846421Y-97526354D01*
X185900471Y-97609865D01*
X185973309Y-97677821D01*
X186062734Y-97727618D01*
X186066693Y-97729223D01*
X186086916Y-97736882D01*
X186107227Y-97743068D01*
X186130578Y-97747973D01*
X186159924Y-97751790D01*
X186198219Y-97754712D01*
X186248417Y-97756931D01*
X186313471Y-97758642D01*
X186396336Y-97760036D01*
X186499964Y-97761307D01*
X186569350Y-97762049D01*
X186609799Y-97762338D01*
X186609799Y-97447081D01*
X186493439Y-97446959D01*
X186399678Y-97446518D01*
X186325718Y-97445624D01*
X186268757Y-97444142D01*
X186225997Y-97441940D01*
X186194638Y-97438883D01*
X186171880Y-97434839D01*
X186154924Y-97429673D01*
X186144077Y-97424856D01*
X186098143Y-97389410D01*
X186072550Y-97341224D01*
X186068075Y-97307400D01*
X186073932Y-97271090D01*
X186083939Y-97243900D01*
X186105901Y-97217006D01*
X186138958Y-97192666D01*
X186144077Y-97189945D01*
X186158477Y-97183827D01*
X186176527Y-97178932D01*
X186201026Y-97175128D01*
X186234773Y-97172281D01*
X186280569Y-97170257D01*
X186341213Y-97168923D01*
X186419504Y-97168145D01*
X186518244Y-97167790D01*
X186609799Y-97167720D01*
X186738367Y-97168143D01*
X186847828Y-97169400D01*
X186936880Y-97171451D01*
X187004224Y-97174259D01*
X187048560Y-97177785D01*
X187066999Y-97181246D01*
X187118971Y-97209424D01*
X187149049Y-97247948D01*
X187159789Y-97300292D01*
X187159900Y-97307400D01*
X187151233Y-97361568D01*
X187123524Y-97401513D01*
X187074217Y-97430711D01*
X187066999Y-97433555D01*
X187042839Y-97437650D01*
X186994588Y-97441059D01*
X186923545Y-97443744D01*
X186831010Y-97445666D01*
X186718283Y-97446787D01*
X186609799Y-97447081D01*
X186609799Y-97762338D01*
X186713953Y-97763083D01*
X186834017Y-97762899D01*
X186930375Y-97761479D01*
X187003859Y-97758808D01*
X187055301Y-97754867D01*
X187076752Y-97751729D01*
X187179634Y-97722329D01*
X187263364Y-97677471D01*
X187330033Y-97615622D01*
X187381733Y-97535252D01*
X187386979Y-97524399D01*
X187401392Y-97491379D01*
X187410920Y-97461186D01*
X187416537Y-97427216D01*
X187419216Y-97382862D01*
X187419933Y-97321519D01*
X187419917Y-97301050D01*
X187419917Y-97301050D01*
G37*
X187419917Y-97301050D02*
X187419223Y-97233478D01*
X187416873Y-97184925D01*
X187411943Y-97149024D01*
X187403512Y-97119405D01*
X187390655Y-97089698D01*
X187388702Y-97085686D01*
X187335662Y-97003284D01*
X187265842Y-96939024D01*
X187178272Y-96892212D01*
X187076752Y-96863072D01*
X187038756Y-96858324D01*
X186979243Y-96854856D01*
X186897381Y-96852651D01*
X186792336Y-96851691D01*
X186663276Y-96851960D01*
X186569350Y-96852752D01*
X186452645Y-96854036D01*
X186358381Y-96855328D01*
X186283599Y-96856825D01*
X186225343Y-96858721D01*
X186180655Y-96861211D01*
X186146575Y-96864489D01*
X186120146Y-96868751D01*
X186098410Y-96874190D01*
X186078409Y-96881002D01*
X186065832Y-96885900D01*
X185975187Y-96934270D01*
X185903788Y-96999160D01*
X185851793Y-97080338D01*
X185819357Y-97177569D01*
X185807304Y-97272227D01*
X185806202Y-97329369D01*
X185808062Y-97383916D01*
X185812477Y-97425326D01*
X185813364Y-97429891D01*
X185846421Y-97526354D01*
X185900471Y-97609865D01*
X185973309Y-97677821D01*
X186062734Y-97727618D01*
X186066693Y-97729223D01*
X186086916Y-97736882D01*
X186107227Y-97743068D01*
X186130578Y-97747973D01*
X186159924Y-97751790D01*
X186198219Y-97754712D01*
X186248417Y-97756931D01*
X186313471Y-97758642D01*
X186396336Y-97760036D01*
X186499964Y-97761307D01*
X186569350Y-97762049D01*
X186609799Y-97762338D01*
X186609799Y-97447081D01*
X186493439Y-97446959D01*
X186399678Y-97446518D01*
X186325718Y-97445624D01*
X186268757Y-97444142D01*
X186225997Y-97441940D01*
X186194638Y-97438883D01*
X186171880Y-97434839D01*
X186154924Y-97429673D01*
X186144077Y-97424856D01*
X186098143Y-97389410D01*
X186072550Y-97341224D01*
X186068075Y-97307400D01*
X186073932Y-97271090D01*
X186083939Y-97243900D01*
X186105901Y-97217006D01*
X186138958Y-97192666D01*
X186144077Y-97189945D01*
X186158477Y-97183827D01*
X186176527Y-97178932D01*
X186201026Y-97175128D01*
X186234773Y-97172281D01*
X186280569Y-97170257D01*
X186341213Y-97168923D01*
X186419504Y-97168145D01*
X186518244Y-97167790D01*
X186609799Y-97167720D01*
X186738367Y-97168143D01*
X186847828Y-97169400D01*
X186936880Y-97171451D01*
X187004224Y-97174259D01*
X187048560Y-97177785D01*
X187066999Y-97181246D01*
X187118971Y-97209424D01*
X187149049Y-97247948D01*
X187159789Y-97300292D01*
X187159900Y-97307400D01*
X187151233Y-97361568D01*
X187123524Y-97401513D01*
X187074217Y-97430711D01*
X187066999Y-97433555D01*
X187042839Y-97437650D01*
X186994588Y-97441059D01*
X186923545Y-97443744D01*
X186831010Y-97445666D01*
X186718283Y-97446787D01*
X186609799Y-97447081D01*
X186609799Y-97762338D01*
X186713953Y-97763083D01*
X186834017Y-97762899D01*
X186930375Y-97761479D01*
X187003859Y-97758808D01*
X187055301Y-97754867D01*
X187076752Y-97751729D01*
X187179634Y-97722329D01*
X187263364Y-97677471D01*
X187330033Y-97615622D01*
X187381733Y-97535252D01*
X187386979Y-97524399D01*
X187401392Y-97491379D01*
X187410920Y-97461186D01*
X187416537Y-97427216D01*
X187419216Y-97382862D01*
X187419933Y-97321519D01*
X187419917Y-97301050D01*
G36*
X187417968Y-95745320D02*
X187410465Y-95676079D01*
X187395798Y-95621007D01*
X187372292Y-95574629D01*
X187338271Y-95531475D01*
X187322107Y-95514654D01*
X187278501Y-95476918D01*
X187229390Y-95447098D01*
X187171485Y-95424424D01*
X187101498Y-95408125D01*
X187016139Y-95397434D01*
X186912120Y-95391581D01*
X186788425Y-95389796D01*
X186575700Y-95389700D01*
X186575700Y-95973900D01*
X186378220Y-95973900D01*
X186295364Y-95973264D01*
X186233995Y-95971143D01*
X186190227Y-95967219D01*
X186160175Y-95961171D01*
X186143485Y-95954636D01*
X186102905Y-95921302D01*
X186077282Y-95875280D01*
X186068736Y-95824075D01*
X186079383Y-95775193D01*
X186088410Y-95759485D01*
X186115073Y-95731917D01*
X186152683Y-95712741D01*
X186205164Y-95700889D01*
X186276442Y-95695296D01*
X186327643Y-95694500D01*
X186461400Y-95694500D01*
X186461400Y-95385896D01*
X186293125Y-95393039D01*
X186211250Y-95397625D01*
X186148467Y-95404051D01*
X186098486Y-95413224D01*
X186055017Y-95426053D01*
X186048650Y-95428356D01*
X185973215Y-95467571D01*
X185907029Y-95523569D01*
X185856129Y-95590450D01*
X185833537Y-95638545D01*
X185817147Y-95704715D01*
X185807802Y-95784375D01*
X185805889Y-95867333D01*
X185811796Y-95943394D01*
X185820361Y-95985567D01*
X185856293Y-96077263D01*
X185908935Y-96151754D01*
X185980834Y-96211983D01*
X186048650Y-96249438D01*
X186124850Y-96285050D01*
X186613800Y-96285050D01*
X186738121Y-96285021D01*
X186839773Y-96284833D01*
X186921484Y-96284342D01*
X186931708Y-96284193D01*
X186931708Y-95973900D01*
X186817000Y-95973900D01*
X186817000Y-95694500D01*
X186902725Y-95695054D01*
X186995040Y-95699675D01*
X187064951Y-95712867D01*
X187114302Y-95735640D01*
X187144939Y-95769002D01*
X187158705Y-95813962D01*
X187159900Y-95835744D01*
X187154362Y-95886698D01*
X187136000Y-95924321D01*
X187102198Y-95950198D01*
X187050338Y-95965913D01*
X186977801Y-95973052D01*
X186931708Y-95973900D01*
X186931708Y-96284193D01*
X186985987Y-96283400D01*
X187036011Y-96281862D01*
X187074286Y-96279581D01*
X187103543Y-96276410D01*
X187126512Y-96272204D01*
X187145924Y-96266815D01*
X187164508Y-96260099D01*
X187177767Y-96254818D01*
X187256525Y-96211086D01*
X187326181Y-96149554D01*
X187379733Y-96076818D01*
X187391949Y-96053071D01*
X187404026Y-96023462D01*
X187412089Y-95992689D01*
X187416917Y-95954667D01*
X187419290Y-95903309D01*
X187419985Y-95834200D01*
X187417968Y-95745320D01*
X187417968Y-95745320D01*
G37*
X187417968Y-95745320D02*
X187410465Y-95676079D01*
X187395798Y-95621007D01*
X187372292Y-95574629D01*
X187338271Y-95531475D01*
X187322107Y-95514654D01*
X187278501Y-95476918D01*
X187229390Y-95447098D01*
X187171485Y-95424424D01*
X187101498Y-95408125D01*
X187016139Y-95397434D01*
X186912120Y-95391581D01*
X186788425Y-95389796D01*
X186575700Y-95389700D01*
X186575700Y-95973900D01*
X186378220Y-95973900D01*
X186295364Y-95973264D01*
X186233995Y-95971143D01*
X186190227Y-95967219D01*
X186160175Y-95961171D01*
X186143485Y-95954636D01*
X186102905Y-95921302D01*
X186077282Y-95875280D01*
X186068736Y-95824075D01*
X186079383Y-95775193D01*
X186088410Y-95759485D01*
X186115073Y-95731917D01*
X186152683Y-95712741D01*
X186205164Y-95700889D01*
X186276442Y-95695296D01*
X186327643Y-95694500D01*
X186461400Y-95694500D01*
X186461400Y-95385896D01*
X186293125Y-95393039D01*
X186211250Y-95397625D01*
X186148467Y-95404051D01*
X186098486Y-95413224D01*
X186055017Y-95426053D01*
X186048650Y-95428356D01*
X185973215Y-95467571D01*
X185907029Y-95523569D01*
X185856129Y-95590450D01*
X185833537Y-95638545D01*
X185817147Y-95704715D01*
X185807802Y-95784375D01*
X185805889Y-95867333D01*
X185811796Y-95943394D01*
X185820361Y-95985567D01*
X185856293Y-96077263D01*
X185908935Y-96151754D01*
X185980834Y-96211983D01*
X186048650Y-96249438D01*
X186124850Y-96285050D01*
X186613800Y-96285050D01*
X186738121Y-96285021D01*
X186839773Y-96284833D01*
X186921484Y-96284342D01*
X186931708Y-96284193D01*
X186931708Y-95973900D01*
X186817000Y-95973900D01*
X186817000Y-95694500D01*
X186902725Y-95695054D01*
X186995040Y-95699675D01*
X187064951Y-95712867D01*
X187114302Y-95735640D01*
X187144939Y-95769002D01*
X187158705Y-95813962D01*
X187159900Y-95835744D01*
X187154362Y-95886698D01*
X187136000Y-95924321D01*
X187102198Y-95950198D01*
X187050338Y-95965913D01*
X186977801Y-95973052D01*
X186931708Y-95973900D01*
X186931708Y-96284193D01*
X186985987Y-96283400D01*
X187036011Y-96281862D01*
X187074286Y-96279581D01*
X187103543Y-96276410D01*
X187126512Y-96272204D01*
X187145924Y-96266815D01*
X187164508Y-96260099D01*
X187177767Y-96254818D01*
X187256525Y-96211086D01*
X187326181Y-96149554D01*
X187379733Y-96076818D01*
X187391949Y-96053071D01*
X187404026Y-96023462D01*
X187412089Y-95992689D01*
X187416917Y-95954667D01*
X187419290Y-95903309D01*
X187419985Y-95834200D01*
X187417968Y-95745320D01*
G36*
X187419532Y-94818200D02*
X187417776Y-94735865D01*
X187412150Y-94672948D01*
X187400843Y-94623550D01*
X187382045Y-94581772D01*
X187353944Y-94541716D01*
X187324180Y-94507632D01*
X187274794Y-94462111D01*
X187219962Y-94429268D01*
X187154548Y-94407235D01*
X187073416Y-94394144D01*
X186997975Y-94389021D01*
X186855100Y-94383204D01*
X186855100Y-94691200D01*
X186957331Y-94691200D01*
X187036418Y-94695718D01*
X187093943Y-94709771D01*
X187132180Y-94734113D01*
X187146824Y-94753997D01*
X187157654Y-94792347D01*
X187158736Y-94839686D01*
X187150535Y-94883355D01*
X187141356Y-94902524D01*
X187130180Y-94916784D01*
X187116914Y-94928401D01*
X187099042Y-94937621D01*
X187074050Y-94944686D01*
X187039421Y-94949840D01*
X186992640Y-94953327D01*
X186931193Y-94955391D01*
X186852562Y-94956276D01*
X186754234Y-94956224D01*
X186633693Y-94955480D01*
X186597607Y-94955197D01*
X186144450Y-94951550D01*
X186109250Y-94916337D01*
X186086349Y-94887953D01*
X186076071Y-94856216D01*
X186074050Y-94819245D01*
X186079018Y-94770728D01*
X186095666Y-94734104D01*
X186126617Y-94707977D01*
X186174489Y-94690947D01*
X186241904Y-94681616D01*
X186331481Y-94678583D01*
X186337575Y-94678571D01*
X186461400Y-94678500D01*
X186461400Y-94383576D01*
X186280425Y-94388685D01*
X186206959Y-94391129D01*
X186152986Y-94394277D01*
X186112603Y-94399070D01*
X186079904Y-94406449D01*
X186048985Y-94417355D01*
X186019272Y-94430293D01*
X185937194Y-94479864D01*
X185875075Y-94544411D01*
X185833812Y-94622993D01*
X185832750Y-94626006D01*
X185817028Y-94690716D01*
X185808010Y-94768928D01*
X185806062Y-94850539D01*
X185811550Y-94925445D01*
X185820314Y-94969567D01*
X185859296Y-95065313D01*
X185917138Y-95144489D01*
X185992645Y-95205865D01*
X186084622Y-95248208D01*
X186093076Y-95250864D01*
X186116456Y-95257564D01*
X186139837Y-95262953D01*
X186166103Y-95267146D01*
X186198137Y-95270257D01*
X186238822Y-95272400D01*
X186291042Y-95273690D01*
X186357680Y-95274241D01*
X186441619Y-95274168D01*
X186545743Y-95273584D01*
X186646605Y-95272818D01*
X187115450Y-95269050D01*
X187185880Y-95236016D01*
X187270801Y-95186598D01*
X187335419Y-95126246D01*
X187383822Y-95051120D01*
X187384816Y-95049107D01*
X187399727Y-95017063D01*
X187409716Y-94988774D01*
X187415729Y-94957946D01*
X187418712Y-94918289D01*
X187419611Y-94863509D01*
X187419532Y-94818200D01*
X187419532Y-94818200D01*
G37*
X187419532Y-94818200D02*
X187417776Y-94735865D01*
X187412150Y-94672948D01*
X187400843Y-94623550D01*
X187382045Y-94581772D01*
X187353944Y-94541716D01*
X187324180Y-94507632D01*
X187274794Y-94462111D01*
X187219962Y-94429268D01*
X187154548Y-94407235D01*
X187073416Y-94394144D01*
X186997975Y-94389021D01*
X186855100Y-94383204D01*
X186855100Y-94691200D01*
X186957331Y-94691200D01*
X187036418Y-94695718D01*
X187093943Y-94709771D01*
X187132180Y-94734113D01*
X187146824Y-94753997D01*
X187157654Y-94792347D01*
X187158736Y-94839686D01*
X187150535Y-94883355D01*
X187141356Y-94902524D01*
X187130180Y-94916784D01*
X187116914Y-94928401D01*
X187099042Y-94937621D01*
X187074050Y-94944686D01*
X187039421Y-94949840D01*
X186992640Y-94953327D01*
X186931193Y-94955391D01*
X186852562Y-94956276D01*
X186754234Y-94956224D01*
X186633693Y-94955480D01*
X186597607Y-94955197D01*
X186144450Y-94951550D01*
X186109250Y-94916337D01*
X186086349Y-94887953D01*
X186076071Y-94856216D01*
X186074050Y-94819245D01*
X186079018Y-94770728D01*
X186095666Y-94734104D01*
X186126617Y-94707977D01*
X186174489Y-94690947D01*
X186241904Y-94681616D01*
X186331481Y-94678583D01*
X186337575Y-94678571D01*
X186461400Y-94678500D01*
X186461400Y-94383576D01*
X186280425Y-94388685D01*
X186206959Y-94391129D01*
X186152986Y-94394277D01*
X186112603Y-94399070D01*
X186079904Y-94406449D01*
X186048985Y-94417355D01*
X186019272Y-94430293D01*
X185937194Y-94479864D01*
X185875075Y-94544411D01*
X185833812Y-94622993D01*
X185832750Y-94626006D01*
X185817028Y-94690716D01*
X185808010Y-94768928D01*
X185806062Y-94850539D01*
X185811550Y-94925445D01*
X185820314Y-94969567D01*
X185859296Y-95065313D01*
X185917138Y-95144489D01*
X185992645Y-95205865D01*
X186084622Y-95248208D01*
X186093076Y-95250864D01*
X186116456Y-95257564D01*
X186139837Y-95262953D01*
X186166103Y-95267146D01*
X186198137Y-95270257D01*
X186238822Y-95272400D01*
X186291042Y-95273690D01*
X186357680Y-95274241D01*
X186441619Y-95274168D01*
X186545743Y-95273584D01*
X186646605Y-95272818D01*
X187115450Y-95269050D01*
X187185880Y-95236016D01*
X187270801Y-95186598D01*
X187335419Y-95126246D01*
X187383822Y-95051120D01*
X187384816Y-95049107D01*
X187399727Y-95017063D01*
X187409716Y-94988774D01*
X187415729Y-94957946D01*
X187418712Y-94918289D01*
X187419611Y-94863509D01*
X187419532Y-94818200D01*
G36*
X187722781Y-93054743D02*
X187707625Y-92991932D01*
X187682687Y-92938479D01*
X187646691Y-92889274D01*
X187643006Y-92885039D01*
X187600051Y-92841509D01*
X187555798Y-92809745D01*
X187504997Y-92787833D01*
X187442400Y-92773862D01*
X187362757Y-92765920D01*
X187309125Y-92763405D01*
X187147200Y-92757797D01*
X187147200Y-93052900D01*
X187232925Y-93052971D01*
X187319758Y-93058102D01*
X187384743Y-93074015D01*
X187429486Y-93101736D01*
X187455591Y-93142291D01*
X187464662Y-93196704D01*
X187464700Y-93201110D01*
X187455521Y-93261705D01*
X187427694Y-93305529D01*
X187380782Y-93332951D01*
X187314352Y-93344338D01*
X187294530Y-93344722D01*
X187258131Y-93342217D01*
X187223262Y-93333795D01*
X187187106Y-93317486D01*
X187146843Y-93291317D01*
X187099656Y-93253315D01*
X187042727Y-93201510D01*
X186973237Y-93133928D01*
X186926671Y-93087335D01*
X186836267Y-92997537D01*
X186759554Y-92924904D01*
X186693422Y-92867545D01*
X186634764Y-92823573D01*
X186580473Y-92791099D01*
X186527441Y-92768233D01*
X186472561Y-92753086D01*
X186412725Y-92743770D01*
X186353422Y-92738890D01*
X186221148Y-92738755D01*
X186107755Y-92755505D01*
X186012922Y-92789391D01*
X185936332Y-92840668D01*
X185877666Y-92909589D01*
X185836604Y-92996408D01*
X185812829Y-93101378D01*
X185806713Y-93173550D01*
X185805917Y-93232839D01*
X185807878Y-93289648D01*
X185812177Y-93334025D01*
X185813840Y-93343327D01*
X185844241Y-93434187D01*
X185892872Y-93513357D01*
X185956524Y-93577074D01*
X186031983Y-93621575D01*
X186060030Y-93631743D01*
X186103472Y-93641047D01*
X186167258Y-93649178D01*
X186246342Y-93655592D01*
X186312175Y-93658929D01*
X186499500Y-93666190D01*
X186499500Y-93345000D01*
X186328251Y-93345000D01*
X186259223Y-93344828D01*
X186210676Y-93343767D01*
X186177692Y-93340998D01*
X186155353Y-93335704D01*
X186138739Y-93327066D01*
X186122933Y-93314266D01*
X186118260Y-93310075D01*
X186083564Y-93264186D01*
X186069985Y-93212391D01*
X186077086Y-93160723D01*
X186104433Y-93115214D01*
X186134059Y-93091054D01*
X186175923Y-93075473D01*
X186233209Y-93066843D01*
X186296844Y-93065391D01*
X186357756Y-93071348D01*
X186405160Y-93084212D01*
X186427116Y-93098403D01*
X186463946Y-93127906D01*
X186512594Y-93170038D01*
X186570008Y-93222117D01*
X186633131Y-93281463D01*
X186667221Y-93314325D01*
X186760141Y-93403518D01*
X186839033Y-93475772D01*
X186907141Y-93532768D01*
X186967713Y-93576186D01*
X187023995Y-93607708D01*
X187079232Y-93629016D01*
X187136673Y-93641789D01*
X187199562Y-93647711D01*
X187271146Y-93648460D01*
X187310489Y-93647445D01*
X187400773Y-93641759D01*
X187471482Y-93630309D01*
X187528134Y-93611267D01*
X187576245Y-93582809D01*
X187619147Y-93545307D01*
X187661728Y-93496353D01*
X187692058Y-93444417D01*
X187712116Y-93383796D01*
X187723879Y-93308784D01*
X187728853Y-93228889D01*
X187729432Y-93132025D01*
X187722781Y-93054743D01*
X187722781Y-93054743D01*
G37*
X187722781Y-93054743D02*
X187707625Y-92991932D01*
X187682687Y-92938479D01*
X187646691Y-92889274D01*
X187643006Y-92885039D01*
X187600051Y-92841509D01*
X187555798Y-92809745D01*
X187504997Y-92787833D01*
X187442400Y-92773862D01*
X187362757Y-92765920D01*
X187309125Y-92763405D01*
X187147200Y-92757797D01*
X187147200Y-93052900D01*
X187232925Y-93052971D01*
X187319758Y-93058102D01*
X187384743Y-93074015D01*
X187429486Y-93101736D01*
X187455591Y-93142291D01*
X187464662Y-93196704D01*
X187464700Y-93201110D01*
X187455521Y-93261705D01*
X187427694Y-93305529D01*
X187380782Y-93332951D01*
X187314352Y-93344338D01*
X187294530Y-93344722D01*
X187258131Y-93342217D01*
X187223262Y-93333795D01*
X187187106Y-93317486D01*
X187146843Y-93291317D01*
X187099656Y-93253315D01*
X187042727Y-93201510D01*
X186973237Y-93133928D01*
X186926671Y-93087335D01*
X186836267Y-92997537D01*
X186759554Y-92924904D01*
X186693422Y-92867545D01*
X186634764Y-92823573D01*
X186580473Y-92791099D01*
X186527441Y-92768233D01*
X186472561Y-92753086D01*
X186412725Y-92743770D01*
X186353422Y-92738890D01*
X186221148Y-92738755D01*
X186107755Y-92755505D01*
X186012922Y-92789391D01*
X185936332Y-92840668D01*
X185877666Y-92909589D01*
X185836604Y-92996408D01*
X185812829Y-93101378D01*
X185806713Y-93173550D01*
X185805917Y-93232839D01*
X185807878Y-93289648D01*
X185812177Y-93334025D01*
X185813840Y-93343327D01*
X185844241Y-93434187D01*
X185892872Y-93513357D01*
X185956524Y-93577074D01*
X186031983Y-93621575D01*
X186060030Y-93631743D01*
X186103472Y-93641047D01*
X186167258Y-93649178D01*
X186246342Y-93655592D01*
X186312175Y-93658929D01*
X186499500Y-93666190D01*
X186499500Y-93345000D01*
X186328251Y-93345000D01*
X186259223Y-93344828D01*
X186210676Y-93343767D01*
X186177692Y-93340998D01*
X186155353Y-93335704D01*
X186138739Y-93327066D01*
X186122933Y-93314266D01*
X186118260Y-93310075D01*
X186083564Y-93264186D01*
X186069985Y-93212391D01*
X186077086Y-93160723D01*
X186104433Y-93115214D01*
X186134059Y-93091054D01*
X186175923Y-93075473D01*
X186233209Y-93066843D01*
X186296844Y-93065391D01*
X186357756Y-93071348D01*
X186405160Y-93084212D01*
X186427116Y-93098403D01*
X186463946Y-93127906D01*
X186512594Y-93170038D01*
X186570008Y-93222117D01*
X186633131Y-93281463D01*
X186667221Y-93314325D01*
X186760141Y-93403518D01*
X186839033Y-93475772D01*
X186907141Y-93532768D01*
X186967713Y-93576186D01*
X187023995Y-93607708D01*
X187079232Y-93629016D01*
X187136673Y-93641789D01*
X187199562Y-93647711D01*
X187271146Y-93648460D01*
X187310489Y-93647445D01*
X187400773Y-93641759D01*
X187471482Y-93630309D01*
X187528134Y-93611267D01*
X187576245Y-93582809D01*
X187619147Y-93545307D01*
X187661728Y-93496353D01*
X187692058Y-93444417D01*
X187712116Y-93383796D01*
X187723879Y-93308784D01*
X187728853Y-93228889D01*
X187729432Y-93132025D01*
X187722781Y-93054743D01*
G36*
X187724771Y-90193675D02*
X187723424Y-90142028D01*
X187720243Y-90104843D01*
X187714465Y-90076648D01*
X187705325Y-90051977D01*
X187692057Y-90025360D01*
X187691310Y-90023950D01*
X187650168Y-89960439D01*
X187599729Y-89909907D01*
X187537324Y-89871299D01*
X187460283Y-89843556D01*
X187365939Y-89825621D01*
X187251622Y-89816436D01*
X187163075Y-89814652D01*
X187032900Y-89814400D01*
X187032900Y-90119200D01*
X187188475Y-90119220D01*
X187261071Y-90120068D01*
X187313599Y-90122982D01*
X187351350Y-90128550D01*
X187379613Y-90137359D01*
X187388500Y-90141445D01*
X187430427Y-90174857D01*
X187454438Y-90220218D01*
X187460540Y-90271481D01*
X187448743Y-90322599D01*
X187419053Y-90367524D01*
X187388170Y-90391732D01*
X187376238Y-90398157D01*
X187362724Y-90403454D01*
X187345137Y-90407755D01*
X187320988Y-90411191D01*
X187287783Y-90413895D01*
X187243033Y-90415998D01*
X187184247Y-90417632D01*
X187108932Y-90418930D01*
X187014599Y-90420022D01*
X186898756Y-90421040D01*
X186823350Y-90421630D01*
X186707899Y-90422301D01*
X186597997Y-90422539D01*
X186496780Y-90422367D01*
X186407382Y-90421806D01*
X186332938Y-90420879D01*
X186276582Y-90419608D01*
X186241449Y-90418017D01*
X186235019Y-90417421D01*
X186167688Y-90400385D01*
X186120172Y-90367681D01*
X186091900Y-90318795D01*
X186083878Y-90280962D01*
X186082942Y-90231659D01*
X186094528Y-90195326D01*
X186098815Y-90188238D01*
X186118113Y-90164384D01*
X186142889Y-90146565D01*
X186176823Y-90133968D01*
X186223594Y-90125775D01*
X186286883Y-90121171D01*
X186370369Y-90119339D01*
X186410193Y-90119200D01*
X186613800Y-90119200D01*
X186613800Y-89965135D01*
X186613801Y-89811070D01*
X186375675Y-89817757D01*
X186270617Y-89821641D01*
X186186845Y-89827289D01*
X186120262Y-89835562D01*
X186066771Y-89847316D01*
X186022275Y-89863412D01*
X185982676Y-89884707D01*
X185950786Y-89906801D01*
X185898529Y-89959363D01*
X185854062Y-90031721D01*
X185832969Y-90076842D01*
X185819673Y-90116113D01*
X185811956Y-90159044D01*
X185807600Y-90215143D01*
X185806662Y-90234921D01*
X185806126Y-90314715D01*
X185811417Y-90383204D01*
X185818075Y-90419130D01*
X185854920Y-90517544D01*
X185910533Y-90598966D01*
X185984499Y-90663056D01*
X186076406Y-90709472D01*
X186185840Y-90737873D01*
X186208821Y-90741236D01*
X186247810Y-90744500D01*
X186308055Y-90747248D01*
X186385838Y-90749480D01*
X186477440Y-90751196D01*
X186579144Y-90752394D01*
X186687231Y-90753075D01*
X186797982Y-90753237D01*
X186907681Y-90752880D01*
X187012607Y-90752002D01*
X187109044Y-90750605D01*
X187193273Y-90748686D01*
X187261575Y-90746245D01*
X187310232Y-90743281D01*
X187327187Y-90741441D01*
X187441921Y-90715809D01*
X187537201Y-90674554D01*
X187614136Y-90616965D01*
X187673831Y-90542333D01*
X187693626Y-90506550D01*
X187706278Y-90479054D01*
X187715004Y-90452916D01*
X187720524Y-90422607D01*
X187723557Y-90382599D01*
X187724824Y-90327361D01*
X187725050Y-90265250D01*
X187724771Y-90193675D01*
X187724771Y-90193675D01*
G37*
X187724771Y-90193675D02*
X187723424Y-90142028D01*
X187720243Y-90104843D01*
X187714465Y-90076648D01*
X187705325Y-90051977D01*
X187692057Y-90025360D01*
X187691310Y-90023950D01*
X187650168Y-89960439D01*
X187599729Y-89909907D01*
X187537324Y-89871299D01*
X187460283Y-89843556D01*
X187365939Y-89825621D01*
X187251622Y-89816436D01*
X187163075Y-89814652D01*
X187032900Y-89814400D01*
X187032900Y-90119200D01*
X187188475Y-90119220D01*
X187261071Y-90120068D01*
X187313599Y-90122982D01*
X187351350Y-90128550D01*
X187379613Y-90137359D01*
X187388500Y-90141445D01*
X187430427Y-90174857D01*
X187454438Y-90220218D01*
X187460540Y-90271481D01*
X187448743Y-90322599D01*
X187419053Y-90367524D01*
X187388170Y-90391732D01*
X187376238Y-90398157D01*
X187362724Y-90403454D01*
X187345137Y-90407755D01*
X187320988Y-90411191D01*
X187287783Y-90413895D01*
X187243033Y-90415998D01*
X187184247Y-90417632D01*
X187108932Y-90418930D01*
X187014599Y-90420022D01*
X186898756Y-90421040D01*
X186823350Y-90421630D01*
X186707899Y-90422301D01*
X186597997Y-90422539D01*
X186496780Y-90422367D01*
X186407382Y-90421806D01*
X186332938Y-90420879D01*
X186276582Y-90419608D01*
X186241449Y-90418017D01*
X186235019Y-90417421D01*
X186167688Y-90400385D01*
X186120172Y-90367681D01*
X186091900Y-90318795D01*
X186083878Y-90280962D01*
X186082942Y-90231659D01*
X186094528Y-90195326D01*
X186098815Y-90188238D01*
X186118113Y-90164384D01*
X186142889Y-90146565D01*
X186176823Y-90133968D01*
X186223594Y-90125775D01*
X186286883Y-90121171D01*
X186370369Y-90119339D01*
X186410193Y-90119200D01*
X186613800Y-90119200D01*
X186613800Y-89965135D01*
X186613801Y-89811070D01*
X186375675Y-89817757D01*
X186270617Y-89821641D01*
X186186845Y-89827289D01*
X186120262Y-89835562D01*
X186066771Y-89847316D01*
X186022275Y-89863412D01*
X185982676Y-89884707D01*
X185950786Y-89906801D01*
X185898529Y-89959363D01*
X185854062Y-90031721D01*
X185832969Y-90076842D01*
X185819673Y-90116113D01*
X185811956Y-90159044D01*
X185807600Y-90215143D01*
X185806662Y-90234921D01*
X185806126Y-90314715D01*
X185811417Y-90383204D01*
X185818075Y-90419130D01*
X185854920Y-90517544D01*
X185910533Y-90598966D01*
X185984499Y-90663056D01*
X186076406Y-90709472D01*
X186185840Y-90737873D01*
X186208821Y-90741236D01*
X186247810Y-90744500D01*
X186308055Y-90747248D01*
X186385838Y-90749480D01*
X186477440Y-90751196D01*
X186579144Y-90752394D01*
X186687231Y-90753075D01*
X186797982Y-90753237D01*
X186907681Y-90752880D01*
X187012607Y-90752002D01*
X187109044Y-90750605D01*
X187193273Y-90748686D01*
X187261575Y-90746245D01*
X187310232Y-90743281D01*
X187327187Y-90741441D01*
X187441921Y-90715809D01*
X187537201Y-90674554D01*
X187614136Y-90616965D01*
X187673831Y-90542333D01*
X187693626Y-90506550D01*
X187706278Y-90479054D01*
X187715004Y-90452916D01*
X187720524Y-90422607D01*
X187723557Y-90382599D01*
X187724824Y-90327361D01*
X187725050Y-90265250D01*
X187724771Y-90193675D01*
G36*
X187721400Y-89074236D02*
X187703464Y-89006233D01*
X187674728Y-88946660D01*
X187665884Y-88932691D01*
X187621766Y-88879307D01*
X187566655Y-88837901D01*
X187497812Y-88807533D01*
X187412497Y-88787262D01*
X187307971Y-88776149D01*
X187201175Y-88773199D01*
X187032900Y-88773000D01*
X187032900Y-89075881D01*
X187210448Y-89080016D01*
X187280923Y-89081825D01*
X187330723Y-89083999D01*
X187364566Y-89087409D01*
X187387172Y-89092930D01*
X187403260Y-89101433D01*
X187417549Y-89113791D01*
X187423173Y-89119364D01*
X187445816Y-89147292D01*
X187456143Y-89178385D01*
X187458350Y-89217545D01*
X187455681Y-89259935D01*
X187444352Y-89289731D01*
X187419383Y-89319473D01*
X187416841Y-89322031D01*
X187375331Y-89363550D01*
X186800891Y-89367432D01*
X186641052Y-89368221D01*
X186505910Y-89368252D01*
X186394772Y-89367513D01*
X186306947Y-89365992D01*
X186241743Y-89363678D01*
X186198466Y-89360560D01*
X186178218Y-89357215D01*
X186131228Y-89331953D01*
X186099036Y-89291863D01*
X186082454Y-89243032D01*
X186082294Y-89191551D01*
X186099368Y-89143505D01*
X186134489Y-89104985D01*
X186143767Y-89098949D01*
X186161401Y-89090928D01*
X186185637Y-89085156D01*
X186220494Y-89081296D01*
X186269993Y-89079014D01*
X186338152Y-89077972D01*
X186396685Y-89077800D01*
X186613800Y-89077800D01*
X186613800Y-88770704D01*
X186362975Y-88776047D01*
X186260745Y-88778892D01*
X186179830Y-88783227D01*
X186116149Y-88790054D01*
X186065622Y-88800375D01*
X186024170Y-88815191D01*
X185987711Y-88835506D01*
X185952165Y-88862319D01*
X185928786Y-88882656D01*
X185876664Y-88940490D01*
X185840149Y-89008148D01*
X185817491Y-89090071D01*
X185806940Y-89190700D01*
X185806877Y-89192100D01*
X185806027Y-89250298D01*
X185808120Y-89306291D01*
X185812707Y-89349537D01*
X185813842Y-89355527D01*
X185846660Y-89454314D01*
X185899539Y-89537956D01*
X185971478Y-89605505D01*
X186061476Y-89656013D01*
X186164683Y-89687745D01*
X186196520Y-89691375D01*
X186253060Y-89694254D01*
X186333618Y-89696371D01*
X186437508Y-89697717D01*
X186564043Y-89698281D01*
X186712538Y-89698052D01*
X186812383Y-89697526D01*
X186949207Y-89696612D01*
X187063072Y-89695722D01*
X187156418Y-89694732D01*
X187231686Y-89693519D01*
X187291315Y-89691960D01*
X187337747Y-89689932D01*
X187373421Y-89687313D01*
X187400778Y-89683978D01*
X187422258Y-89679805D01*
X187440301Y-89674670D01*
X187457349Y-89668451D01*
X187467261Y-89664493D01*
X187545519Y-89622519D01*
X187615301Y-89565479D01*
X187670158Y-89499303D01*
X187693974Y-89455999D01*
X187709525Y-89413856D01*
X187719816Y-89366925D01*
X187726197Y-89307517D01*
X187728971Y-89256550D01*
X187729562Y-89155923D01*
X187721400Y-89074236D01*
X187721400Y-89074236D01*
G37*
X187721400Y-89074236D02*
X187703464Y-89006233D01*
X187674728Y-88946660D01*
X187665884Y-88932691D01*
X187621766Y-88879307D01*
X187566655Y-88837901D01*
X187497812Y-88807533D01*
X187412497Y-88787262D01*
X187307971Y-88776149D01*
X187201175Y-88773199D01*
X187032900Y-88773000D01*
X187032900Y-89075881D01*
X187210448Y-89080016D01*
X187280923Y-89081825D01*
X187330723Y-89083999D01*
X187364566Y-89087409D01*
X187387172Y-89092930D01*
X187403260Y-89101433D01*
X187417549Y-89113791D01*
X187423173Y-89119364D01*
X187445816Y-89147292D01*
X187456143Y-89178385D01*
X187458350Y-89217545D01*
X187455681Y-89259935D01*
X187444352Y-89289731D01*
X187419383Y-89319473D01*
X187416841Y-89322031D01*
X187375331Y-89363550D01*
X186800891Y-89367432D01*
X186641052Y-89368221D01*
X186505910Y-89368252D01*
X186394772Y-89367513D01*
X186306947Y-89365992D01*
X186241743Y-89363678D01*
X186198466Y-89360560D01*
X186178218Y-89357215D01*
X186131228Y-89331953D01*
X186099036Y-89291863D01*
X186082454Y-89243032D01*
X186082294Y-89191551D01*
X186099368Y-89143505D01*
X186134489Y-89104985D01*
X186143767Y-89098949D01*
X186161401Y-89090928D01*
X186185637Y-89085156D01*
X186220494Y-89081296D01*
X186269993Y-89079014D01*
X186338152Y-89077972D01*
X186396685Y-89077800D01*
X186613800Y-89077800D01*
X186613800Y-88770704D01*
X186362975Y-88776047D01*
X186260745Y-88778892D01*
X186179830Y-88783227D01*
X186116149Y-88790054D01*
X186065622Y-88800375D01*
X186024170Y-88815191D01*
X185987711Y-88835506D01*
X185952165Y-88862319D01*
X185928786Y-88882656D01*
X185876664Y-88940490D01*
X185840149Y-89008148D01*
X185817491Y-89090071D01*
X185806940Y-89190700D01*
X185806877Y-89192100D01*
X185806027Y-89250298D01*
X185808120Y-89306291D01*
X185812707Y-89349537D01*
X185813842Y-89355527D01*
X185846660Y-89454314D01*
X185899539Y-89537956D01*
X185971478Y-89605505D01*
X186061476Y-89656013D01*
X186164683Y-89687745D01*
X186196520Y-89691375D01*
X186253060Y-89694254D01*
X186333618Y-89696371D01*
X186437508Y-89697717D01*
X186564043Y-89698281D01*
X186712538Y-89698052D01*
X186812383Y-89697526D01*
X186949207Y-89696612D01*
X187063072Y-89695722D01*
X187156418Y-89694732D01*
X187231686Y-89693519D01*
X187291315Y-89691960D01*
X187337747Y-89689932D01*
X187373421Y-89687313D01*
X187400778Y-89683978D01*
X187422258Y-89679805D01*
X187440301Y-89674670D01*
X187457349Y-89668451D01*
X187467261Y-89664493D01*
X187545519Y-89622519D01*
X187615301Y-89565479D01*
X187670158Y-89499303D01*
X187693974Y-89455999D01*
X187709525Y-89413856D01*
X187719816Y-89366925D01*
X187726197Y-89307517D01*
X187728971Y-89256550D01*
X187729562Y-89155923D01*
X187721400Y-89074236D01*
G36*
X187419702Y-86927344D02*
X187417996Y-86878772D01*
X187413878Y-86842975D01*
X187406385Y-86813642D01*
X187394553Y-86784465D01*
X187384653Y-86763760D01*
X187341816Y-86695576D01*
X187286335Y-86642353D01*
X187215630Y-86602751D01*
X187127119Y-86575429D01*
X187018221Y-86559046D01*
X186985275Y-86556345D01*
X186855100Y-86547228D01*
X186855100Y-86865549D01*
X186974751Y-86869950D01*
X187032639Y-86872773D01*
X187071408Y-86877094D01*
X187097337Y-86884364D01*
X187116708Y-86896032D01*
X187127151Y-86905139D01*
X187149161Y-86932287D01*
X187158567Y-86965501D01*
X187159900Y-86994820D01*
X187149917Y-87053483D01*
X187119792Y-87096732D01*
X187075304Y-87122779D01*
X187055360Y-87125641D01*
X187013238Y-87128255D01*
X186952161Y-87130537D01*
X186875351Y-87132403D01*
X186786031Y-87133767D01*
X186687422Y-87134547D01*
X186618916Y-87134700D01*
X186497235Y-87134493D01*
X186398439Y-87133805D01*
X186320015Y-87132541D01*
X186259450Y-87130604D01*
X186214232Y-87127895D01*
X186181847Y-87124320D01*
X186159784Y-87119781D01*
X186150686Y-87116651D01*
X186108484Y-87087073D01*
X186080295Y-87043678D01*
X186068488Y-86993786D01*
X186075434Y-86944716D01*
X186087521Y-86921554D01*
X186111841Y-86894133D01*
X186142977Y-86875110D01*
X186185557Y-86863173D01*
X186244209Y-86857007D01*
X186321070Y-86855300D01*
X186461400Y-86855300D01*
X186461400Y-86550500D01*
X186375675Y-86550597D01*
X186280455Y-86553905D01*
X186187968Y-86562976D01*
X186104854Y-86576852D01*
X186037749Y-86594572D01*
X186017064Y-86602441D01*
X185950082Y-86643324D01*
X185890668Y-86702058D01*
X185845790Y-86771100D01*
X185832713Y-86802030D01*
X185819458Y-86855894D01*
X185810369Y-86924833D01*
X185806067Y-86998772D01*
X185807175Y-87067636D01*
X185813287Y-87116835D01*
X185845972Y-87216099D01*
X185897737Y-87298726D01*
X185968007Y-87364165D01*
X186056203Y-87411865D01*
X186150674Y-87439220D01*
X186189011Y-87443952D01*
X186249478Y-87447430D01*
X186332777Y-87449667D01*
X186439608Y-87450678D01*
X186570675Y-87450477D01*
X186664600Y-87449749D01*
X186782101Y-87448549D01*
X186877134Y-87447340D01*
X186952633Y-87445928D01*
X187011530Y-87444123D01*
X187056757Y-87441732D01*
X187091248Y-87438564D01*
X187117934Y-87434426D01*
X187139747Y-87429126D01*
X187159622Y-87422474D01*
X187175407Y-87416325D01*
X187255668Y-87371548D01*
X187326478Y-87307893D01*
X187381000Y-87231746D01*
X187388535Y-87217250D01*
X187401822Y-87187695D01*
X187410731Y-87159244D01*
X187416132Y-87125756D01*
X187418891Y-87081092D01*
X187419877Y-87019111D01*
X187419960Y-86995000D01*
X187419702Y-86927344D01*
X187419702Y-86927344D01*
G37*
X187419702Y-86927344D02*
X187417996Y-86878772D01*
X187413878Y-86842975D01*
X187406385Y-86813642D01*
X187394553Y-86784465D01*
X187384653Y-86763760D01*
X187341816Y-86695576D01*
X187286335Y-86642353D01*
X187215630Y-86602751D01*
X187127119Y-86575429D01*
X187018221Y-86559046D01*
X186985275Y-86556345D01*
X186855100Y-86547228D01*
X186855100Y-86865549D01*
X186974751Y-86869950D01*
X187032639Y-86872773D01*
X187071408Y-86877094D01*
X187097337Y-86884364D01*
X187116708Y-86896032D01*
X187127151Y-86905139D01*
X187149161Y-86932287D01*
X187158567Y-86965501D01*
X187159900Y-86994820D01*
X187149917Y-87053483D01*
X187119792Y-87096732D01*
X187075304Y-87122779D01*
X187055360Y-87125641D01*
X187013238Y-87128255D01*
X186952161Y-87130537D01*
X186875351Y-87132403D01*
X186786031Y-87133767D01*
X186687422Y-87134547D01*
X186618916Y-87134700D01*
X186497235Y-87134493D01*
X186398439Y-87133805D01*
X186320015Y-87132541D01*
X186259450Y-87130604D01*
X186214232Y-87127895D01*
X186181847Y-87124320D01*
X186159784Y-87119781D01*
X186150686Y-87116651D01*
X186108484Y-87087073D01*
X186080295Y-87043678D01*
X186068488Y-86993786D01*
X186075434Y-86944716D01*
X186087521Y-86921554D01*
X186111841Y-86894133D01*
X186142977Y-86875110D01*
X186185557Y-86863173D01*
X186244209Y-86857007D01*
X186321070Y-86855300D01*
X186461400Y-86855300D01*
X186461400Y-86550500D01*
X186375675Y-86550597D01*
X186280455Y-86553905D01*
X186187968Y-86562976D01*
X186104854Y-86576852D01*
X186037749Y-86594572D01*
X186017064Y-86602441D01*
X185950082Y-86643324D01*
X185890668Y-86702058D01*
X185845790Y-86771100D01*
X185832713Y-86802030D01*
X185819458Y-86855894D01*
X185810369Y-86924833D01*
X185806067Y-86998772D01*
X185807175Y-87067636D01*
X185813287Y-87116835D01*
X185845972Y-87216099D01*
X185897737Y-87298726D01*
X185968007Y-87364165D01*
X186056203Y-87411865D01*
X186150674Y-87439220D01*
X186189011Y-87443952D01*
X186249478Y-87447430D01*
X186332777Y-87449667D01*
X186439608Y-87450678D01*
X186570675Y-87450477D01*
X186664600Y-87449749D01*
X186782101Y-87448549D01*
X186877134Y-87447340D01*
X186952633Y-87445928D01*
X187011530Y-87444123D01*
X187056757Y-87441732D01*
X187091248Y-87438564D01*
X187117934Y-87434426D01*
X187139747Y-87429126D01*
X187159622Y-87422474D01*
X187175407Y-87416325D01*
X187255668Y-87371548D01*
X187326478Y-87307893D01*
X187381000Y-87231746D01*
X187388535Y-87217250D01*
X187401822Y-87187695D01*
X187410731Y-87159244D01*
X187416132Y-87125756D01*
X187418891Y-87081092D01*
X187419877Y-87019111D01*
X187419960Y-86995000D01*
X187419702Y-86927344D01*
G36*
X187409381Y-85899719D02*
X187375704Y-85804380D01*
X187323307Y-85726172D01*
X187252269Y-85665190D01*
X187162672Y-85621529D01*
X187077682Y-85599137D01*
X187036106Y-85594140D01*
X186974083Y-85590216D01*
X186895729Y-85587340D01*
X186805161Y-85585485D01*
X186706497Y-85584626D01*
X186603852Y-85584736D01*
X186501344Y-85585791D01*
X186403089Y-85587763D01*
X186313204Y-85590627D01*
X186235807Y-85594356D01*
X186175013Y-85598927D01*
X186134939Y-85604311D01*
X186131372Y-85605091D01*
X186029503Y-85639572D01*
X185946898Y-85690540D01*
X185883430Y-85758153D01*
X185838972Y-85842569D01*
X185813396Y-85943946D01*
X185807343Y-86006768D01*
X185806207Y-86063882D01*
X185807994Y-86118256D01*
X185812313Y-86159472D01*
X185813252Y-86164335D01*
X185846142Y-86263398D01*
X185898431Y-86346267D01*
X185969291Y-86412106D01*
X186057890Y-86460080D01*
X186129328Y-86482422D01*
X186167512Y-86488092D01*
X186226751Y-86492718D01*
X186303041Y-86496309D01*
X186392381Y-86498874D01*
X186490770Y-86500425D01*
X186594205Y-86500969D01*
X186616149Y-86500875D01*
X186616149Y-86182181D01*
X186498869Y-86182062D01*
X186404214Y-86181632D01*
X186329409Y-86180758D01*
X186271679Y-86179312D01*
X186228248Y-86177161D01*
X186196342Y-86174176D01*
X186173186Y-86170225D01*
X186156005Y-86165179D01*
X186144077Y-86159956D01*
X186110226Y-86136935D01*
X186085362Y-86109657D01*
X186083255Y-86106000D01*
X186072497Y-86064301D01*
X186074654Y-86015116D01*
X186088372Y-85970640D01*
X186100278Y-85952686D01*
X186127531Y-85932724D01*
X186164417Y-85916701D01*
X186168029Y-85915643D01*
X186194104Y-85911982D01*
X186241214Y-85908938D01*
X186305568Y-85906510D01*
X186383375Y-85904693D01*
X186470846Y-85903484D01*
X186564189Y-85902882D01*
X186659614Y-85902882D01*
X186753330Y-85903482D01*
X186841546Y-85904678D01*
X186920474Y-85906469D01*
X186986320Y-85908850D01*
X187035296Y-85911819D01*
X187063610Y-85915374D01*
X187066999Y-85916346D01*
X187118997Y-85944555D01*
X187149087Y-85983122D01*
X187159797Y-86035478D01*
X187159900Y-86042320D01*
X187149917Y-86100983D01*
X187119792Y-86144232D01*
X187075304Y-86170279D01*
X187055367Y-86173136D01*
X187013232Y-86175744D01*
X186952098Y-86178020D01*
X186875167Y-86179880D01*
X186785640Y-86181243D01*
X186686716Y-86182024D01*
X186616149Y-86182181D01*
X186616149Y-86500875D01*
X186698686Y-86500518D01*
X186800209Y-86499080D01*
X186894774Y-86496666D01*
X186978377Y-86493286D01*
X187047019Y-86488948D01*
X187096696Y-86483664D01*
X187115832Y-86480018D01*
X187214762Y-86443265D01*
X187294826Y-86389554D01*
X187355908Y-86319061D01*
X187397890Y-86231962D01*
X187420658Y-86128434D01*
X187424257Y-86012091D01*
X187409381Y-85899719D01*
X187409381Y-85899719D01*
G37*
X187409381Y-85899719D02*
X187375704Y-85804380D01*
X187323307Y-85726172D01*
X187252269Y-85665190D01*
X187162672Y-85621529D01*
X187077682Y-85599137D01*
X187036106Y-85594140D01*
X186974083Y-85590216D01*
X186895729Y-85587340D01*
X186805161Y-85585485D01*
X186706497Y-85584626D01*
X186603852Y-85584736D01*
X186501344Y-85585791D01*
X186403089Y-85587763D01*
X186313204Y-85590627D01*
X186235807Y-85594356D01*
X186175013Y-85598927D01*
X186134939Y-85604311D01*
X186131372Y-85605091D01*
X186029503Y-85639572D01*
X185946898Y-85690540D01*
X185883430Y-85758153D01*
X185838972Y-85842569D01*
X185813396Y-85943946D01*
X185807343Y-86006768D01*
X185806207Y-86063882D01*
X185807994Y-86118256D01*
X185812313Y-86159472D01*
X185813252Y-86164335D01*
X185846142Y-86263398D01*
X185898431Y-86346267D01*
X185969291Y-86412106D01*
X186057890Y-86460080D01*
X186129328Y-86482422D01*
X186167512Y-86488092D01*
X186226751Y-86492718D01*
X186303041Y-86496309D01*
X186392381Y-86498874D01*
X186490770Y-86500425D01*
X186594205Y-86500969D01*
X186616149Y-86500875D01*
X186616149Y-86182181D01*
X186498869Y-86182062D01*
X186404214Y-86181632D01*
X186329409Y-86180758D01*
X186271679Y-86179312D01*
X186228248Y-86177161D01*
X186196342Y-86174176D01*
X186173186Y-86170225D01*
X186156005Y-86165179D01*
X186144077Y-86159956D01*
X186110226Y-86136935D01*
X186085362Y-86109657D01*
X186083255Y-86106000D01*
X186072497Y-86064301D01*
X186074654Y-86015116D01*
X186088372Y-85970640D01*
X186100278Y-85952686D01*
X186127531Y-85932724D01*
X186164417Y-85916701D01*
X186168029Y-85915643D01*
X186194104Y-85911982D01*
X186241214Y-85908938D01*
X186305568Y-85906510D01*
X186383375Y-85904693D01*
X186470846Y-85903484D01*
X186564189Y-85902882D01*
X186659614Y-85902882D01*
X186753330Y-85903482D01*
X186841546Y-85904678D01*
X186920474Y-85906469D01*
X186986320Y-85908850D01*
X187035296Y-85911819D01*
X187063610Y-85915374D01*
X187066999Y-85916346D01*
X187118997Y-85944555D01*
X187149087Y-85983122D01*
X187159797Y-86035478D01*
X187159900Y-86042320D01*
X187149917Y-86100983D01*
X187119792Y-86144232D01*
X187075304Y-86170279D01*
X187055367Y-86173136D01*
X187013232Y-86175744D01*
X186952098Y-86178020D01*
X186875167Y-86179880D01*
X186785640Y-86181243D01*
X186686716Y-86182024D01*
X186616149Y-86182181D01*
X186616149Y-86500875D01*
X186698686Y-86500518D01*
X186800209Y-86499080D01*
X186894774Y-86496666D01*
X186978377Y-86493286D01*
X187047019Y-86488948D01*
X187096696Y-86483664D01*
X187115832Y-86480018D01*
X187214762Y-86443265D01*
X187294826Y-86389554D01*
X187355908Y-86319061D01*
X187397890Y-86231962D01*
X187420658Y-86128434D01*
X187424257Y-86012091D01*
X187409381Y-85899719D01*
G36*
X187413735Y-103686872D02*
X187412742Y-103642332D01*
X187410173Y-103614872D01*
X187405284Y-103600332D01*
X187397328Y-103594550D01*
X187385559Y-103593368D01*
X187385325Y-103593363D01*
X187366151Y-103591816D01*
X187324949Y-103587676D01*
X187264923Y-103581290D01*
X187189275Y-103573009D01*
X187101207Y-103563181D01*
X187003921Y-103552155D01*
X186937650Y-103544557D01*
X186817247Y-103530420D01*
X186721076Y-103518507D01*
X186648082Y-103508658D01*
X186597209Y-103500710D01*
X186567403Y-103494502D01*
X186557609Y-103489874D01*
X186563000Y-103487293D01*
X186586272Y-103483030D01*
X186631178Y-103475207D01*
X186694295Y-103464405D01*
X186772198Y-103451206D01*
X186861461Y-103436193D01*
X186958661Y-103419945D01*
X187007500Y-103411817D01*
X187407550Y-103345336D01*
X187411197Y-103228679D01*
X187412589Y-103173756D01*
X187411890Y-103139096D01*
X187408045Y-103119583D01*
X187400001Y-103110102D01*
X187386705Y-103105536D01*
X187385797Y-103105325D01*
X187366286Y-103101596D01*
X187325077Y-103094272D01*
X187265530Y-103083930D01*
X187191002Y-103071149D01*
X187104852Y-103056506D01*
X187010437Y-103040580D01*
X186975750Y-103034757D01*
X186878675Y-103018425D01*
X186788192Y-103003090D01*
X186707760Y-102989349D01*
X186640841Y-102977795D01*
X186590893Y-102969025D01*
X186561378Y-102963633D01*
X186556650Y-102962683D01*
X186557939Y-102959132D01*
X186583348Y-102953394D01*
X186631709Y-102945636D01*
X186701853Y-102936025D01*
X186792609Y-102924728D01*
X186902807Y-102911911D01*
X186950350Y-102906586D01*
X187052754Y-102895258D01*
X187147405Y-102884845D01*
X187231271Y-102875677D01*
X187301320Y-102868082D01*
X187354519Y-102862391D01*
X187387836Y-102858931D01*
X187398025Y-102857996D01*
X187405515Y-102850125D01*
X187410441Y-102825377D01*
X187413127Y-102780880D01*
X187413900Y-102717600D01*
X187413609Y-102656463D01*
X187412200Y-102616333D01*
X187408877Y-102592819D01*
X187402840Y-102581529D01*
X187393289Y-102578073D01*
X187388485Y-102577900D01*
X187371653Y-102579744D01*
X187331961Y-102585055D01*
X187271665Y-102593507D01*
X187193020Y-102604772D01*
X187098281Y-102618524D01*
X186989704Y-102634434D01*
X186869543Y-102652175D01*
X186740055Y-102671420D01*
X186603493Y-102691842D01*
X186601101Y-102692200D01*
X186465107Y-102712585D01*
X186336678Y-102731806D01*
X186217996Y-102749539D01*
X186111245Y-102765459D01*
X186018606Y-102779241D01*
X185942263Y-102790560D01*
X185884399Y-102799093D01*
X185847196Y-102804513D01*
X185832836Y-102806497D01*
X185832766Y-102806500D01*
X185830246Y-102818359D01*
X185828198Y-102850574D01*
X185826843Y-102898102D01*
X185826400Y-102950855D01*
X185826400Y-103095209D01*
X185994675Y-103121518D01*
X186060831Y-103131800D01*
X186144927Y-103144779D01*
X186239788Y-103159353D01*
X186338240Y-103174419D01*
X186433108Y-103188875D01*
X186439175Y-103189797D01*
X186519451Y-103202300D01*
X186590554Y-103213957D01*
X186648895Y-103224132D01*
X186690886Y-103232188D01*
X186712938Y-103237490D01*
X186715400Y-103238802D01*
X186703338Y-103242453D01*
X186669030Y-103249708D01*
X186615292Y-103260049D01*
X186544942Y-103272958D01*
X186460797Y-103287917D01*
X186365674Y-103304410D01*
X186270900Y-103320489D01*
X185826400Y-103395142D01*
X185826400Y-103538971D01*
X185827238Y-103595997D01*
X185829514Y-103642328D01*
X185832870Y-103672912D01*
X185836564Y-103682800D01*
X185850618Y-103684657D01*
X185887572Y-103690006D01*
X185945218Y-103698516D01*
X186021345Y-103709856D01*
X186113743Y-103723696D01*
X186220202Y-103739704D01*
X186338514Y-103757549D01*
X186466468Y-103776901D01*
X186599694Y-103797100D01*
X186735707Y-103817671D01*
X186864831Y-103837054D01*
X186984776Y-103854913D01*
X187093253Y-103870916D01*
X187187973Y-103884729D01*
X187266647Y-103896017D01*
X187326985Y-103904448D01*
X187366698Y-103909685D01*
X187383280Y-103911400D01*
X187413900Y-103911400D01*
X187413900Y-103752650D01*
X187413735Y-103686872D01*
X187413735Y-103686872D01*
G37*
X187413735Y-103686872D02*
X187412742Y-103642332D01*
X187410173Y-103614872D01*
X187405284Y-103600332D01*
X187397328Y-103594550D01*
X187385559Y-103593368D01*
X187385325Y-103593363D01*
X187366151Y-103591816D01*
X187324949Y-103587676D01*
X187264923Y-103581290D01*
X187189275Y-103573009D01*
X187101207Y-103563181D01*
X187003921Y-103552155D01*
X186937650Y-103544557D01*
X186817247Y-103530420D01*
X186721076Y-103518507D01*
X186648082Y-103508658D01*
X186597209Y-103500710D01*
X186567403Y-103494502D01*
X186557609Y-103489874D01*
X186563000Y-103487293D01*
X186586272Y-103483030D01*
X186631178Y-103475207D01*
X186694295Y-103464405D01*
X186772198Y-103451206D01*
X186861461Y-103436193D01*
X186958661Y-103419945D01*
X187007500Y-103411817D01*
X187407550Y-103345336D01*
X187411197Y-103228679D01*
X187412589Y-103173756D01*
X187411890Y-103139096D01*
X187408045Y-103119583D01*
X187400001Y-103110102D01*
X187386705Y-103105536D01*
X187385797Y-103105325D01*
X187366286Y-103101596D01*
X187325077Y-103094272D01*
X187265530Y-103083930D01*
X187191002Y-103071149D01*
X187104852Y-103056506D01*
X187010437Y-103040580D01*
X186975750Y-103034757D01*
X186878675Y-103018425D01*
X186788192Y-103003090D01*
X186707760Y-102989349D01*
X186640841Y-102977795D01*
X186590893Y-102969025D01*
X186561378Y-102963633D01*
X186556650Y-102962683D01*
X186557939Y-102959132D01*
X186583348Y-102953394D01*
X186631709Y-102945636D01*
X186701853Y-102936025D01*
X186792609Y-102924728D01*
X186902807Y-102911911D01*
X186950350Y-102906586D01*
X187052754Y-102895258D01*
X187147405Y-102884845D01*
X187231271Y-102875677D01*
X187301320Y-102868082D01*
X187354519Y-102862391D01*
X187387836Y-102858931D01*
X187398025Y-102857996D01*
X187405515Y-102850125D01*
X187410441Y-102825377D01*
X187413127Y-102780880D01*
X187413900Y-102717600D01*
X187413609Y-102656463D01*
X187412200Y-102616333D01*
X187408877Y-102592819D01*
X187402840Y-102581529D01*
X187393289Y-102578073D01*
X187388485Y-102577900D01*
X187371653Y-102579744D01*
X187331961Y-102585055D01*
X187271665Y-102593507D01*
X187193020Y-102604772D01*
X187098281Y-102618524D01*
X186989704Y-102634434D01*
X186869543Y-102652175D01*
X186740055Y-102671420D01*
X186603493Y-102691842D01*
X186601101Y-102692200D01*
X186465107Y-102712585D01*
X186336678Y-102731806D01*
X186217996Y-102749539D01*
X186111245Y-102765459D01*
X186018606Y-102779241D01*
X185942263Y-102790560D01*
X185884399Y-102799093D01*
X185847196Y-102804513D01*
X185832836Y-102806497D01*
X185832766Y-102806500D01*
X185830246Y-102818359D01*
X185828198Y-102850574D01*
X185826843Y-102898102D01*
X185826400Y-102950855D01*
X185826400Y-103095209D01*
X185994675Y-103121518D01*
X186060831Y-103131800D01*
X186144927Y-103144779D01*
X186239788Y-103159353D01*
X186338240Y-103174419D01*
X186433108Y-103188875D01*
X186439175Y-103189797D01*
X186519451Y-103202300D01*
X186590554Y-103213957D01*
X186648895Y-103224132D01*
X186690886Y-103232188D01*
X186712938Y-103237490D01*
X186715400Y-103238802D01*
X186703338Y-103242453D01*
X186669030Y-103249708D01*
X186615292Y-103260049D01*
X186544942Y-103272958D01*
X186460797Y-103287917D01*
X186365674Y-103304410D01*
X186270900Y-103320489D01*
X185826400Y-103395142D01*
X185826400Y-103538971D01*
X185827238Y-103595997D01*
X185829514Y-103642328D01*
X185832870Y-103672912D01*
X185836564Y-103682800D01*
X185850618Y-103684657D01*
X185887572Y-103690006D01*
X185945218Y-103698516D01*
X186021345Y-103709856D01*
X186113743Y-103723696D01*
X186220202Y-103739704D01*
X186338514Y-103757549D01*
X186466468Y-103776901D01*
X186599694Y-103797100D01*
X186735707Y-103817671D01*
X186864831Y-103837054D01*
X186984776Y-103854913D01*
X187093253Y-103870916D01*
X187187973Y-103884729D01*
X187266647Y-103896017D01*
X187326985Y-103904448D01*
X187366698Y-103909685D01*
X187383280Y-103911400D01*
X187413900Y-103911400D01*
X187413900Y-103752650D01*
X187413735Y-103686872D01*
G36*
X186966225Y-102191752D02*
X186862563Y-102180364D01*
X186767200Y-102169762D01*
X186683004Y-102160273D01*
X186612842Y-102152227D01*
X186559582Y-102145952D01*
X186526090Y-102141777D01*
X186515208Y-102140077D01*
X186526489Y-102137445D01*
X186560065Y-102131181D01*
X186613168Y-102121766D01*
X186683028Y-102109678D01*
X186766875Y-102095396D01*
X186861941Y-102079401D01*
X186962883Y-102062597D01*
X187413900Y-101987895D01*
X187413900Y-101871004D01*
X187413275Y-101814887D01*
X187410808Y-101779245D01*
X187405616Y-101759168D01*
X187396812Y-101749748D01*
X187391675Y-101747746D01*
X187374111Y-101744205D01*
X187334628Y-101737120D01*
X187276379Y-101727031D01*
X187202516Y-101714474D01*
X187116191Y-101699987D01*
X187020557Y-101684107D01*
X186959875Y-101674111D01*
X186861379Y-101657722D01*
X186771394Y-101642343D01*
X186692857Y-101628508D01*
X186628707Y-101616750D01*
X186581879Y-101607604D01*
X186555313Y-101601604D01*
X186550300Y-101599661D01*
X186562432Y-101596617D01*
X186596815Y-101591373D01*
X186650431Y-101584303D01*
X186720261Y-101575781D01*
X186803289Y-101566183D01*
X186896495Y-101555881D01*
X186947175Y-101550456D01*
X187046428Y-101539855D01*
X187138841Y-101529813D01*
X187221034Y-101520711D01*
X187289624Y-101512928D01*
X187341230Y-101506846D01*
X187372472Y-101502846D01*
X187378975Y-101501828D01*
X187413900Y-101495225D01*
X187413900Y-101357113D01*
X187413322Y-101294773D01*
X187411227Y-101253835D01*
X187407079Y-101230321D01*
X187400340Y-101220250D01*
X187395236Y-101219000D01*
X187379641Y-101220837D01*
X187341155Y-101226128D01*
X187282007Y-101234550D01*
X187204423Y-101245775D01*
X187110631Y-101259480D01*
X187002859Y-101275338D01*
X186883333Y-101293024D01*
X186754280Y-101312212D01*
X186617929Y-101332577D01*
X186613099Y-101333300D01*
X186476782Y-101353681D01*
X186347882Y-101372898D01*
X186228601Y-101390628D01*
X186121139Y-101406546D01*
X186027697Y-101420327D01*
X185950474Y-101431647D01*
X185891671Y-101440182D01*
X185853490Y-101445607D01*
X185838130Y-101447597D01*
X185838013Y-101447600D01*
X185833422Y-101459459D01*
X185829688Y-101491679D01*
X185827215Y-101539224D01*
X185826400Y-101592347D01*
X185826400Y-101737093D01*
X185905775Y-101750440D01*
X185939571Y-101755891D01*
X185994258Y-101764433D01*
X186065607Y-101775418D01*
X186149387Y-101788198D01*
X186241367Y-101802125D01*
X186334400Y-101816114D01*
X186426592Y-101830115D01*
X186511311Y-101843339D01*
X186585082Y-101855216D01*
X186644427Y-101865174D01*
X186685873Y-101872642D01*
X186705942Y-101877048D01*
X186706524Y-101877253D01*
X186700098Y-101881385D01*
X186670835Y-101889060D01*
X186620984Y-101899833D01*
X186552794Y-101913259D01*
X186468512Y-101928892D01*
X186370388Y-101946288D01*
X186277899Y-101962108D01*
X185826401Y-102038150D01*
X185826401Y-102181025D01*
X185826819Y-102237849D01*
X185827954Y-102283960D01*
X185829628Y-102314288D01*
X185831441Y-102323900D01*
X185844779Y-102325745D01*
X185880598Y-102331014D01*
X185936265Y-102339308D01*
X186009150Y-102350229D01*
X186096623Y-102363379D01*
X186196051Y-102378359D01*
X186304804Y-102394771D01*
X186420252Y-102412216D01*
X186539763Y-102430297D01*
X186660707Y-102448613D01*
X186780451Y-102466768D01*
X186896367Y-102484363D01*
X187005822Y-102500998D01*
X187106185Y-102516277D01*
X187194826Y-102529800D01*
X187269114Y-102541168D01*
X187326418Y-102549985D01*
X187364107Y-102555850D01*
X187378975Y-102558258D01*
X187413900Y-102564565D01*
X187413900Y-102402607D01*
X187413901Y-102240649D01*
X186966225Y-102191752D01*
X186966225Y-102191752D01*
G37*
X186966225Y-102191752D02*
X186862563Y-102180364D01*
X186767200Y-102169762D01*
X186683004Y-102160273D01*
X186612842Y-102152227D01*
X186559582Y-102145952D01*
X186526090Y-102141777D01*
X186515208Y-102140077D01*
X186526489Y-102137445D01*
X186560065Y-102131181D01*
X186613168Y-102121766D01*
X186683028Y-102109678D01*
X186766875Y-102095396D01*
X186861941Y-102079401D01*
X186962883Y-102062597D01*
X187413900Y-101987895D01*
X187413900Y-101871004D01*
X187413275Y-101814887D01*
X187410808Y-101779245D01*
X187405616Y-101759168D01*
X187396812Y-101749748D01*
X187391675Y-101747746D01*
X187374111Y-101744205D01*
X187334628Y-101737120D01*
X187276379Y-101727031D01*
X187202516Y-101714474D01*
X187116191Y-101699987D01*
X187020557Y-101684107D01*
X186959875Y-101674111D01*
X186861379Y-101657722D01*
X186771394Y-101642343D01*
X186692857Y-101628508D01*
X186628707Y-101616750D01*
X186581879Y-101607604D01*
X186555313Y-101601604D01*
X186550300Y-101599661D01*
X186562432Y-101596617D01*
X186596815Y-101591373D01*
X186650431Y-101584303D01*
X186720261Y-101575781D01*
X186803289Y-101566183D01*
X186896495Y-101555881D01*
X186947175Y-101550456D01*
X187046428Y-101539855D01*
X187138841Y-101529813D01*
X187221034Y-101520711D01*
X187289624Y-101512928D01*
X187341230Y-101506846D01*
X187372472Y-101502846D01*
X187378975Y-101501828D01*
X187413900Y-101495225D01*
X187413900Y-101357113D01*
X187413322Y-101294773D01*
X187411227Y-101253835D01*
X187407079Y-101230321D01*
X187400340Y-101220250D01*
X187395236Y-101219000D01*
X187379641Y-101220837D01*
X187341155Y-101226128D01*
X187282007Y-101234550D01*
X187204423Y-101245775D01*
X187110631Y-101259480D01*
X187002859Y-101275338D01*
X186883333Y-101293024D01*
X186754280Y-101312212D01*
X186617929Y-101332577D01*
X186613099Y-101333300D01*
X186476782Y-101353681D01*
X186347882Y-101372898D01*
X186228601Y-101390628D01*
X186121139Y-101406546D01*
X186027697Y-101420327D01*
X185950474Y-101431647D01*
X185891671Y-101440182D01*
X185853490Y-101445607D01*
X185838130Y-101447597D01*
X185838013Y-101447600D01*
X185833422Y-101459459D01*
X185829688Y-101491679D01*
X185827215Y-101539224D01*
X185826400Y-101592347D01*
X185826400Y-101737093D01*
X185905775Y-101750440D01*
X185939571Y-101755891D01*
X185994258Y-101764433D01*
X186065607Y-101775418D01*
X186149387Y-101788198D01*
X186241367Y-101802125D01*
X186334400Y-101816114D01*
X186426592Y-101830115D01*
X186511311Y-101843339D01*
X186585082Y-101855216D01*
X186644427Y-101865174D01*
X186685873Y-101872642D01*
X186705942Y-101877048D01*
X186706524Y-101877253D01*
X186700098Y-101881385D01*
X186670835Y-101889060D01*
X186620984Y-101899833D01*
X186552794Y-101913259D01*
X186468512Y-101928892D01*
X186370388Y-101946288D01*
X186277899Y-101962108D01*
X185826401Y-102038150D01*
X185826401Y-102181025D01*
X185826819Y-102237849D01*
X185827954Y-102283960D01*
X185829628Y-102314288D01*
X185831441Y-102323900D01*
X185844779Y-102325745D01*
X185880598Y-102331014D01*
X185936265Y-102339308D01*
X186009150Y-102350229D01*
X186096623Y-102363379D01*
X186196051Y-102378359D01*
X186304804Y-102394771D01*
X186420252Y-102412216D01*
X186539763Y-102430297D01*
X186660707Y-102448613D01*
X186780451Y-102466768D01*
X186896367Y-102484363D01*
X187005822Y-102500998D01*
X187106185Y-102516277D01*
X187194826Y-102529800D01*
X187269114Y-102541168D01*
X187326418Y-102549985D01*
X187364107Y-102555850D01*
X187378975Y-102558258D01*
X187413900Y-102564565D01*
X187413900Y-102402607D01*
X187413901Y-102240649D01*
X186966225Y-102191752D01*
G36*
X187411110Y-101045249D02*
X187407550Y-100882902D01*
X186988450Y-100836390D01*
X186886748Y-100825071D01*
X186792087Y-100814475D01*
X186707694Y-100804967D01*
X186636799Y-100796914D01*
X186582629Y-100790682D01*
X186548412Y-100786637D01*
X186538477Y-100785365D01*
X186543352Y-100782356D01*
X186570756Y-100775767D01*
X186618147Y-100766080D01*
X186682980Y-100753778D01*
X186762712Y-100739342D01*
X186854800Y-100723254D01*
X186956700Y-100705997D01*
X186960752Y-100705321D01*
X187413901Y-100629792D01*
X187413901Y-100512222D01*
X187413900Y-100394651D01*
X187372625Y-100387074D01*
X187350173Y-100383141D01*
X187306061Y-100375576D01*
X187243677Y-100364956D01*
X187166411Y-100351854D01*
X187077651Y-100336847D01*
X186980787Y-100320509D01*
X186931300Y-100312177D01*
X186820234Y-100293102D01*
X186727105Y-100276311D01*
X186653297Y-100262085D01*
X186600193Y-100250706D01*
X186569177Y-100242456D01*
X186561632Y-100237617D01*
X186563000Y-100237098D01*
X186583417Y-100233839D01*
X186625636Y-100228413D01*
X186686191Y-100221219D01*
X186761614Y-100212658D01*
X186848438Y-100203128D01*
X186943196Y-100193029D01*
X186969400Y-100190286D01*
X187065882Y-100180122D01*
X187155531Y-100170475D01*
X187234843Y-100161739D01*
X187300314Y-100154305D01*
X187348441Y-100148567D01*
X187375719Y-100144918D01*
X187378975Y-100144358D01*
X187413900Y-100137482D01*
X187413900Y-99998791D01*
X187413087Y-99942846D01*
X187410882Y-99897661D01*
X187407639Y-99868390D01*
X187404375Y-99859875D01*
X187390461Y-99861659D01*
X187353589Y-99866881D01*
X187295922Y-99875224D01*
X187219622Y-99886369D01*
X187126852Y-99899998D01*
X187019776Y-99915794D01*
X186900555Y-99933438D01*
X186771352Y-99952614D01*
X186634331Y-99973002D01*
X186610625Y-99976535D01*
X185826400Y-100093421D01*
X185826400Y-100378782D01*
X185861325Y-100386020D01*
X185879228Y-100389082D01*
X185918595Y-100395423D01*
X185975783Y-100404480D01*
X186047149Y-100415687D01*
X186129050Y-100428480D01*
X186217843Y-100442295D01*
X186309885Y-100456568D01*
X186401532Y-100470734D01*
X186489143Y-100484229D01*
X186569072Y-100496489D01*
X186637679Y-100506948D01*
X186691318Y-100515044D01*
X186726347Y-100520210D01*
X186737265Y-100521713D01*
X186727512Y-100524056D01*
X186695417Y-100530196D01*
X186643673Y-100539650D01*
X186574972Y-100551938D01*
X186492011Y-100566577D01*
X186397482Y-100583086D01*
X186294079Y-100600983D01*
X186289950Y-100601694D01*
X185832750Y-100680462D01*
X185829170Y-100821633D01*
X185825589Y-100962804D01*
X185860920Y-100969923D01*
X185879758Y-100973091D01*
X185921342Y-100979666D01*
X185983300Y-100989284D01*
X186063257Y-101001581D01*
X186158841Y-101016196D01*
X186267679Y-101032764D01*
X186387399Y-101050923D01*
X186515626Y-101070309D01*
X186613800Y-101085112D01*
X186746999Y-101105189D01*
X186873620Y-101124306D01*
X186991265Y-101142098D01*
X187097532Y-101158200D01*
X187190022Y-101172249D01*
X187266336Y-101183880D01*
X187324073Y-101192728D01*
X187360833Y-101198429D01*
X187373010Y-101200389D01*
X187414669Y-101207596D01*
X187411110Y-101045249D01*
X187411110Y-101045249D01*
G37*
X187411110Y-101045249D02*
X187407550Y-100882902D01*
X186988450Y-100836390D01*
X186886748Y-100825071D01*
X186792087Y-100814475D01*
X186707694Y-100804967D01*
X186636799Y-100796914D01*
X186582629Y-100790682D01*
X186548412Y-100786637D01*
X186538477Y-100785365D01*
X186543352Y-100782356D01*
X186570756Y-100775767D01*
X186618147Y-100766080D01*
X186682980Y-100753778D01*
X186762712Y-100739342D01*
X186854800Y-100723254D01*
X186956700Y-100705997D01*
X186960752Y-100705321D01*
X187413901Y-100629792D01*
X187413901Y-100512222D01*
X187413900Y-100394651D01*
X187372625Y-100387074D01*
X187350173Y-100383141D01*
X187306061Y-100375576D01*
X187243677Y-100364956D01*
X187166411Y-100351854D01*
X187077651Y-100336847D01*
X186980787Y-100320509D01*
X186931300Y-100312177D01*
X186820234Y-100293102D01*
X186727105Y-100276311D01*
X186653297Y-100262085D01*
X186600193Y-100250706D01*
X186569177Y-100242456D01*
X186561632Y-100237617D01*
X186563000Y-100237098D01*
X186583417Y-100233839D01*
X186625636Y-100228413D01*
X186686191Y-100221219D01*
X186761614Y-100212658D01*
X186848438Y-100203128D01*
X186943196Y-100193029D01*
X186969400Y-100190286D01*
X187065882Y-100180122D01*
X187155531Y-100170475D01*
X187234843Y-100161739D01*
X187300314Y-100154305D01*
X187348441Y-100148567D01*
X187375719Y-100144918D01*
X187378975Y-100144358D01*
X187413900Y-100137482D01*
X187413900Y-99998791D01*
X187413087Y-99942846D01*
X187410882Y-99897661D01*
X187407639Y-99868390D01*
X187404375Y-99859875D01*
X187390461Y-99861659D01*
X187353589Y-99866881D01*
X187295922Y-99875224D01*
X187219622Y-99886369D01*
X187126852Y-99899998D01*
X187019776Y-99915794D01*
X186900555Y-99933438D01*
X186771352Y-99952614D01*
X186634331Y-99973002D01*
X186610625Y-99976535D01*
X185826400Y-100093421D01*
X185826400Y-100378782D01*
X185861325Y-100386020D01*
X185879228Y-100389082D01*
X185918595Y-100395423D01*
X185975783Y-100404480D01*
X186047149Y-100415687D01*
X186129050Y-100428480D01*
X186217843Y-100442295D01*
X186309885Y-100456568D01*
X186401532Y-100470734D01*
X186489143Y-100484229D01*
X186569072Y-100496489D01*
X186637679Y-100506948D01*
X186691318Y-100515044D01*
X186726347Y-100520210D01*
X186737265Y-100521713D01*
X186727512Y-100524056D01*
X186695417Y-100530196D01*
X186643673Y-100539650D01*
X186574972Y-100551938D01*
X186492011Y-100566577D01*
X186397482Y-100583086D01*
X186294079Y-100600983D01*
X186289950Y-100601694D01*
X185832750Y-100680462D01*
X185829170Y-100821633D01*
X185825589Y-100962804D01*
X185860920Y-100969923D01*
X185879758Y-100973091D01*
X185921342Y-100979666D01*
X185983300Y-100989284D01*
X186063257Y-101001581D01*
X186158841Y-101016196D01*
X186267679Y-101032764D01*
X186387399Y-101050923D01*
X186515626Y-101070309D01*
X186613800Y-101085112D01*
X186746999Y-101105189D01*
X186873620Y-101124306D01*
X186991265Y-101142098D01*
X187097532Y-101158200D01*
X187190022Y-101172249D01*
X187266336Y-101183880D01*
X187324073Y-101192728D01*
X187360833Y-101198429D01*
X187373010Y-101200389D01*
X187414669Y-101207596D01*
X187411110Y-101045249D01*
G36*
X185826400Y-99555300D02*
X185826400Y-99872800D01*
X186143900Y-99872800D01*
X186143900Y-99555300D01*
X185826400Y-99555300D01*
X185826400Y-99555300D01*
G37*
X185826400Y-99555300D02*
X185826400Y-99872800D01*
X186143900Y-99872800D01*
X186143900Y-99555300D01*
X185826400Y-99555300D01*
G36*
X187715950Y-99113975D02*
X187713445Y-98998752D01*
X187709732Y-98905605D01*
X187704046Y-98831217D01*
X187695622Y-98772266D01*
X187683694Y-98725435D01*
X187667499Y-98687404D01*
X187646271Y-98654854D01*
X187619244Y-98624465D01*
X187598558Y-98604624D01*
X187566188Y-98577015D01*
X187533397Y-98555119D01*
X187496810Y-98538292D01*
X187453055Y-98525890D01*
X187398757Y-98517270D01*
X187330543Y-98511787D01*
X187245039Y-98508798D01*
X187138871Y-98507658D01*
X187090050Y-98507576D01*
X186974437Y-98508192D01*
X186880854Y-98510447D01*
X186805953Y-98514952D01*
X186746387Y-98522316D01*
X186698806Y-98533150D01*
X186659863Y-98548064D01*
X186626209Y-98567668D01*
X186594495Y-98592573D01*
X186586956Y-98599267D01*
X186537246Y-98654288D01*
X186501054Y-98719054D01*
X186477177Y-98797251D01*
X186464415Y-98892563D01*
X186461401Y-98984426D01*
X186461400Y-99098100D01*
X185826400Y-99098100D01*
X185826400Y-99428300D01*
X187439300Y-99428300D01*
X187439300Y-99098100D01*
X186715400Y-99098100D01*
X186715420Y-99025075D01*
X186720546Y-98965218D01*
X186734286Y-98914961D01*
X186737645Y-98907600D01*
X186752210Y-98883673D01*
X186771170Y-98865375D01*
X186797874Y-98851963D01*
X186835672Y-98842693D01*
X186887913Y-98836824D01*
X186957947Y-98833609D01*
X187049122Y-98832307D01*
X187077350Y-98832188D01*
X187182831Y-98832608D01*
X187265651Y-98835402D01*
X187328527Y-98841871D01*
X187374179Y-98853319D01*
X187405321Y-98871048D01*
X187424672Y-98896359D01*
X187434949Y-98930556D01*
X187438869Y-98974941D01*
X187439300Y-99005676D01*
X187439300Y-99098100D01*
X187439300Y-99428300D01*
X187721270Y-99428300D01*
X187715950Y-99113975D01*
X187715950Y-99113975D01*
G37*
X187715950Y-99113975D02*
X187713445Y-98998752D01*
X187709732Y-98905605D01*
X187704046Y-98831217D01*
X187695622Y-98772266D01*
X187683694Y-98725435D01*
X187667499Y-98687404D01*
X187646271Y-98654854D01*
X187619244Y-98624465D01*
X187598558Y-98604624D01*
X187566188Y-98577015D01*
X187533397Y-98555119D01*
X187496810Y-98538292D01*
X187453055Y-98525890D01*
X187398757Y-98517270D01*
X187330543Y-98511787D01*
X187245039Y-98508798D01*
X187138871Y-98507658D01*
X187090050Y-98507576D01*
X186974437Y-98508192D01*
X186880854Y-98510447D01*
X186805953Y-98514952D01*
X186746387Y-98522316D01*
X186698806Y-98533150D01*
X186659863Y-98548064D01*
X186626209Y-98567668D01*
X186594495Y-98592573D01*
X186586956Y-98599267D01*
X186537246Y-98654288D01*
X186501054Y-98719054D01*
X186477177Y-98797251D01*
X186464415Y-98892563D01*
X186461401Y-98984426D01*
X186461400Y-99098100D01*
X185826400Y-99098100D01*
X185826400Y-99428300D01*
X187439300Y-99428300D01*
X187439300Y-99098100D01*
X186715400Y-99098100D01*
X186715420Y-99025075D01*
X186720546Y-98965218D01*
X186734286Y-98914961D01*
X186737645Y-98907600D01*
X186752210Y-98883673D01*
X186771170Y-98865375D01*
X186797874Y-98851963D01*
X186835672Y-98842693D01*
X186887913Y-98836824D01*
X186957947Y-98833609D01*
X187049122Y-98832307D01*
X187077350Y-98832188D01*
X187182831Y-98832608D01*
X187265651Y-98835402D01*
X187328527Y-98841871D01*
X187374179Y-98853319D01*
X187405321Y-98871048D01*
X187424672Y-98896359D01*
X187434949Y-98930556D01*
X187438869Y-98974941D01*
X187439300Y-99005676D01*
X187439300Y-99098100D01*
X187439300Y-99428300D01*
X187721270Y-99428300D01*
X187715950Y-99113975D01*
G36*
X187270444Y-98082100D02*
X187313404Y-98053150D01*
X187355907Y-98013848D01*
X187390084Y-97962636D01*
X187410414Y-97908933D01*
X187413692Y-97882075D01*
X187413900Y-97840800D01*
X187045600Y-97840800D01*
X187045600Y-97911281D01*
X187038392Y-97981864D01*
X187016501Y-98032244D01*
X186979533Y-98063219D01*
X186967891Y-98068024D01*
X186943277Y-98072071D01*
X186894502Y-98075427D01*
X186821342Y-98078095D01*
X186723571Y-98080081D01*
X186600964Y-98081391D01*
X186453294Y-98082030D01*
X186376955Y-98082100D01*
X185826400Y-98082100D01*
X185826400Y-98399600D01*
X187413900Y-98399600D01*
X187413900Y-98082100D01*
X187270444Y-98082100D01*
X187270444Y-98082100D01*
G37*
X187270444Y-98082100D02*
X187313404Y-98053150D01*
X187355907Y-98013848D01*
X187390084Y-97962636D01*
X187410414Y-97908933D01*
X187413692Y-97882075D01*
X187413900Y-97840800D01*
X187045600Y-97840800D01*
X187045600Y-97911281D01*
X187038392Y-97981864D01*
X187016501Y-98032244D01*
X186979533Y-98063219D01*
X186967891Y-98068024D01*
X186943277Y-98072071D01*
X186894502Y-98075427D01*
X186821342Y-98078095D01*
X186723571Y-98080081D01*
X186600964Y-98081391D01*
X186453294Y-98082030D01*
X186376955Y-98082100D01*
X185826400Y-98082100D01*
X185826400Y-98399600D01*
X187413900Y-98399600D01*
X187413900Y-98082100D01*
X187270444Y-98082100D01*
G36*
X187413900Y-93929200D02*
X187413900Y-93738700D01*
X187159900Y-93738700D01*
X187159900Y-93929200D01*
X186647978Y-93929200D01*
X186515366Y-93929050D01*
X186405994Y-93928554D01*
X186317708Y-93927640D01*
X186248347Y-93926241D01*
X186195757Y-93924285D01*
X186157779Y-93921703D01*
X186132257Y-93918425D01*
X186117032Y-93914381D01*
X186112337Y-93911857D01*
X186096795Y-93891772D01*
X186087189Y-93855798D01*
X186082983Y-93816607D01*
X186077348Y-93738700D01*
X185826400Y-93738700D01*
X185827258Y-93862525D01*
X185829398Y-93924499D01*
X185834387Y-93984577D01*
X185841317Y-94033062D01*
X185844611Y-94047724D01*
X185868964Y-94113638D01*
X185904417Y-94161952D01*
X185956750Y-94199903D01*
X185973111Y-94208600D01*
X186035950Y-94240350D01*
X187159900Y-94248148D01*
X187159900Y-94361000D01*
X187413900Y-94361000D01*
X187413900Y-94246700D01*
X187718700Y-94246700D01*
X187718700Y-93929200D01*
X187413900Y-93929200D01*
X187413900Y-93929200D01*
G37*
X187413900Y-93929200D02*
X187413900Y-93738700D01*
X187159900Y-93738700D01*
X187159900Y-93929200D01*
X186647978Y-93929200D01*
X186515366Y-93929050D01*
X186405994Y-93928554D01*
X186317708Y-93927640D01*
X186248347Y-93926241D01*
X186195757Y-93924285D01*
X186157779Y-93921703D01*
X186132257Y-93918425D01*
X186117032Y-93914381D01*
X186112337Y-93911857D01*
X186096795Y-93891772D01*
X186087189Y-93855798D01*
X186082983Y-93816607D01*
X186077348Y-93738700D01*
X185826400Y-93738700D01*
X185827258Y-93862525D01*
X185829398Y-93924499D01*
X185834387Y-93984577D01*
X185841317Y-94033062D01*
X185844611Y-94047724D01*
X185868964Y-94113638D01*
X185904417Y-94161952D01*
X185956750Y-94199903D01*
X185973111Y-94208600D01*
X186035950Y-94240350D01*
X187159900Y-94248148D01*
X187159900Y-94361000D01*
X187413900Y-94361000D01*
X187413900Y-94246700D01*
X187718700Y-94246700D01*
X187718700Y-93929200D01*
X187413900Y-93929200D01*
G36*
X187715942Y-92313125D02*
X187713334Y-92198780D01*
X187709428Y-92106486D01*
X187703492Y-92032899D01*
X187694794Y-91974677D01*
X187682601Y-91928477D01*
X187666181Y-91890957D01*
X187644802Y-91858772D01*
X187617733Y-91828581D01*
X187607657Y-91818707D01*
X187569694Y-91786040D01*
X187529195Y-91759975D01*
X187483004Y-91739918D01*
X187427968Y-91725275D01*
X187360930Y-91715455D01*
X187278737Y-91709863D01*
X187178233Y-91707906D01*
X187056263Y-91708991D01*
X187027173Y-91709560D01*
X186925117Y-91712220D01*
X186844485Y-91715884D01*
X186781304Y-91721254D01*
X186731601Y-91729035D01*
X186691401Y-91739930D01*
X186656731Y-91754643D01*
X186623618Y-91773877D01*
X186609035Y-91783598D01*
X186557738Y-91827938D01*
X186518879Y-91883699D01*
X186491210Y-91954080D01*
X186473483Y-92042280D01*
X186464448Y-92151498D01*
X186464329Y-92154375D01*
X186458270Y-92303600D01*
X185826400Y-92303600D01*
X185826400Y-92621100D01*
X187439300Y-92621100D01*
X187439300Y-92303600D01*
X186715400Y-92303600D01*
X186715400Y-92233343D01*
X186718904Y-92184033D01*
X186727818Y-92137371D01*
X186733993Y-92118586D01*
X186747088Y-92092958D01*
X186764430Y-92073251D01*
X186789255Y-92058707D01*
X186824800Y-92048573D01*
X186874301Y-92042090D01*
X186940994Y-92038503D01*
X187028117Y-92037058D01*
X187083701Y-92036900D01*
X187188057Y-92037547D01*
X187269778Y-92040398D01*
X187331617Y-92046824D01*
X187376324Y-92058194D01*
X187406652Y-92075877D01*
X187425352Y-92101243D01*
X187435176Y-92135661D01*
X187438876Y-92180501D01*
X187439300Y-92213866D01*
X187439300Y-92303600D01*
X187439300Y-92621100D01*
X187721306Y-92621100D01*
X187715942Y-92313125D01*
X187715942Y-92313125D01*
G37*
X187715942Y-92313125D02*
X187713334Y-92198780D01*
X187709428Y-92106486D01*
X187703492Y-92032899D01*
X187694794Y-91974677D01*
X187682601Y-91928477D01*
X187666181Y-91890957D01*
X187644802Y-91858772D01*
X187617733Y-91828581D01*
X187607657Y-91818707D01*
X187569694Y-91786040D01*
X187529195Y-91759975D01*
X187483004Y-91739918D01*
X187427968Y-91725275D01*
X187360930Y-91715455D01*
X187278737Y-91709863D01*
X187178233Y-91707906D01*
X187056263Y-91708991D01*
X187027173Y-91709560D01*
X186925117Y-91712220D01*
X186844485Y-91715884D01*
X186781304Y-91721254D01*
X186731601Y-91729035D01*
X186691401Y-91739930D01*
X186656731Y-91754643D01*
X186623618Y-91773877D01*
X186609035Y-91783598D01*
X186557738Y-91827938D01*
X186518879Y-91883699D01*
X186491210Y-91954080D01*
X186473483Y-92042280D01*
X186464448Y-92151498D01*
X186464329Y-92154375D01*
X186458270Y-92303600D01*
X185826400Y-92303600D01*
X185826400Y-92621100D01*
X187439300Y-92621100D01*
X187439300Y-92303600D01*
X186715400Y-92303600D01*
X186715400Y-92233343D01*
X186718904Y-92184033D01*
X186727818Y-92137371D01*
X186733993Y-92118586D01*
X186747088Y-92092958D01*
X186764430Y-92073251D01*
X186789255Y-92058707D01*
X186824800Y-92048573D01*
X186874301Y-92042090D01*
X186940994Y-92038503D01*
X187028117Y-92037058D01*
X187083701Y-92036900D01*
X187188057Y-92037547D01*
X187269778Y-92040398D01*
X187331617Y-92046824D01*
X187376324Y-92058194D01*
X187406652Y-92075877D01*
X187425352Y-92101243D01*
X187435176Y-92135661D01*
X187438876Y-92180501D01*
X187439300Y-92213866D01*
X187439300Y-92303600D01*
X187439300Y-92621100D01*
X187721306Y-92621100D01*
X187715942Y-92313125D01*
G36*
X187439300Y-90830400D02*
X187439300Y-91274900D01*
X186918600Y-91274900D01*
X186918600Y-90957400D01*
X186651900Y-90957400D01*
X186651900Y-91274900D01*
X186093100Y-91274900D01*
X186093100Y-90830400D01*
X185826400Y-90830400D01*
X185826400Y-91605100D01*
X187718700Y-91605100D01*
X187718700Y-90830400D01*
X187439300Y-90830400D01*
X187439300Y-90830400D01*
G37*
X187439300Y-90830400D02*
X187439300Y-91274900D01*
X186918600Y-91274900D01*
X186918600Y-90957400D01*
X186651900Y-90957400D01*
X186651900Y-91274900D01*
X186093100Y-91274900D01*
X186093100Y-90830400D01*
X185826400Y-90830400D01*
X185826400Y-91605100D01*
X187718700Y-91605100D01*
X187718700Y-90830400D01*
X187439300Y-90830400D01*
G36*
X187718426Y-87835431D02*
X187717225Y-87791083D01*
X187714527Y-87764369D01*
X187709765Y-87751404D01*
X187702369Y-87748308D01*
X187696475Y-87749558D01*
X187680103Y-87754532D01*
X187641903Y-87766055D01*
X187584376Y-87783372D01*
X187510023Y-87805734D01*
X187421343Y-87832388D01*
X187320839Y-87862582D01*
X187211011Y-87895564D01*
X187102750Y-87928063D01*
X186531250Y-88099600D01*
X185826400Y-88099900D01*
X185826400Y-88430100D01*
X186555643Y-88430100D01*
X187123657Y-88601550D01*
X187239124Y-88636318D01*
X187347286Y-88668723D01*
X187445688Y-88698040D01*
X187531873Y-88723547D01*
X187603386Y-88744518D01*
X187657771Y-88760229D01*
X187692571Y-88769958D01*
X187705186Y-88773000D01*
X187711435Y-88760433D01*
X187715788Y-88723123D01*
X187718196Y-88661662D01*
X187718700Y-88603897D01*
X187718700Y-88434793D01*
X187391675Y-88347963D01*
X187303912Y-88324521D01*
X187223862Y-88302872D01*
X187154923Y-88283956D01*
X187100489Y-88268714D01*
X187063955Y-88258084D01*
X187048861Y-88253085D01*
X187055924Y-88247699D01*
X187084374Y-88237008D01*
X187130995Y-88222018D01*
X187192571Y-88203739D01*
X187265887Y-88183177D01*
X187309211Y-88171484D01*
X187393673Y-88148933D01*
X187473961Y-88127396D01*
X187545402Y-88108136D01*
X187603325Y-88092412D01*
X187643056Y-88081486D01*
X187652026Y-88078965D01*
X187718701Y-88059998D01*
X187718701Y-87901294D01*
X187718426Y-87835431D01*
X187718426Y-87835431D01*
G37*
X187718426Y-87835431D02*
X187717225Y-87791083D01*
X187714527Y-87764369D01*
X187709765Y-87751404D01*
X187702369Y-87748308D01*
X187696475Y-87749558D01*
X187680103Y-87754532D01*
X187641903Y-87766055D01*
X187584376Y-87783372D01*
X187510023Y-87805734D01*
X187421343Y-87832388D01*
X187320839Y-87862582D01*
X187211011Y-87895564D01*
X187102750Y-87928063D01*
X186531250Y-88099600D01*
X185826400Y-88099900D01*
X185826400Y-88430100D01*
X186555643Y-88430100D01*
X187123657Y-88601550D01*
X187239124Y-88636318D01*
X187347286Y-88668723D01*
X187445688Y-88698040D01*
X187531873Y-88723547D01*
X187603386Y-88744518D01*
X187657771Y-88760229D01*
X187692571Y-88769958D01*
X187705186Y-88773000D01*
X187711435Y-88760433D01*
X187715788Y-88723123D01*
X187718196Y-88661662D01*
X187718700Y-88603897D01*
X187718700Y-88434793D01*
X187391675Y-88347963D01*
X187303912Y-88324521D01*
X187223862Y-88302872D01*
X187154923Y-88283956D01*
X187100489Y-88268714D01*
X187063955Y-88258084D01*
X187048861Y-88253085D01*
X187055924Y-88247699D01*
X187084374Y-88237008D01*
X187130995Y-88222018D01*
X187192571Y-88203739D01*
X187265887Y-88183177D01*
X187309211Y-88171484D01*
X187393673Y-88148933D01*
X187473961Y-88127396D01*
X187545402Y-88108136D01*
X187603325Y-88092412D01*
X187643056Y-88081486D01*
X187652026Y-88078965D01*
X187718701Y-88059998D01*
X187718701Y-87901294D01*
X187718426Y-87835431D01*
G36*
X185826400Y-87541100D02*
X185826400Y-87858600D01*
X186143900Y-87858600D01*
X186143900Y-87541100D01*
X185826400Y-87541100D01*
X185826400Y-87541100D01*
G37*
X185826400Y-87541100D02*
X185826400Y-87858600D01*
X186143900Y-87858600D01*
X186143900Y-87541100D01*
X185826400Y-87541100D01*
G36*
X187417982Y-84802253D02*
X187391598Y-84734978D01*
X187346655Y-84683351D01*
X187317298Y-84663087D01*
X187261236Y-84630232D01*
X187313103Y-84592659D01*
X187368534Y-84537145D01*
X187405946Y-84464825D01*
X187424502Y-84377603D01*
X187426476Y-84335185D01*
X187417036Y-84245941D01*
X187388363Y-84173260D01*
X187340343Y-84116984D01*
X187272859Y-84076951D01*
X187229750Y-84062424D01*
X187203191Y-84058920D01*
X187151644Y-84055917D01*
X187075521Y-84053422D01*
X186975229Y-84051443D01*
X186851177Y-84049989D01*
X186703774Y-84049066D01*
X186533429Y-84048682D01*
X186502675Y-84048671D01*
X185826400Y-84048600D01*
X185826400Y-84353400D01*
X186432825Y-84353471D01*
X186591478Y-84353789D01*
X186729945Y-84354689D01*
X186847347Y-84356155D01*
X186942807Y-84358168D01*
X187015446Y-84360709D01*
X187064387Y-84363761D01*
X187087890Y-84367048D01*
X187132559Y-84391000D01*
X187159502Y-84430281D01*
X187166306Y-84479955D01*
X187159468Y-84513460D01*
X187153445Y-84531171D01*
X187146652Y-84546100D01*
X187137014Y-84558486D01*
X187122454Y-84568567D01*
X187100898Y-84576578D01*
X187070268Y-84582759D01*
X187028490Y-84587346D01*
X186973489Y-84590577D01*
X186903187Y-84592689D01*
X186815510Y-84593920D01*
X186708381Y-84594507D01*
X186579726Y-84594689D01*
X186449331Y-84594700D01*
X185826400Y-84594700D01*
X185826400Y-84912200D01*
X186451875Y-84912388D01*
X186599707Y-84912460D01*
X186724251Y-84912717D01*
X186827618Y-84913369D01*
X186911921Y-84914621D01*
X186979272Y-84916681D01*
X187031782Y-84919756D01*
X187071563Y-84924055D01*
X187100728Y-84929784D01*
X187121388Y-84937150D01*
X187135656Y-84946361D01*
X187145642Y-84957625D01*
X187153459Y-84971148D01*
X187158635Y-84981785D01*
X187169012Y-85010152D01*
X187168312Y-85037397D01*
X187158635Y-85070313D01*
X187140979Y-85107638D01*
X187115669Y-85128967D01*
X187096400Y-85136909D01*
X187076161Y-85140806D01*
X187039276Y-85144095D01*
X186984449Y-85146807D01*
X186910384Y-85148975D01*
X186815783Y-85150629D01*
X186699351Y-85151800D01*
X186559791Y-85152521D01*
X186439175Y-85152784D01*
X185826400Y-85153500D01*
X185826400Y-85471000D01*
X187413900Y-85471000D01*
X187413900Y-85153500D01*
X187270390Y-85153500D01*
X187321410Y-85116542D01*
X187376708Y-85061508D01*
X187411654Y-84991354D01*
X187426160Y-84906273D01*
X187426600Y-84886800D01*
X187417982Y-84802253D01*
X187417982Y-84802253D01*
G37*
X187417982Y-84802253D02*
X187391598Y-84734978D01*
X187346655Y-84683351D01*
X187317298Y-84663087D01*
X187261236Y-84630232D01*
X187313103Y-84592659D01*
X187368534Y-84537145D01*
X187405946Y-84464825D01*
X187424502Y-84377603D01*
X187426476Y-84335185D01*
X187417036Y-84245941D01*
X187388363Y-84173260D01*
X187340343Y-84116984D01*
X187272859Y-84076951D01*
X187229750Y-84062424D01*
X187203191Y-84058920D01*
X187151644Y-84055917D01*
X187075521Y-84053422D01*
X186975229Y-84051443D01*
X186851177Y-84049989D01*
X186703774Y-84049066D01*
X186533429Y-84048682D01*
X186502675Y-84048671D01*
X185826400Y-84048600D01*
X185826400Y-84353400D01*
X186432825Y-84353471D01*
X186591478Y-84353789D01*
X186729945Y-84354689D01*
X186847347Y-84356155D01*
X186942807Y-84358168D01*
X187015446Y-84360709D01*
X187064387Y-84363761D01*
X187087890Y-84367048D01*
X187132559Y-84391000D01*
X187159502Y-84430281D01*
X187166306Y-84479955D01*
X187159468Y-84513460D01*
X187153445Y-84531171D01*
X187146652Y-84546100D01*
X187137014Y-84558486D01*
X187122454Y-84568567D01*
X187100898Y-84576578D01*
X187070268Y-84582759D01*
X187028490Y-84587346D01*
X186973489Y-84590577D01*
X186903187Y-84592689D01*
X186815510Y-84593920D01*
X186708381Y-84594507D01*
X186579726Y-84594689D01*
X186449331Y-84594700D01*
X185826400Y-84594700D01*
X185826400Y-84912200D01*
X186451875Y-84912388D01*
X186599707Y-84912460D01*
X186724251Y-84912717D01*
X186827618Y-84913369D01*
X186911921Y-84914621D01*
X186979272Y-84916681D01*
X187031782Y-84919756D01*
X187071563Y-84924055D01*
X187100728Y-84929784D01*
X187121388Y-84937150D01*
X187135656Y-84946361D01*
X187145642Y-84957625D01*
X187153459Y-84971148D01*
X187158635Y-84981785D01*
X187169012Y-85010152D01*
X187168312Y-85037397D01*
X187158635Y-85070313D01*
X187140979Y-85107638D01*
X187115669Y-85128967D01*
X187096400Y-85136909D01*
X187076161Y-85140806D01*
X187039276Y-85144095D01*
X186984449Y-85146807D01*
X186910384Y-85148975D01*
X186815783Y-85150629D01*
X186699351Y-85151800D01*
X186559791Y-85152521D01*
X186439175Y-85152784D01*
X185826400Y-85153500D01*
X185826400Y-85471000D01*
X187413900Y-85471000D01*
X187413900Y-85153500D01*
X187270390Y-85153500D01*
X187321410Y-85116542D01*
X187376708Y-85061508D01*
X187411654Y-84991354D01*
X187426160Y-84906273D01*
X187426600Y-84886800D01*
X187417982Y-84802253D01*
G36*
X187464700Y-96418400D02*
X187464700Y-96735900D01*
X187718700Y-96735900D01*
X187718700Y-96418400D01*
X187464700Y-96418400D01*
X187464700Y-96418400D01*
G37*
X187464700Y-96418400D02*
X187464700Y-96735900D01*
X187718700Y-96735900D01*
X187718700Y-96418400D01*
X187464700Y-96418400D01*
D15*
X115825000Y-124746190D02*
X115825000Y-124246190D01*
X115594047Y-124246190D01*
X115455476Y-124270000D01*
X115363095Y-124317619D01*
X115316904Y-124365238D01*
X115270714Y-124460476D01*
X115270714Y-124531905D01*
X115316904Y-124627143D01*
X115363095Y-124674762D01*
X115455476Y-124722381D01*
X115594047Y-124746190D01*
X115825000Y-124746190D01*
X114855000Y-124484286D02*
X114531666Y-124484286D01*
X114393095Y-124746190D02*
X114855000Y-124746190D01*
X114855000Y-124246190D01*
X114393095Y-124246190D01*
X114023571Y-124722381D02*
X113885000Y-124746190D01*
X113654047Y-124746190D01*
X113561666Y-124722381D01*
X113515476Y-124698571D01*
X113469285Y-124650952D01*
X113469285Y-124603333D01*
X113515476Y-124555714D01*
X113561666Y-124531905D01*
X113654047Y-124508095D01*
X113838809Y-124484286D01*
X113931190Y-124460476D01*
X113977381Y-124436667D01*
X114023571Y-124389048D01*
X114023571Y-124341429D01*
X113977381Y-124293810D01*
X113931190Y-124270000D01*
X113838809Y-124246190D01*
X113607857Y-124246190D01*
X113469285Y-124270000D01*
X113053571Y-124746190D02*
X113053571Y-124246190D01*
X112083570Y-124270000D02*
X112175951Y-124246190D01*
X112314523Y-124246190D01*
X112453094Y-124270000D01*
X112545475Y-124317619D01*
X112591666Y-124365238D01*
X112637856Y-124460476D01*
X112637856Y-124531905D01*
X112591666Y-124627143D01*
X112545475Y-124674762D01*
X112453094Y-124722381D01*
X112314523Y-124746190D01*
X112222142Y-124746190D01*
X112083570Y-124722381D01*
X112037380Y-124698571D01*
X112037380Y-124531905D01*
X112222142Y-124531905D01*
X111621666Y-124746190D02*
X111621666Y-124246190D01*
X111067380Y-124746190D01*
X111067380Y-124246190D01*
X110605476Y-124484286D02*
X110282142Y-124484286D01*
X110143571Y-124746190D02*
X110605476Y-124746190D01*
X110605476Y-124246190D01*
X110143571Y-124246190D01*
X109727857Y-124746190D02*
X109727857Y-124246190D01*
X109496904Y-124246190D01*
X109358333Y-124270000D01*
X109265952Y-124317619D01*
X109219761Y-124365238D01*
X109173571Y-124460476D01*
X109173571Y-124531905D01*
X109219761Y-124627143D01*
X109265952Y-124674762D01*
X109358333Y-124722381D01*
X109496904Y-124746190D01*
X109727857Y-124746190D01*
X108111190Y-124246190D02*
X107880237Y-124746190D01*
X107695475Y-124389048D01*
X107510713Y-124746190D01*
X107279761Y-124246190D01*
X106910238Y-124746190D02*
X106910238Y-124246190D01*
X106586904Y-124246190D02*
X106032618Y-124246190D01*
X106309761Y-124746190D02*
X106309761Y-124246190D01*
X105709285Y-124746190D02*
X105709285Y-124246190D01*
X105709285Y-124484286D02*
X105154999Y-124484286D01*
X105154999Y-124746190D02*
X105154999Y-124246190D01*
M02*
