M48
;DRILL file {KiCad 4.0.5} date 11/08/17 14:32:31
;FORMAT={-:-/ absolute / inch / decimal}
FMAT,2
INCH,TZ
T1C0.016
T2C0.018
T3C0.030
T4C0.031
T5C0.035
T6C0.039
T7C0.040
%
G90
G05
M72
T1
X2.725Y-2.4
X2.725Y-2.5
X2.725Y-2.6
X2.725Y-2.7
X2.725Y-2.9
X2.725Y-3.
X2.725Y-3.1
X2.725Y-3.2
X2.725Y-3.3
X2.725Y-3.4
X2.725Y-3.5
X2.725Y-3.6
X2.725Y-3.7
X2.725Y-3.8
X2.725Y-3.9
X2.725Y-4.
X2.725Y-4.1
X2.725Y-4.2
X2.725Y-4.3
X2.725Y-4.4
X2.725Y-4.5
X2.725Y-4.6
X2.725Y-4.7
X2.725Y-4.8
X2.725Y-4.9
X2.725Y-5.
X2.725Y-5.1
X2.8Y-2.45
X2.8Y-2.65
X2.8Y-3.05
X2.8Y-3.15
X2.8Y-3.25
X2.8Y-3.35
X2.8Y-3.45
X2.8Y-3.55
X2.8Y-3.75
X2.8Y-3.85
X2.8Y-3.95
X2.8Y-4.05
X2.8Y-4.15
X2.8Y-4.25
X2.8Y-4.35
X2.8Y-4.45
X2.8Y-4.55
X2.8Y-4.65
X2.8Y-4.75
X2.8Y-4.85
X2.8Y-4.95
X2.8Y-5.05
X2.875Y-2.4
X2.875Y-2.5
X2.875Y-2.6
X2.875Y-2.7
X2.875Y-3.1
X2.875Y-3.2
X2.875Y-3.3
X2.875Y-3.4
X2.875Y-3.5
X2.875Y-3.6
X2.875Y-3.7
X2.875Y-3.8
X2.875Y-3.9
X2.875Y-4.
X2.875Y-4.1
X2.875Y-4.2
X2.875Y-4.3
X2.875Y-4.4
X2.875Y-4.5
X2.875Y-4.6
X2.875Y-4.7
X2.875Y-4.8
X2.875Y-4.9
X2.875Y-5.
X2.875Y-5.1
X2.925Y-2.325
X2.925Y-4.25
X3.Y-2.75
X3.Y-2.975
X3.075Y-3.05
X3.075Y-3.15
X3.075Y-3.25
X3.075Y-3.35
X3.075Y-3.45
X3.075Y-3.55
X3.075Y-3.75
X3.075Y-3.85
X3.075Y-3.95
X3.075Y-4.05
X3.075Y-4.15
X3.075Y-4.25
X3.075Y-4.35
X3.075Y-4.45
X3.075Y-4.55
X3.075Y-4.65
X3.075Y-4.75
X3.075Y-4.85
X3.075Y-4.95
X3.075Y-5.05
X3.175Y-2.45
X3.175Y-2.65
X3.1993Y-2.9504
X3.1997Y-2.8744
X3.325Y-2.15
X3.325Y-2.375
X3.375Y-2.425
X3.425Y-2.15
X3.425Y-2.425
X3.425Y-2.475
X3.425Y-2.55
X3.475Y-2.425
X3.475Y-2.475
X3.475Y-2.625
X3.525Y-2.15
X3.55Y-1.65
X3.55Y-1.775
X3.6Y-1.7
X3.6Y-1.875
X3.625Y-2.15
X3.65Y-1.65
X3.65Y-1.775
X3.65Y-2.325
X3.7Y-1.7
X3.7Y-1.875
X3.75Y-1.65
X3.75Y-1.775
X3.8Y-1.7
X3.8Y-1.875
X3.85Y-1.65
X3.85Y-1.775
X3.85Y-2.35
X3.85Y-2.45
X3.85Y-2.55
X3.85Y-2.65
X3.85Y-3.05
X3.85Y-3.15
X3.85Y-3.25
X3.85Y-3.35
X3.85Y-3.45
X3.85Y-3.55
X3.85Y-3.75
X3.85Y-3.85
X3.85Y-3.95
X3.85Y-4.05
X3.85Y-4.15
X3.85Y-4.25
X3.85Y-4.35
X3.85Y-4.45
X3.85Y-4.55
X3.85Y-4.65
X3.85Y-4.75
X3.85Y-4.85
X3.85Y-4.95
X3.85Y-5.05
X3.9Y-1.7
X3.9Y-1.875
X3.9Y-2.075
X3.9Y-2.3
X3.9Y-2.525
X3.95Y-2.425
X4.025Y-2.625
X4.1Y-1.7
X4.1Y-1.875
X4.175Y-3.025
X4.2Y-1.7
X4.2Y-1.875
X4.2Y-3.125
X4.225Y-3.225
X4.25Y-1.65
X4.25Y-1.825
X4.25Y-3.325
X4.275Y-3.425
X4.3Y-1.7
X4.3Y-1.875
X4.3Y-3.525
X4.35Y-1.65
X4.35Y-1.825
X4.35Y-2.3
X4.35Y-2.875
X4.4Y-1.7
X4.4Y-1.875
X4.4Y-2.3
X4.4Y-2.975
X4.45Y-1.65
X4.45Y-1.825
X4.45Y-2.3
X4.45Y-3.075
X4.5Y-1.7
X4.5Y-1.875
X4.5Y-2.3
X4.5Y-3.175
X4.55Y-1.65
X4.55Y-1.825
X4.55Y-2.3
X4.55Y-3.275
X4.6Y-1.7
X4.6Y-2.3
X4.6Y-3.375
X4.6001Y-1.8754
X4.65Y-1.65
X4.65Y-1.825
X4.65Y-2.3
X4.675Y-3.475
X4.7Y-1.7
X4.7Y-1.875
X4.7Y-2.3
X4.75Y-1.65
X4.75Y-1.825
X4.8Y-1.7
X4.8Y-1.875
X4.8Y-2.35
X4.8Y-2.4
X4.8Y-2.45
X4.8Y-2.5
X4.8Y-2.55
X4.8Y-2.6
X4.8Y-2.65
X4.8Y-2.7
X4.8Y-2.9
X4.8Y-3.
X4.8Y-3.05
X4.8Y-3.1
X4.8Y-3.15
X4.8Y-3.2
X4.8Y-3.25
X4.8Y-3.3
X4.8Y-3.35
X4.8Y-3.4
X4.8Y-3.45
X4.8Y-3.5
X4.8Y-3.55
X4.8Y-3.6
X4.8Y-3.7
X4.8Y-3.75
X4.8Y-3.8
X4.8Y-3.85
X4.8Y-3.9
X4.8Y-3.95
X4.8Y-4.
X4.8Y-4.05
X4.8Y-4.1
X4.8Y-4.15
X4.8Y-4.2
X4.8Y-4.25
X4.8Y-4.3
X4.8Y-4.35
X4.8Y-4.4
X4.8Y-4.45
X4.8Y-4.5
X4.8Y-4.55
X4.8Y-4.6
X4.8Y-4.65
X4.8Y-4.7
X4.8Y-4.75
X4.8Y-4.8
X4.8Y-4.85
X4.8Y-4.9
X4.8Y-4.95
X4.8Y-5.
X4.8Y-5.05
X4.8Y-5.1
X4.9Y-1.875
X4.95Y-1.775
X5.Y-1.875
X5.05Y-1.775
X5.1Y-1.875
X5.15Y-1.775
X5.15Y-2.35
X5.15Y-2.45
X5.15Y-2.55
X5.15Y-2.65
X5.15Y-3.05
X5.15Y-3.15
X5.15Y-3.25
X5.15Y-3.35
X5.15Y-3.45
X5.15Y-3.55
X5.15Y-3.75
X5.15Y-3.85
X5.15Y-3.95
X5.15Y-4.05
X5.15Y-4.15
X5.15Y-4.25
X5.15Y-4.35
X5.15Y-4.45
X5.15Y-4.55
X5.15Y-4.65
X5.15Y-4.75
X5.15Y-4.85
X5.15Y-4.95
X5.15Y-5.05
X5.2Y-1.875
X5.25Y-1.775
X5.3Y-1.875
X5.35Y-1.775
X5.4Y-1.875
X5.425Y-2.325
X5.425Y-3.725
X5.45Y-1.775
X5.475Y-2.325
X5.475Y-3.825
X5.4997Y-1.8752
X5.525Y-2.325
X5.525Y-3.925
X5.55Y-1.775
X5.55Y-2.2
X5.55Y-4.025
X5.575Y-2.225
X5.575Y-4.125
X5.6Y-1.875
X5.6Y-2.25
X5.6Y-4.225
X5.625Y-2.275
X5.625Y-4.325
X5.65Y-1.775
X5.65Y-2.3
X5.65Y-4.425
X5.675Y-2.325
X5.675Y-4.525
X5.7Y-1.875
X5.7Y-2.175
X5.7Y-4.625
X5.725Y-2.2
X5.725Y-4.725
X5.75Y-1.775
X5.75Y-2.225
X5.75Y-4.825
X5.775Y-2.25
X5.775Y-4.925
X5.8Y-1.875
X5.8Y-2.3
X5.8Y-5.025
X5.85Y-1.775
X5.85Y-3.675
X5.875Y-3.775
X5.9Y-1.875
X5.9Y-3.875
X5.925Y-3.975
X5.9454Y-4.075
X5.95Y-1.775
X5.9741Y-4.175
X6.Y-1.875
X6.Y-4.275
X6.025Y-4.375
X6.05Y-1.775
X6.05Y-4.475
X6.075Y-4.575
X6.1Y-1.875
X6.1Y-4.675
X6.125Y-4.775
X6.15Y-1.775
X6.15Y-4.875
X6.175Y-4.975
X6.2Y-1.875
X6.2Y-5.075
X6.25Y-1.775
X6.3Y-1.875
X6.3Y-2.35
X6.3Y-2.4
X6.3Y-2.45
X6.3Y-2.5
X6.3Y-2.55
X6.3Y-2.6
X6.3Y-2.65
X6.3Y-2.7
X6.3Y-2.9
X6.3Y-3.
X6.3Y-3.05
X6.3Y-3.1
X6.3Y-3.15
X6.3Y-3.2
X6.3Y-3.25
X6.3Y-3.3
X6.3Y-3.35
X6.3Y-3.4
X6.3Y-3.45
X6.3Y-3.5
X6.3Y-3.55
X6.3Y-3.6
X6.3Y-3.7
X6.3Y-3.75
X6.3Y-3.8
X6.3Y-3.85
X6.3Y-3.9
X6.3Y-3.95
X6.3Y-4.
X6.3Y-4.05
X6.3Y-4.1
X6.3Y-4.15
X6.3Y-4.2
X6.3Y-4.25
X6.3Y-4.3
X6.3Y-4.35
X6.3Y-4.4
X6.3Y-4.45
X6.3Y-4.5
X6.3Y-4.55
X6.3Y-4.6
X6.3Y-4.65
X6.3Y-4.7
X6.3Y-4.75
X6.3Y-4.8
X6.3Y-4.85
X6.3Y-4.9
X6.3Y-4.95
X6.3Y-5.
X6.3Y-5.05
X6.3Y-5.1
X6.65Y-2.35
X6.65Y-2.45
X6.65Y-2.55
X6.65Y-2.65
X6.65Y-3.05
X6.65Y-3.15
X6.65Y-3.25
X6.65Y-3.35
X6.65Y-3.45
X6.65Y-3.55
X6.65Y-3.75
X6.65Y-3.85
X6.65Y-3.95
X6.65Y-4.05
X6.65Y-4.15
X6.65Y-4.25
X6.65Y-4.35
X6.65Y-4.45
X6.65Y-4.55
X6.65Y-4.65
X6.65Y-4.75
X6.65Y-4.85
X6.65Y-4.95
X6.65Y-5.05
X6.7Y-2.4
X6.7Y-2.5
X6.7Y-2.6
X6.7Y-2.7
X6.7Y-2.9
X6.7Y-3.
X6.7Y-3.1
X6.7Y-3.2
X6.7Y-3.3
X6.7Y-3.4
X6.7Y-3.5
X6.7Y-3.6
X6.7Y-3.7
X6.7Y-3.8
X6.7Y-3.9
X6.7Y-4.
X6.7Y-4.1
X6.7Y-4.2
X6.7Y-4.3
X6.7Y-4.4
X6.7Y-4.5
X6.7Y-4.6
X6.7Y-4.7
X6.7Y-4.8
X6.7Y-4.9
X6.7Y-5.
X6.7Y-5.1
X6.75Y-2.35
X6.75Y-2.45
X6.75Y-2.55
X6.75Y-2.65
X6.75Y-3.05
X6.75Y-3.15
X6.75Y-3.25
X6.75Y-3.35
X6.75Y-3.45
X6.75Y-3.55
X6.75Y-3.75
X6.75Y-3.85
X6.75Y-3.95
X6.75Y-4.05
X6.75Y-4.15
X6.75Y-4.25
X6.75Y-4.35
X6.75Y-4.45
X6.75Y-4.55
X6.75Y-4.65
X6.75Y-4.75
X6.75Y-4.85
X6.75Y-4.95
X6.75Y-5.05
X8.1Y-2.4
X8.1Y-2.5
X8.1Y-2.6
X8.1Y-2.7
X8.1Y-2.9
X8.1Y-3.
X8.1Y-3.1
X8.1Y-3.2
X8.1Y-3.3
X8.1Y-3.4
X8.1Y-3.5
X8.1Y-3.6
X8.1Y-3.7
X8.1Y-3.8
X8.1Y-3.9
X8.1Y-4.
X8.1Y-4.1
X8.1Y-4.2
X8.1Y-4.3
X8.1Y-4.4
X8.1Y-4.5
X8.1Y-4.6
X8.1Y-4.7
X8.1Y-4.8
X8.1Y-4.9
X8.1Y-5.
X8.1Y-5.1
X8.15Y-2.35
X8.15Y-2.45
X8.15Y-2.55
X8.15Y-2.65
X8.2Y-3.05
X8.2Y-3.15
X8.2Y-3.25
X8.2Y-3.35
X8.2Y-3.45
X8.2Y-3.55
X8.2Y-3.75
X8.2Y-3.85
X8.2Y-3.95
X8.2Y-4.05
X8.2Y-4.15
X8.2Y-4.25
X8.2Y-4.35
X8.2Y-4.45
X8.2Y-4.55
X8.2Y-4.65
X8.2Y-4.75
X8.2Y-4.85
X8.2Y-4.95
X8.2Y-5.05
X8.25Y-2.4
X8.25Y-2.5
X8.25Y-2.6
X8.25Y-2.7
X8.25Y-2.9
X8.25Y-3.
X8.25Y-3.1
X8.25Y-3.2
X8.25Y-3.3
X8.25Y-3.4
X8.25Y-3.5
X8.25Y-3.6
X8.25Y-3.7
X8.25Y-3.8
X8.25Y-3.9
X8.25Y-4.
X8.25Y-4.1
X8.25Y-4.2
X8.25Y-4.3
X8.25Y-4.4
X8.25Y-4.5
X8.25Y-4.6
X8.25Y-4.7
X8.25Y-4.8
X8.25Y-4.9
X8.25Y-5.
X8.25Y-5.1
X8.65Y-2.35
X8.65Y-2.45
X8.65Y-2.55
X8.65Y-2.65
X8.65Y-3.05
X8.65Y-3.15
X8.65Y-3.25
X8.65Y-3.35
X8.65Y-3.45
X8.65Y-3.55
X8.65Y-3.75
X8.65Y-3.85
X8.65Y-3.95
X8.65Y-4.05
X8.65Y-4.15
X8.65Y-4.25
X8.65Y-4.35
X8.65Y-4.45
X8.65Y-4.55
X8.65Y-4.65
X8.65Y-4.75
X8.65Y-4.85
X8.65Y-4.95
X8.65Y-5.05
T3
X4.3016Y-5.3872
X4.4Y-5.3872
X4.4984Y-5.3872
T4
X3.95Y-5.4016
X3.95Y-5.5
X4.2Y-5.225
X4.6Y-5.225
X4.85Y-5.4016
X4.85Y-5.5
T5
X2.975Y-5.225
X3.075Y-5.225
X5.15Y-5.55
X5.55Y-5.55
T6
X3.075Y-2.075
X3.075Y-2.175
X3.175Y-2.075
X3.175Y-2.175
X3.6Y-2.4
X3.6Y-2.5
X3.6Y-2.6
X3.6Y-2.7
X3.6Y-2.8
X3.6Y-2.9
X3.6Y-3.
X3.6Y-3.1
X3.6Y-3.2
X3.6Y-3.3
X3.6Y-3.4
X3.6Y-3.5
X3.6Y-3.6
X3.6Y-3.7
X3.6Y-3.8
X3.6Y-3.9
X3.6Y-4.
X3.6Y-4.1
X3.6Y-4.2
X3.6Y-4.3
X3.6Y-4.4
X3.6Y-4.5
X3.6Y-4.6
X3.6Y-4.7
X3.6Y-4.8
X3.6Y-4.9
X3.6Y-5.
X3.6Y-5.1
X3.7Y-2.4
X3.7Y-2.5
X3.7Y-2.6
X3.7Y-2.7
X3.7Y-2.8
X3.7Y-2.9
X3.7Y-3.
X3.7Y-3.1
X3.7Y-3.2
X3.7Y-3.3
X3.7Y-3.4
X3.7Y-3.5
X3.7Y-3.6
X3.7Y-3.7
X3.7Y-3.8
X3.7Y-3.9
X3.7Y-4.
X3.7Y-4.1
X3.7Y-4.2
X3.7Y-4.3
X3.7Y-4.4
X3.7Y-4.5
X3.7Y-4.6
X3.7Y-4.7
X3.7Y-4.8
X3.7Y-4.9
X3.7Y-5.
X3.7Y-5.1
X4.9Y-2.4
X4.9Y-2.5
X4.9Y-2.6
X4.9Y-2.7
X4.9Y-2.8
X4.9Y-2.9
X4.9Y-3.
X4.9Y-3.1
X4.9Y-3.2
X4.9Y-3.3
X4.9Y-3.4
X4.9Y-3.5
X4.9Y-3.6
X4.9Y-3.7
X4.9Y-3.8
X4.9Y-3.9
X4.9Y-4.
X4.9Y-4.1
X4.9Y-4.2
X4.9Y-4.3
X4.9Y-4.4
X4.9Y-4.5
X4.9Y-4.6
X4.9Y-4.7
X4.9Y-4.8
X4.9Y-4.9
X4.9Y-5.
X4.9Y-5.1
X5.Y-2.4
X5.Y-2.5
X5.Y-2.6
X5.Y-2.7
X5.Y-2.8
X5.Y-2.9
X5.Y-3.
X5.Y-3.1
X5.Y-3.2
X5.Y-3.3
X5.Y-3.4
X5.Y-3.5
X5.Y-3.6
X5.Y-3.7
X5.Y-3.8
X5.Y-3.9
X5.Y-4.
X5.Y-4.1
X5.Y-4.2
X5.Y-4.3
X5.Y-4.4
X5.Y-4.5
X5.Y-4.6
X5.Y-4.7
X5.Y-4.8
X5.Y-4.9
X5.Y-5.
X5.Y-5.1
X5.4Y-5.35
X5.5Y-5.35
X6.4Y-2.4
X6.4Y-2.5
X6.4Y-2.6
X6.4Y-2.7
X6.4Y-2.8
X6.4Y-2.9
X6.4Y-3.
X6.4Y-3.1
X6.4Y-3.2
X6.4Y-3.3
X6.4Y-3.4
X6.4Y-3.5
X6.4Y-3.6
X6.4Y-3.7
X6.4Y-3.8
X6.4Y-3.9
X6.4Y-4.
X6.4Y-4.1
X6.4Y-4.2
X6.4Y-4.3
X6.4Y-4.4
X6.4Y-4.5
X6.4Y-4.6
X6.4Y-4.7
X6.4Y-4.8
X6.4Y-4.9
X6.4Y-5.
X6.4Y-5.1
X6.5Y-2.4
X6.5Y-2.5
X6.5Y-2.6
X6.5Y-2.7
X6.5Y-2.8
X6.5Y-2.9
X6.5Y-3.
X6.5Y-3.1
X6.5Y-3.2
X6.5Y-3.3
X6.5Y-3.4
X6.5Y-3.5
X6.5Y-3.6
X6.5Y-3.7
X6.5Y-3.8
X6.5Y-3.9
X6.5Y-4.
X6.5Y-4.1
X6.5Y-4.2
X6.5Y-4.3
X6.5Y-4.4
X6.5Y-4.5
X6.5Y-4.6
X6.5Y-4.7
X6.5Y-4.8
X6.5Y-4.9
X6.5Y-5.
X6.5Y-5.1
X7.9Y-2.4
X7.9Y-2.5
X7.9Y-2.6
X7.9Y-2.7
X7.9Y-2.8
X7.9Y-2.9
X7.9Y-3.
X7.9Y-3.1
X7.9Y-3.2
X7.9Y-3.3
X7.9Y-3.4
X7.9Y-3.5
X7.9Y-3.6
X7.9Y-3.7
X7.9Y-3.8
X7.9Y-3.9
X7.9Y-4.
X7.9Y-4.1
X7.9Y-4.2
X7.9Y-4.3
X7.9Y-4.4
X7.9Y-4.5
X7.9Y-4.6
X7.9Y-4.7
X7.9Y-4.8
X7.9Y-4.9
X7.9Y-5.
X7.9Y-5.1
X8.Y-2.4
X8.Y-2.5
X8.Y-2.6
X8.Y-2.7
X8.Y-2.8
X8.Y-2.9
X8.Y-3.
X8.Y-3.1
X8.Y-3.2
X8.Y-3.3
X8.Y-3.4
X8.Y-3.5
X8.Y-3.6
X8.Y-3.7
X8.Y-3.8
X8.Y-3.9
X8.Y-4.
X8.Y-4.1
X8.Y-4.2
X8.Y-4.3
X8.Y-4.4
X8.Y-4.5
X8.Y-4.6
X8.Y-4.7
X8.Y-4.8
X8.Y-4.9
X8.Y-5.
X8.Y-5.1
T7
X2.972Y-5.386
X2.972Y-5.564
X3.228Y-5.386
X3.228Y-5.564
T2
X5.6819Y-5.4943G85X5.6819Y-5.4057
G05
X5.8246Y-5.2728G85X5.736Y-5.2728
G05
X5.9181Y-5.4943G85X5.9181Y-5.4057
G05
T0
M30
