%TF.GenerationSoftware,KiCad,Pcbnew,4.0.7*%
%TF.CreationDate,2019-01-02T11:57:48+00:00*%
%TF.ProjectId,Spectrum Edge Connector Extender_HORIZ,537065637472756D204564676520436F,rev?*%
%TF.FileFunction,Legend,Top*%
%FSLAX46Y46*%
G04 Gerber Fmt 4.6, Leading zero omitted, Abs format (unit mm)*
G04 Created by KiCad (PCBNEW 4.0.7) date 01/02/19 11:57:48*
%MOMM*%
%LPD*%
G01*
G04 APERTURE LIST*
%ADD10C,0.100000*%
%ADD11O,1.900000X10.400000*%
%ADD12C,2.100000*%
%ADD13O,2.100000X2.100000*%
G04 APERTURE END LIST*
D10*
%LPC*%
D11*
X114300000Y-92710000D03*
X116840000Y-92710000D03*
X119380000Y-92710000D03*
X121920000Y-92710000D03*
X172720000Y-92710000D03*
X127000000Y-92710000D03*
X129540000Y-92710000D03*
X132080000Y-92710000D03*
X134620000Y-92710000D03*
X137160000Y-92710000D03*
X139700000Y-92710000D03*
X142240000Y-92710000D03*
X144780000Y-92710000D03*
X147320000Y-92710000D03*
X149860000Y-92710000D03*
X152400000Y-92710000D03*
X154940000Y-92710000D03*
X157480000Y-92710000D03*
X160020000Y-92710000D03*
X162560000Y-92710000D03*
X165100000Y-92710000D03*
X167640000Y-92710000D03*
X170180000Y-92710000D03*
X175260000Y-92710000D03*
X177800000Y-92710000D03*
X180340000Y-92710000D03*
X182880000Y-92710000D03*
D12*
X182880000Y-100330000D03*
D13*
X182880000Y-102870000D03*
X180340000Y-100330000D03*
X180340000Y-102870000D03*
X177800000Y-100330000D03*
X177800000Y-102870000D03*
X175260000Y-100330000D03*
X175260000Y-102870000D03*
X172720000Y-100330000D03*
X172720000Y-102870000D03*
X170180000Y-100330000D03*
X170180000Y-102870000D03*
X167640000Y-100330000D03*
X167640000Y-102870000D03*
X165100000Y-100330000D03*
X165100000Y-102870000D03*
X162560000Y-100330000D03*
X162560000Y-102870000D03*
X160020000Y-100330000D03*
X160020000Y-102870000D03*
X157480000Y-100330000D03*
X157480000Y-102870000D03*
X154940000Y-100330000D03*
X154940000Y-102870000D03*
X152400000Y-100330000D03*
X152400000Y-102870000D03*
X149860000Y-100330000D03*
X149860000Y-102870000D03*
X147320000Y-100330000D03*
X147320000Y-102870000D03*
X144780000Y-100330000D03*
X144780000Y-102870000D03*
X142240000Y-100330000D03*
X142240000Y-102870000D03*
X139700000Y-100330000D03*
X139700000Y-102870000D03*
X137160000Y-100330000D03*
X137160000Y-102870000D03*
X134620000Y-100330000D03*
X134620000Y-102870000D03*
X132080000Y-100330000D03*
X132080000Y-102870000D03*
X129540000Y-100330000D03*
X129540000Y-102870000D03*
X127000000Y-100330000D03*
X127000000Y-102870000D03*
X121920000Y-100330000D03*
X121920000Y-102870000D03*
X119380000Y-100330000D03*
X119380000Y-102870000D03*
X116840000Y-100330000D03*
X116840000Y-102870000D03*
X114300000Y-100330000D03*
X114300000Y-102870000D03*
M02*
