M48
;DRILL file {KiCad 4.0.7} date 01/02/19 11:57:50
;FORMAT={-:-/ absolute / inch / decimal}
FMAT,2
INCH,TZ
T1C0.039
%
G90
G05
M72
T1
X4.5Y-3.95
X4.5Y-4.05
X4.6Y-3.95
X4.6Y-4.05
X4.7Y-3.95
X4.7Y-4.05
X4.8Y-3.95
X4.8Y-4.05
X5.Y-3.95
X5.Y-4.05
X5.1Y-3.95
X5.1Y-4.05
X5.2Y-3.95
X5.2Y-4.05
X5.3Y-3.95
X5.3Y-4.05
X5.4Y-3.95
X5.4Y-4.05
X5.5Y-3.95
X5.5Y-4.05
X5.6Y-3.95
X5.6Y-4.05
X5.7Y-3.95
X5.7Y-4.05
X5.8Y-3.95
X5.8Y-4.05
X5.9Y-3.95
X5.9Y-4.05
X6.Y-3.95
X6.Y-4.05
X6.1Y-3.95
X6.1Y-4.05
X6.2Y-3.95
X6.2Y-4.05
X6.3Y-3.95
X6.3Y-4.05
X6.4Y-3.95
X6.4Y-4.05
X6.5Y-3.95
X6.5Y-4.05
X6.6Y-3.95
X6.6Y-4.05
X6.7Y-3.95
X6.7Y-4.05
X6.8Y-3.95
X6.8Y-4.05
X6.9Y-3.95
X6.9Y-4.05
X7.Y-3.95
X7.Y-4.05
X7.1Y-3.95
X7.1Y-4.05
X7.2Y-3.95
X7.2Y-4.05
T0
M30
