%TF.GenerationSoftware,KiCad,Pcbnew,4.0.7*%
%TF.CreationDate,2019-01-02T11:57:47+00:00*%
%TF.ProjectId,Spectrum Edge Connector Extender_HORIZ,537065637472756D204564676520436F,rev?*%
%TF.FileFunction,Copper,L1,Top,Signal*%
%FSLAX46Y46*%
G04 Gerber Fmt 4.6, Leading zero omitted, Abs format (unit mm)*
G04 Created by KiCad (PCBNEW 4.0.7) date 01/02/19 11:57:47*
%MOMM*%
%LPD*%
G01*
G04 APERTURE LIST*
%ADD10C,0.100000*%
%ADD11O,1.500000X10.000000*%
%ADD12C,1.700000*%
%ADD13O,1.700000X1.700000*%
%ADD14C,0.250000*%
%ADD15C,0.254000*%
G04 APERTURE END LIST*
D10*
D11*
X114300000Y-92710000D03*
X116840000Y-92710000D03*
X119380000Y-92710000D03*
X121920000Y-92710000D03*
X172720000Y-92710000D03*
X127000000Y-92710000D03*
X129540000Y-92710000D03*
X132080000Y-92710000D03*
X134620000Y-92710000D03*
X137160000Y-92710000D03*
X139700000Y-92710000D03*
X142240000Y-92710000D03*
X144780000Y-92710000D03*
X147320000Y-92710000D03*
X149860000Y-92710000D03*
X152400000Y-92710000D03*
X154940000Y-92710000D03*
X157480000Y-92710000D03*
X160020000Y-92710000D03*
X162560000Y-92710000D03*
X165100000Y-92710000D03*
X167640000Y-92710000D03*
X170180000Y-92710000D03*
X175260000Y-92710000D03*
X177800000Y-92710000D03*
X180340000Y-92710000D03*
X182880000Y-92710000D03*
D12*
X182880000Y-100330000D03*
D13*
X182880000Y-102870000D03*
X180340000Y-100330000D03*
X180340000Y-102870000D03*
X177800000Y-100330000D03*
X177800000Y-102870000D03*
X175260000Y-100330000D03*
X175260000Y-102870000D03*
X172720000Y-100330000D03*
X172720000Y-102870000D03*
X170180000Y-100330000D03*
X170180000Y-102870000D03*
X167640000Y-100330000D03*
X167640000Y-102870000D03*
X165100000Y-100330000D03*
X165100000Y-102870000D03*
X162560000Y-100330000D03*
X162560000Y-102870000D03*
X160020000Y-100330000D03*
X160020000Y-102870000D03*
X157480000Y-100330000D03*
X157480000Y-102870000D03*
X154940000Y-100330000D03*
X154940000Y-102870000D03*
X152400000Y-100330000D03*
X152400000Y-102870000D03*
X149860000Y-100330000D03*
X149860000Y-102870000D03*
X147320000Y-100330000D03*
X147320000Y-102870000D03*
X144780000Y-100330000D03*
X144780000Y-102870000D03*
X142240000Y-100330000D03*
X142240000Y-102870000D03*
X139700000Y-100330000D03*
X139700000Y-102870000D03*
X137160000Y-100330000D03*
X137160000Y-102870000D03*
X134620000Y-100330000D03*
X134620000Y-102870000D03*
X132080000Y-100330000D03*
X132080000Y-102870000D03*
X129540000Y-100330000D03*
X129540000Y-102870000D03*
X127000000Y-100330000D03*
X127000000Y-102870000D03*
X121920000Y-100330000D03*
X121920000Y-102870000D03*
X119380000Y-100330000D03*
X119380000Y-102870000D03*
X116840000Y-100330000D03*
X116840000Y-102870000D03*
X114300000Y-100330000D03*
X114300000Y-102870000D03*
D14*
X182880000Y-102870000D02*
X182880000Y-102616000D01*
X182880000Y-102616000D02*
X184150000Y-101346000D01*
X184150000Y-101346000D02*
X184150000Y-98552000D01*
X184150000Y-98552000D02*
X182880000Y-97282000D01*
X182880000Y-97282000D02*
X182880000Y-92710000D01*
X180340000Y-102870000D02*
X181610000Y-101600000D01*
X181610000Y-98552000D02*
X180340000Y-97282000D01*
X181610000Y-101600000D02*
X181610000Y-98552000D01*
X180340000Y-97282000D02*
X180340000Y-92710000D01*
X177800000Y-102870000D02*
X179070000Y-101600000D01*
X179070000Y-98552000D02*
X177800000Y-97282000D01*
X179070000Y-101600000D02*
X179070000Y-98552000D01*
X177800000Y-97282000D02*
X177800000Y-92710000D01*
X175260000Y-102870000D02*
X176530000Y-101600000D01*
X176530000Y-98552000D02*
X175260000Y-97282000D01*
X176530000Y-101600000D02*
X176530000Y-98552000D01*
X175260000Y-97282000D02*
X175260000Y-92710000D01*
X172720000Y-102870000D02*
X173990000Y-101600000D01*
X173990000Y-98552000D02*
X172720000Y-97282000D01*
X173990000Y-101600000D02*
X173990000Y-98552000D01*
X172720000Y-97282000D02*
X172720000Y-92710000D01*
X170180000Y-102870000D02*
X171450000Y-101600000D01*
X171450000Y-98552000D02*
X170180000Y-97282000D01*
X171450000Y-101600000D02*
X171450000Y-98552000D01*
X170180000Y-97282000D02*
X170180000Y-92710000D01*
X167640000Y-102870000D02*
X168910000Y-101600000D01*
X168910000Y-98552000D02*
X167640000Y-97282000D01*
X168910000Y-101600000D02*
X168910000Y-98552000D01*
X167640000Y-97282000D02*
X167640000Y-92710000D01*
X165100000Y-102870000D02*
X166370000Y-101600000D01*
X166370000Y-98552000D02*
X165100000Y-97282000D01*
X166370000Y-101600000D02*
X166370000Y-98552000D01*
X165100000Y-97282000D02*
X165100000Y-92710000D01*
X162560000Y-102870000D02*
X163830000Y-101600000D01*
X163830000Y-98552000D02*
X162560000Y-97282000D01*
X163830000Y-101600000D02*
X163830000Y-98552000D01*
X162560000Y-97282000D02*
X162560000Y-92710000D01*
X160020000Y-102870000D02*
X161290000Y-101600000D01*
X161290000Y-98552000D02*
X160020000Y-97282000D01*
X161290000Y-101600000D02*
X161290000Y-98552000D01*
X160020000Y-97282000D02*
X160020000Y-92710000D01*
X157480000Y-102870000D02*
X158750000Y-101600000D01*
X158750000Y-98552000D02*
X157480000Y-97282000D01*
X158750000Y-101600000D02*
X158750000Y-98552000D01*
X157480000Y-97282000D02*
X157480000Y-92710000D01*
X154940000Y-102870000D02*
X156210000Y-101600000D01*
X156210000Y-98552000D02*
X154940000Y-97282000D01*
X156210000Y-101600000D02*
X156210000Y-98552000D01*
X154940000Y-97282000D02*
X154940000Y-92710000D01*
X152400000Y-102870000D02*
X153670000Y-101600000D01*
X153670000Y-98552000D02*
X152400000Y-97282000D01*
X153670000Y-101600000D02*
X153670000Y-98552000D01*
X152400000Y-97282000D02*
X152400000Y-92710000D01*
X149860000Y-102870000D02*
X151130000Y-101600000D01*
X151130000Y-98552000D02*
X149860000Y-97282000D01*
X151130000Y-101600000D02*
X151130000Y-98552000D01*
X149860000Y-97282000D02*
X149860000Y-92710000D01*
X147320000Y-102870000D02*
X148590000Y-101600000D01*
X148590000Y-98552000D02*
X147320000Y-97282000D01*
X148590000Y-101600000D02*
X148590000Y-98552000D01*
X147320000Y-97282000D02*
X147320000Y-92710000D01*
X144780000Y-102870000D02*
X146050000Y-101600000D01*
X146050000Y-98552000D02*
X144780000Y-97282000D01*
X146050000Y-101600000D02*
X146050000Y-98552000D01*
X144780000Y-97282000D02*
X144780000Y-92710000D01*
X142240000Y-102870000D02*
X143510000Y-101600000D01*
X143510000Y-98552000D02*
X142240000Y-97282000D01*
X143510000Y-101600000D02*
X143510000Y-98552000D01*
X142240000Y-97282000D02*
X142240000Y-92710000D01*
X139700000Y-102870000D02*
X140970000Y-101600000D01*
X140970000Y-98552000D02*
X139700000Y-97282000D01*
X140970000Y-101600000D02*
X140970000Y-98552000D01*
X139700000Y-97282000D02*
X139700000Y-92710000D01*
X137160000Y-102870000D02*
X138430000Y-101600000D01*
X138430000Y-98552000D02*
X137160000Y-97282000D01*
X138430000Y-101600000D02*
X138430000Y-98552000D01*
X137160000Y-97282000D02*
X137160000Y-92710000D01*
X134620000Y-102870000D02*
X135890000Y-101600000D01*
X135890000Y-98552000D02*
X134620000Y-97282000D01*
X135890000Y-101600000D02*
X135890000Y-98552000D01*
X134620000Y-97282000D02*
X134620000Y-92710000D01*
X132080000Y-102870000D02*
X133350000Y-101600000D01*
X133350000Y-98552000D02*
X132080000Y-97282000D01*
X133350000Y-101600000D02*
X133350000Y-98552000D01*
X132080000Y-97282000D02*
X132080000Y-92710000D01*
X129540000Y-102870000D02*
X130810000Y-101600000D01*
X130810000Y-98552000D02*
X129540000Y-97282000D01*
X130810000Y-101600000D02*
X130810000Y-98552000D01*
X129540000Y-97282000D02*
X129540000Y-92710000D01*
X127000000Y-102870000D02*
X128270000Y-101600000D01*
X128270000Y-98298000D02*
X127000000Y-97028000D01*
X128270000Y-101600000D02*
X128270000Y-98298000D01*
X127000000Y-97028000D02*
X127000000Y-92710000D01*
X121920000Y-102870000D02*
X123190000Y-101600000D01*
X123190000Y-98298000D02*
X121920000Y-97028000D01*
X123190000Y-101600000D02*
X123190000Y-98298000D01*
X121920000Y-97028000D02*
X121920000Y-92710000D01*
X119380000Y-102870000D02*
X120650000Y-101600000D01*
X120650000Y-98298000D02*
X119380000Y-97028000D01*
X120650000Y-101600000D02*
X120650000Y-98298000D01*
X119380000Y-97028000D02*
X119380000Y-92710000D01*
X116840000Y-102870000D02*
X118110000Y-101600000D01*
X118110000Y-98298000D02*
X116840000Y-97028000D01*
X118110000Y-101600000D02*
X118110000Y-98298000D01*
X116840000Y-97028000D02*
X116840000Y-92710000D01*
X114300000Y-102870000D02*
X115570000Y-101600000D01*
X115570000Y-98298000D02*
X114300000Y-97028000D01*
X115570000Y-101600000D02*
X115570000Y-98298000D01*
X114300000Y-97028000D02*
X114300000Y-92710000D01*
D15*
G36*
X126020657Y-98049739D02*
X126469983Y-98349969D01*
X127000000Y-98455396D01*
X127294095Y-98396897D01*
X127510000Y-98612802D01*
X127510000Y-98951940D01*
X127356890Y-98888524D01*
X127127000Y-99009845D01*
X127127000Y-100203000D01*
X127147000Y-100203000D01*
X127147000Y-100457000D01*
X127127000Y-100457000D01*
X127127000Y-100477000D01*
X126873000Y-100477000D01*
X126873000Y-100457000D01*
X125679181Y-100457000D01*
X125558514Y-100686892D01*
X125804817Y-101211358D01*
X126233076Y-101601645D01*
X126233101Y-101601655D01*
X125949946Y-101790853D01*
X125628039Y-102272622D01*
X125515000Y-102840907D01*
X125515000Y-102899093D01*
X125628039Y-103467378D01*
X125949946Y-103949147D01*
X126431715Y-104271054D01*
X127000000Y-104384093D01*
X127568285Y-104271054D01*
X128050054Y-103949147D01*
X128270000Y-103619974D01*
X128489946Y-103949147D01*
X128971715Y-104271054D01*
X129540000Y-104384093D01*
X130108285Y-104271054D01*
X130590054Y-103949147D01*
X130810000Y-103619974D01*
X131029946Y-103949147D01*
X131511715Y-104271054D01*
X132080000Y-104384093D01*
X132648285Y-104271054D01*
X133130054Y-103949147D01*
X133350000Y-103619974D01*
X133569946Y-103949147D01*
X134051715Y-104271054D01*
X134620000Y-104384093D01*
X135188285Y-104271054D01*
X135670054Y-103949147D01*
X135890000Y-103619974D01*
X136109946Y-103949147D01*
X136591715Y-104271054D01*
X137160000Y-104384093D01*
X137728285Y-104271054D01*
X138210054Y-103949147D01*
X138430000Y-103619974D01*
X138649946Y-103949147D01*
X139131715Y-104271054D01*
X139700000Y-104384093D01*
X140268285Y-104271054D01*
X140750054Y-103949147D01*
X140970000Y-103619974D01*
X141189946Y-103949147D01*
X141671715Y-104271054D01*
X142240000Y-104384093D01*
X142808285Y-104271054D01*
X143290054Y-103949147D01*
X143510000Y-103619974D01*
X143729946Y-103949147D01*
X144211715Y-104271054D01*
X144780000Y-104384093D01*
X145348285Y-104271054D01*
X145830054Y-103949147D01*
X146050000Y-103619974D01*
X146269946Y-103949147D01*
X146751715Y-104271054D01*
X147320000Y-104384093D01*
X147888285Y-104271054D01*
X148370054Y-103949147D01*
X148590000Y-103619974D01*
X148809946Y-103949147D01*
X149291715Y-104271054D01*
X149860000Y-104384093D01*
X150428285Y-104271054D01*
X150910054Y-103949147D01*
X151130000Y-103619974D01*
X151349946Y-103949147D01*
X151831715Y-104271054D01*
X152400000Y-104384093D01*
X152968285Y-104271054D01*
X153450054Y-103949147D01*
X153670000Y-103619974D01*
X153889946Y-103949147D01*
X154371715Y-104271054D01*
X154940000Y-104384093D01*
X155508285Y-104271054D01*
X155990054Y-103949147D01*
X156210000Y-103619974D01*
X156429946Y-103949147D01*
X156911715Y-104271054D01*
X157480000Y-104384093D01*
X158048285Y-104271054D01*
X158530054Y-103949147D01*
X158750000Y-103619974D01*
X158969946Y-103949147D01*
X159451715Y-104271054D01*
X160020000Y-104384093D01*
X160588285Y-104271054D01*
X161070054Y-103949147D01*
X161290000Y-103619974D01*
X161509946Y-103949147D01*
X161991715Y-104271054D01*
X162560000Y-104384093D01*
X163128285Y-104271054D01*
X163610054Y-103949147D01*
X163830000Y-103619974D01*
X164049946Y-103949147D01*
X164531715Y-104271054D01*
X165100000Y-104384093D01*
X165668285Y-104271054D01*
X166150054Y-103949147D01*
X166370000Y-103619974D01*
X166589946Y-103949147D01*
X167071715Y-104271054D01*
X167640000Y-104384093D01*
X168208285Y-104271054D01*
X168690054Y-103949147D01*
X168910000Y-103619974D01*
X169129946Y-103949147D01*
X169611715Y-104271054D01*
X170180000Y-104384093D01*
X170748285Y-104271054D01*
X171230054Y-103949147D01*
X171450000Y-103619974D01*
X171669946Y-103949147D01*
X172151715Y-104271054D01*
X172720000Y-104384093D01*
X173288285Y-104271054D01*
X173770054Y-103949147D01*
X173990000Y-103619974D01*
X174209946Y-103949147D01*
X174691715Y-104271054D01*
X175260000Y-104384093D01*
X175828285Y-104271054D01*
X176310054Y-103949147D01*
X176530000Y-103619974D01*
X176749946Y-103949147D01*
X177231715Y-104271054D01*
X177800000Y-104384093D01*
X178368285Y-104271054D01*
X178850054Y-103949147D01*
X179070000Y-103619974D01*
X179289946Y-103949147D01*
X179771715Y-104271054D01*
X180340000Y-104384093D01*
X180908285Y-104271054D01*
X181390054Y-103949147D01*
X181610000Y-103619974D01*
X181829946Y-103949147D01*
X182311715Y-104271054D01*
X182880000Y-104384093D01*
X183448285Y-104271054D01*
X183930054Y-103949147D01*
X183948000Y-103922289D01*
X183948000Y-104446000D01*
X113232000Y-104446000D01*
X113232000Y-103922289D01*
X113249946Y-103949147D01*
X113731715Y-104271054D01*
X114300000Y-104384093D01*
X114868285Y-104271054D01*
X115350054Y-103949147D01*
X115570000Y-103619974D01*
X115789946Y-103949147D01*
X116271715Y-104271054D01*
X116840000Y-104384093D01*
X117408285Y-104271054D01*
X117890054Y-103949147D01*
X118110000Y-103619974D01*
X118329946Y-103949147D01*
X118811715Y-104271054D01*
X119380000Y-104384093D01*
X119948285Y-104271054D01*
X120430054Y-103949147D01*
X120650000Y-103619974D01*
X120869946Y-103949147D01*
X121351715Y-104271054D01*
X121920000Y-104384093D01*
X122488285Y-104271054D01*
X122970054Y-103949147D01*
X123291961Y-103467378D01*
X123405000Y-102899093D01*
X123405000Y-102840907D01*
X123341771Y-102523031D01*
X123727401Y-102137401D01*
X123892148Y-101890840D01*
X123950000Y-101600000D01*
X123950000Y-99973108D01*
X125558514Y-99973108D01*
X125679181Y-100203000D01*
X126873000Y-100203000D01*
X126873000Y-99009845D01*
X126643110Y-98888524D01*
X126233076Y-99058355D01*
X125804817Y-99448642D01*
X125558514Y-99973108D01*
X123950000Y-99973108D01*
X123950000Y-98298000D01*
X123939148Y-98243444D01*
X123952000Y-98246000D01*
X124968000Y-98246000D01*
X125036584Y-98232358D01*
X125106514Y-98232358D01*
X125300917Y-98193689D01*
X125450844Y-98131587D01*
X125556859Y-98087674D01*
X125721666Y-97977553D01*
X125849366Y-97849852D01*
X125871984Y-97827234D01*
X126020657Y-98049739D01*
X126020657Y-98049739D01*
G37*
X126020657Y-98049739D02*
X126469983Y-98349969D01*
X127000000Y-98455396D01*
X127294095Y-98396897D01*
X127510000Y-98612802D01*
X127510000Y-98951940D01*
X127356890Y-98888524D01*
X127127000Y-99009845D01*
X127127000Y-100203000D01*
X127147000Y-100203000D01*
X127147000Y-100457000D01*
X127127000Y-100457000D01*
X127127000Y-100477000D01*
X126873000Y-100477000D01*
X126873000Y-100457000D01*
X125679181Y-100457000D01*
X125558514Y-100686892D01*
X125804817Y-101211358D01*
X126233076Y-101601645D01*
X126233101Y-101601655D01*
X125949946Y-101790853D01*
X125628039Y-102272622D01*
X125515000Y-102840907D01*
X125515000Y-102899093D01*
X125628039Y-103467378D01*
X125949946Y-103949147D01*
X126431715Y-104271054D01*
X127000000Y-104384093D01*
X127568285Y-104271054D01*
X128050054Y-103949147D01*
X128270000Y-103619974D01*
X128489946Y-103949147D01*
X128971715Y-104271054D01*
X129540000Y-104384093D01*
X130108285Y-104271054D01*
X130590054Y-103949147D01*
X130810000Y-103619974D01*
X131029946Y-103949147D01*
X131511715Y-104271054D01*
X132080000Y-104384093D01*
X132648285Y-104271054D01*
X133130054Y-103949147D01*
X133350000Y-103619974D01*
X133569946Y-103949147D01*
X134051715Y-104271054D01*
X134620000Y-104384093D01*
X135188285Y-104271054D01*
X135670054Y-103949147D01*
X135890000Y-103619974D01*
X136109946Y-103949147D01*
X136591715Y-104271054D01*
X137160000Y-104384093D01*
X137728285Y-104271054D01*
X138210054Y-103949147D01*
X138430000Y-103619974D01*
X138649946Y-103949147D01*
X139131715Y-104271054D01*
X139700000Y-104384093D01*
X140268285Y-104271054D01*
X140750054Y-103949147D01*
X140970000Y-103619974D01*
X141189946Y-103949147D01*
X141671715Y-104271054D01*
X142240000Y-104384093D01*
X142808285Y-104271054D01*
X143290054Y-103949147D01*
X143510000Y-103619974D01*
X143729946Y-103949147D01*
X144211715Y-104271054D01*
X144780000Y-104384093D01*
X145348285Y-104271054D01*
X145830054Y-103949147D01*
X146050000Y-103619974D01*
X146269946Y-103949147D01*
X146751715Y-104271054D01*
X147320000Y-104384093D01*
X147888285Y-104271054D01*
X148370054Y-103949147D01*
X148590000Y-103619974D01*
X148809946Y-103949147D01*
X149291715Y-104271054D01*
X149860000Y-104384093D01*
X150428285Y-104271054D01*
X150910054Y-103949147D01*
X151130000Y-103619974D01*
X151349946Y-103949147D01*
X151831715Y-104271054D01*
X152400000Y-104384093D01*
X152968285Y-104271054D01*
X153450054Y-103949147D01*
X153670000Y-103619974D01*
X153889946Y-103949147D01*
X154371715Y-104271054D01*
X154940000Y-104384093D01*
X155508285Y-104271054D01*
X155990054Y-103949147D01*
X156210000Y-103619974D01*
X156429946Y-103949147D01*
X156911715Y-104271054D01*
X157480000Y-104384093D01*
X158048285Y-104271054D01*
X158530054Y-103949147D01*
X158750000Y-103619974D01*
X158969946Y-103949147D01*
X159451715Y-104271054D01*
X160020000Y-104384093D01*
X160588285Y-104271054D01*
X161070054Y-103949147D01*
X161290000Y-103619974D01*
X161509946Y-103949147D01*
X161991715Y-104271054D01*
X162560000Y-104384093D01*
X163128285Y-104271054D01*
X163610054Y-103949147D01*
X163830000Y-103619974D01*
X164049946Y-103949147D01*
X164531715Y-104271054D01*
X165100000Y-104384093D01*
X165668285Y-104271054D01*
X166150054Y-103949147D01*
X166370000Y-103619974D01*
X166589946Y-103949147D01*
X167071715Y-104271054D01*
X167640000Y-104384093D01*
X168208285Y-104271054D01*
X168690054Y-103949147D01*
X168910000Y-103619974D01*
X169129946Y-103949147D01*
X169611715Y-104271054D01*
X170180000Y-104384093D01*
X170748285Y-104271054D01*
X171230054Y-103949147D01*
X171450000Y-103619974D01*
X171669946Y-103949147D01*
X172151715Y-104271054D01*
X172720000Y-104384093D01*
X173288285Y-104271054D01*
X173770054Y-103949147D01*
X173990000Y-103619974D01*
X174209946Y-103949147D01*
X174691715Y-104271054D01*
X175260000Y-104384093D01*
X175828285Y-104271054D01*
X176310054Y-103949147D01*
X176530000Y-103619974D01*
X176749946Y-103949147D01*
X177231715Y-104271054D01*
X177800000Y-104384093D01*
X178368285Y-104271054D01*
X178850054Y-103949147D01*
X179070000Y-103619974D01*
X179289946Y-103949147D01*
X179771715Y-104271054D01*
X180340000Y-104384093D01*
X180908285Y-104271054D01*
X181390054Y-103949147D01*
X181610000Y-103619974D01*
X181829946Y-103949147D01*
X182311715Y-104271054D01*
X182880000Y-104384093D01*
X183448285Y-104271054D01*
X183930054Y-103949147D01*
X183948000Y-103922289D01*
X183948000Y-104446000D01*
X113232000Y-104446000D01*
X113232000Y-103922289D01*
X113249946Y-103949147D01*
X113731715Y-104271054D01*
X114300000Y-104384093D01*
X114868285Y-104271054D01*
X115350054Y-103949147D01*
X115570000Y-103619974D01*
X115789946Y-103949147D01*
X116271715Y-104271054D01*
X116840000Y-104384093D01*
X117408285Y-104271054D01*
X117890054Y-103949147D01*
X118110000Y-103619974D01*
X118329946Y-103949147D01*
X118811715Y-104271054D01*
X119380000Y-104384093D01*
X119948285Y-104271054D01*
X120430054Y-103949147D01*
X120650000Y-103619974D01*
X120869946Y-103949147D01*
X121351715Y-104271054D01*
X121920000Y-104384093D01*
X122488285Y-104271054D01*
X122970054Y-103949147D01*
X123291961Y-103467378D01*
X123405000Y-102899093D01*
X123405000Y-102840907D01*
X123341771Y-102523031D01*
X123727401Y-102137401D01*
X123892148Y-101890840D01*
X123950000Y-101600000D01*
X123950000Y-99973108D01*
X125558514Y-99973108D01*
X125679181Y-100203000D01*
X126873000Y-100203000D01*
X126873000Y-99009845D01*
X126643110Y-98888524D01*
X126233076Y-99058355D01*
X125804817Y-99448642D01*
X125558514Y-99973108D01*
X123950000Y-99973108D01*
X123950000Y-98298000D01*
X123939148Y-98243444D01*
X123952000Y-98246000D01*
X124968000Y-98246000D01*
X125036584Y-98232358D01*
X125106514Y-98232358D01*
X125300917Y-98193689D01*
X125450844Y-98131587D01*
X125556859Y-98087674D01*
X125721666Y-97977553D01*
X125849366Y-97849852D01*
X125871984Y-97827234D01*
X126020657Y-98049739D01*
G36*
X129540000Y-98455396D02*
X129622236Y-98439038D01*
X130050000Y-98866802D01*
X130050000Y-98951940D01*
X129896890Y-98888524D01*
X129667000Y-99009845D01*
X129667000Y-100203000D01*
X129687000Y-100203000D01*
X129687000Y-100457000D01*
X129667000Y-100457000D01*
X129667000Y-100477000D01*
X129413000Y-100477000D01*
X129413000Y-100457000D01*
X129393000Y-100457000D01*
X129393000Y-100203000D01*
X129413000Y-100203000D01*
X129413000Y-99009845D01*
X129183110Y-98888524D01*
X129030000Y-98951940D01*
X129030000Y-98353951D01*
X129540000Y-98455396D01*
X129540000Y-98455396D01*
G37*
X129540000Y-98455396D02*
X129622236Y-98439038D01*
X130050000Y-98866802D01*
X130050000Y-98951940D01*
X129896890Y-98888524D01*
X129667000Y-99009845D01*
X129667000Y-100203000D01*
X129687000Y-100203000D01*
X129687000Y-100457000D01*
X129667000Y-100457000D01*
X129667000Y-100477000D01*
X129413000Y-100477000D01*
X129413000Y-100457000D01*
X129393000Y-100457000D01*
X129393000Y-100203000D01*
X129413000Y-100203000D01*
X129413000Y-99009845D01*
X129183110Y-98888524D01*
X129030000Y-98951940D01*
X129030000Y-98353951D01*
X129540000Y-98455396D01*
G36*
X146789983Y-98349969D02*
X147320000Y-98455396D01*
X147402236Y-98439038D01*
X147830000Y-98866802D01*
X147830000Y-98951940D01*
X147676890Y-98888524D01*
X147447000Y-99009845D01*
X147447000Y-100203000D01*
X147467000Y-100203000D01*
X147467000Y-100457000D01*
X147447000Y-100457000D01*
X147447000Y-100477000D01*
X147193000Y-100477000D01*
X147193000Y-100457000D01*
X147173000Y-100457000D01*
X147173000Y-100203000D01*
X147193000Y-100203000D01*
X147193000Y-99009845D01*
X146963110Y-98888524D01*
X146810000Y-98951940D01*
X146810000Y-98552000D01*
X146766721Y-98334426D01*
X146789983Y-98349969D01*
X146789983Y-98349969D01*
G37*
X146789983Y-98349969D02*
X147320000Y-98455396D01*
X147402236Y-98439038D01*
X147830000Y-98866802D01*
X147830000Y-98951940D01*
X147676890Y-98888524D01*
X147447000Y-99009845D01*
X147447000Y-100203000D01*
X147467000Y-100203000D01*
X147467000Y-100457000D01*
X147447000Y-100457000D01*
X147447000Y-100477000D01*
X147193000Y-100477000D01*
X147193000Y-100457000D01*
X147173000Y-100457000D01*
X147173000Y-100203000D01*
X147193000Y-100203000D01*
X147193000Y-99009845D01*
X146963110Y-98888524D01*
X146810000Y-98951940D01*
X146810000Y-98552000D01*
X146766721Y-98334426D01*
X146789983Y-98349969D01*
M02*
