G04 #@! TF.FileFunction,Legend,Top*
%FSLAX46Y46*%
G04 Gerber Fmt 4.6, Leading zero omitted, Abs format (unit mm)*
G04 Created by KiCad (PCBNEW 4.0.5) date 09/24/17 10:25:20*
%MOMM*%
%LPD*%
G01*
G04 APERTURE LIST*
%ADD10C,0.100000*%
%ADD11C,0.150000*%
G04 APERTURE END LIST*
D10*
D11*
X114396667Y-106862381D02*
X114063333Y-106386190D01*
X113825238Y-106862381D02*
X113825238Y-105862381D01*
X114206191Y-105862381D01*
X114301429Y-105910000D01*
X114349048Y-105957619D01*
X114396667Y-106052857D01*
X114396667Y-106195714D01*
X114349048Y-106290952D01*
X114301429Y-106338571D01*
X114206191Y-106386190D01*
X113825238Y-106386190D01*
X114825238Y-106338571D02*
X115158572Y-106338571D01*
X115301429Y-106862381D02*
X114825238Y-106862381D01*
X114825238Y-105862381D01*
X115301429Y-105862381D01*
X116063334Y-106338571D02*
X115730000Y-106338571D01*
X115730000Y-106862381D02*
X115730000Y-105862381D01*
X116206191Y-105862381D01*
X116730000Y-105862381D02*
X116730000Y-106100476D01*
X116491905Y-106005238D02*
X116730000Y-106100476D01*
X116968096Y-106005238D01*
X116587143Y-106290952D02*
X116730000Y-106100476D01*
X116872858Y-106290952D01*
X117491905Y-105862381D02*
X117491905Y-106100476D01*
X117253810Y-106005238D02*
X117491905Y-106100476D01*
X117730001Y-106005238D01*
X117349048Y-106290952D02*
X117491905Y-106100476D01*
X117634763Y-106290952D01*
M02*
